{"glyphs":{"0":{"ha":812,"x_min":0,"x_max":0,"o":"m 539 469 b 589 501 554 483 570 494 b 492 563 555 536 522 557 b 422 572 460 569 437 572 b 332 554 392 572 361 566 b 381 510 350 541 367 526 b 424 514 396 513 410 514 b 539 469 466 514 505 499 z m 306 249 b 338 342 328 277 338 308 b 306 433 338 375 328 406 b 279 382 292 416 283 398 b 274 341 276 366 274 352 b 278 309 274 330 275 319 b 306 249 283 288 292 267 z m 443 373 b 445 341 444 363 445 352 b 443 309 445 331 444 320 b 527 341 474 311 502 322 b 443 373 502 361 474 371 z m 289 231 b 256 292 271 252 260 273 b 250 341 252 312 250 328 b 254 380 250 354 251 368 b 289 452 260 406 271 430 b 239 481 274 465 258 475 b 192 342 208 439 192 392 b 239 201 192 291 208 244 b 266 214 248 204 257 209 b 289 231 274 219 281 224 z m 589 181 b 539 213 570 189 554 199 b 424 168 505 183 466 168 b 381 173 410 168 396 170 b 356 147 374 163 365 155 b 332 129 348 140 340 134 b 422 111 361 117 392 111 b 469 115 437 111 453 112 b 589 181 515 125 555 146 z m 577 -57 b 565 -73 576 -68 572 -73 b 553 -57 557 -73 553 -67 b 565 -42 554 -47 558 -42 b 577 -57 573 -42 577 -47 z m 193 844 l 193 865 l 202 865 b 213 854 210 864 213 861 b 202 844 213 848 210 844 z m 300 846 l 300 865 l 309 865 b 321 856 317 865 321 861 b 309 846 321 849 317 846 z m 443 845 b 427 825 442 831 437 825 b 412 845 417 825 412 831 b 427 865 412 858 418 865 b 443 845 438 865 443 858 z m 548 838 l 555 862 l 564 838 z m 433 760 b 418 739 433 746 427 739 b 401 760 407 739 401 746 b 418 780 403 773 408 780 b 433 760 429 779 433 772 z m 625 196 b 628 191 627 195 628 193 l 628 189 b 627 188 628 189 627 188 b 508 98 587 137 547 107 b 422 85 469 90 440 85 b 300 117 380 85 340 96 l 288 123 b 286 127 287 124 286 126 b 286 130 286 128 286 129 l 288 132 b 386 224 332 157 365 188 b 418 340 408 261 418 300 l 418 342 b 385 458 418 383 407 422 b 288 551 363 496 331 526 b 286 555 287 552 286 553 b 286 557 286 555 286 557 l 288 559 b 427 596 334 584 380 596 b 471 593 442 596 457 595 b 628 494 533 582 585 549 b 629 490 629 493 629 492 b 624 486 629 488 627 487 b 579 469 608 484 594 477 b 543 439 565 460 553 450 b 538 437 541 437 540 437 b 535 438 538 437 536 437 b 479 479 515 458 496 471 b 425 490 461 486 444 490 b 399 488 417 490 408 490 b 439 398 418 460 431 431 b 559 345 486 397 526 378 b 561 342 560 344 561 342 b 559 338 561 340 560 339 b 439 285 526 304 486 286 b 399 195 431 252 418 222 b 422 193 407 193 415 193 b 536 245 467 193 505 210 b 540 247 537 246 538 247 l 541 247 b 545 245 543 246 544 245 b 625 196 569 218 595 202 z m 228 176 b 167 342 187 227 167 282 b 229 507 167 401 187 456 b 232 509 229 509 231 509 b 234 509 233 509 233 509 b 337 433 281 494 316 469 b 363 344 354 406 363 376 l 363 342 b 336 250 362 309 353 279 b 233 174 315 214 280 189 l 232 174 b 228 176 231 174 229 174 z m 461 -57 b 449 -73 460 -68 456 -73 b 437 -57 441 -73 437 -67 b 449 -42 438 -47 442 -42 b 461 -57 457 -42 461 -47 z m 129 679 b 85 661 112 679 98 673 b 68 618 74 650 68 635 l 68 64 b 85 20 68 47 74 32 b 129 3 98 9 112 3 l 684 3 b 726 20 701 3 715 9 b 745 64 739 32 745 47 l 745 618 b 726 661 745 635 739 650 b 684 679 715 673 701 679 z m 595 -34 l 595 -81 l 604 -81 l 604 -50 l 604 -50 l 616 -81 l 623 -81 l 635 -50 l 635 -81 l 646 -81 l 646 -34 l 633 -34 l 620 -66 l 619 -66 l 607 -34 z m 180 814 l 193 814 l 193 834 l 204 834 b 220 840 211 834 216 836 b 227 854 224 844 227 848 b 204 876 226 869 218 876 l 180 876 z m 235 814 l 277 814 l 277 825 l 248 825 l 248 840 l 275 840 l 275 850 l 248 850 l 248 865 l 277 865 l 277 876 l 235 876 z m 288 814 l 300 814 l 300 836 l 310 836 l 321 814 l 336 814 l 323 838 b 334 856 330 841 334 847 b 312 876 333 869 326 876 l 288 876 z m 377 858 l 390 858 b 367 877 388 870 380 877 b 350 871 360 877 354 875 b 343 858 345 868 343 863 b 360 841 343 849 349 843 l 367 840 b 378 831 374 838 377 835 b 366 824 377 826 373 824 b 354 833 359 824 355 827 l 341 833 b 349 818 342 826 344 821 b 367 813 353 814 359 813 b 391 831 382 813 389 819 b 372 850 390 842 384 848 l 366 851 b 357 859 360 852 357 854 b 367 866 357 863 360 866 b 377 858 373 866 376 863 z m 456 845 b 448 868 456 854 454 863 b 427 877 443 873 435 877 b 406 868 419 877 412 873 b 398 845 401 863 398 854 b 406 821 398 835 401 827 b 427 813 412 816 419 813 b 448 821 435 813 443 816 b 456 845 454 827 456 835 z m 518 876 l 505 876 l 505 837 l 505 837 l 478 876 l 466 876 l 466 814 l 479 814 l 479 852 l 507 814 l 518 814 z m 540 814 l 545 827 l 566 827 l 571 814 l 585 814 l 564 876 l 547 876 l 526 814 z m 593 814 l 633 814 l 633 825 l 606 825 l 606 876 l 593 876 z m 237 791 l 237 751 b 225 739 237 743 233 739 b 212 751 216 741 212 744 l 212 791 l 199 791 l 199 750 b 206 734 199 743 201 738 b 225 728 211 730 217 728 b 243 734 233 728 239 730 b 251 750 248 738 251 743 l 251 791 z m 295 772 l 308 772 b 285 791 307 785 298 791 b 268 787 278 791 273 790 b 261 772 264 783 262 779 b 278 755 262 764 267 758 l 285 754 b 296 746 292 753 296 750 b 284 739 295 741 291 739 b 273 748 277 739 274 742 l 260 748 b 267 733 260 741 262 736 b 285 728 271 730 277 728 b 309 746 300 728 308 734 b 290 764 308 756 302 762 l 284 766 b 275 773 278 767 275 769 b 285 781 275 778 278 781 b 295 772 291 781 294 778 z m 318 728 l 359 728 l 359 739 l 331 739 l 331 754 l 357 754 l 357 765 l 331 765 l 331 780 l 359 780 l 359 791 l 318 791 z m 447 760 b 438 783 447 770 444 778 b 418 791 433 789 426 791 b 397 783 410 791 403 789 b 389 760 391 778 389 770 b 397 736 389 749 391 742 b 418 728 403 730 410 728 b 438 736 426 728 433 730 b 447 760 444 742 447 749 z m 509 791 l 496 791 l 496 751 l 495 751 l 468 791 l 456 791 l 456 728 l 469 728 l 469 768 l 470 768 l 497 728 l 509 728 z m 519 728 l 559 728 l 559 739 l 532 739 l 532 791 l 519 791 z m 556 791 l 579 751 l 579 728 l 592 728 l 592 751 l 614 791 l 600 791 l 586 764 l 585 764 l 571 791 z m 167 -81 l 199 -81 l 199 -73 l 177 -73 l 177 -61 l 197 -61 l 197 -53 l 177 -53 l 177 -42 l 199 -42 l 199 -34 l 167 -34 z m 246 -34 l 236 -34 l 236 -63 l 235 -63 l 215 -34 l 207 -34 l 207 -81 l 216 -81 l 216 -51 l 217 -51 l 237 -81 l 246 -81 z m 263 -34 l 252 -34 l 267 -57 l 252 -81 l 263 -81 l 273 -64 l 283 -81 l 294 -81 l 279 -57 l 294 -34 l 283 -34 l 273 -50 z m 298 -34 l 315 -64 l 315 -81 l 325 -81 l 325 -64 l 342 -34 l 331 -34 l 320 -54 l 309 -34 z m 386 -50 b 380 -37 385 -45 383 -41 b 366 -33 376 -35 371 -33 b 350 -39 359 -33 354 -35 b 344 -57 346 -43 344 -50 b 350 -75 344 -65 346 -71 b 366 -81 354 -79 359 -81 b 380 -77 372 -81 376 -80 b 386 -64 383 -73 385 -69 l 376 -64 b 366 -73 374 -70 371 -73 b 353 -57 357 -73 353 -67 b 366 -42 355 -47 359 -42 b 376 -50 371 -42 374 -45 z m 393 -81 l 423 -81 l 423 -73 l 404 -73 l 404 -34 l 393 -34 z m 471 -57 b 465 -39 471 -50 469 -43 b 449 -33 460 -35 456 -33 b 433 -39 443 -33 437 -35 b 427 -57 429 -43 427 -50 b 433 -75 427 -65 429 -71 b 449 -81 437 -79 443 -81 b 465 -75 456 -81 460 -79 b 471 -57 469 -71 471 -65 z m 481 -81 b 487 -76 484 -81 486 -79 b 481 -71 486 -73 484 -71 b 475 -76 478 -71 476 -73 b 481 -81 476 -79 478 -81 z m 536 -50 b 530 -37 536 -45 534 -41 b 516 -33 526 -35 522 -33 b 500 -39 510 -33 505 -35 b 494 -57 496 -43 494 -50 b 500 -75 494 -65 496 -71 b 516 -81 505 -79 510 -81 b 530 -77 522 -81 527 -80 b 536 -64 534 -73 536 -69 l 526 -64 b 516 -73 525 -70 522 -73 b 505 -57 508 -73 505 -67 b 516 -42 505 -47 509 -42 b 526 -50 522 -42 525 -45 z m 587 -57 b 581 -39 587 -50 585 -43 b 565 -33 576 -35 571 -33 b 549 -39 559 -33 553 -35 b 543 -57 545 -43 543 -50 b 549 -75 543 -65 545 -71 b 565 -81 553 -79 559 -81 b 581 -75 571 -81 576 -79 b 587 -57 585 -71 587 -65 z "},"1":{"ha":812,"x_min":0,"x_max":0,"o":"m 539 469 b 589 501 554 483 570 494 b 492 563 555 536 522 557 b 422 572 460 569 437 572 b 332 554 392 572 361 566 b 381 510 350 541 367 526 b 424 514 396 513 410 514 b 539 469 466 514 505 499 z m 306 249 b 338 342 328 277 338 308 b 306 433 338 375 328 406 b 279 382 292 416 283 398 b 274 341 276 366 274 352 b 278 309 274 330 275 319 b 306 249 283 288 292 267 z m 443 373 b 445 341 444 363 445 352 b 443 309 445 331 444 320 b 527 341 474 311 502 322 b 443 373 502 361 474 371 z m 289 231 b 256 292 271 252 260 273 b 250 341 252 312 250 328 b 254 380 250 354 251 368 b 289 452 260 406 271 430 b 239 481 274 465 258 475 b 192 342 208 439 192 392 b 239 201 192 291 208 244 b 266 214 248 204 257 209 b 289 231 274 219 281 224 z m 589 181 b 539 213 570 189 554 199 b 424 168 505 183 466 168 b 381 173 410 168 396 170 b 356 147 374 163 365 155 b 332 129 348 140 340 134 b 422 111 361 117 392 111 b 469 115 437 111 453 112 b 589 181 515 125 555 146 z m 577 -57 b 565 -73 576 -68 572 -73 b 553 -57 557 -73 553 -67 b 565 -42 554 -47 558 -42 b 577 -57 573 -42 577 -47 z m 193 844 l 193 865 l 202 865 b 213 854 210 864 213 861 b 202 844 213 848 210 844 z m 300 846 l 300 865 l 309 865 b 321 856 317 865 321 861 b 309 846 321 849 317 846 z m 443 845 b 427 825 442 831 437 825 b 412 845 417 825 412 831 b 427 865 412 858 418 865 b 443 845 438 865 443 858 z m 548 838 l 555 862 l 564 838 z m 433 760 b 418 739 433 746 427 739 b 401 760 407 739 401 746 b 418 780 403 773 408 780 b 433 760 429 779 433 772 z m 625 196 b 628 191 627 195 628 193 l 628 189 b 627 188 628 189 627 188 b 508 98 587 137 547 107 b 422 85 469 90 440 85 b 300 117 380 85 340 96 l 288 123 b 286 127 287 124 286 126 b 286 130 286 128 286 129 l 288 132 b 386 224 332 157 365 188 b 418 340 408 261 418 300 l 418 342 b 385 458 418 383 407 422 b 288 551 363 496 331 526 b 286 555 287 552 286 553 b 286 557 286 555 286 557 l 288 559 b 427 596 334 584 380 596 b 471 593 442 596 457 595 b 628 494 533 582 585 549 b 629 490 629 493 629 492 b 624 486 629 488 627 487 b 579 469 608 484 594 477 b 543 439 565 460 553 450 b 538 437 541 437 540 437 b 535 438 538 437 536 437 b 479 479 515 458 496 471 b 425 490 461 486 444 490 b 399 488 417 490 408 490 b 439 398 418 460 431 431 b 559 345 486 397 526 378 b 561 342 560 344 561 342 b 559 338 561 340 560 339 b 439 285 526 304 486 286 b 399 195 431 252 418 222 b 422 193 407 193 415 193 b 536 245 467 193 505 210 b 540 247 537 246 538 247 l 541 247 b 545 245 543 246 544 245 b 625 196 569 218 595 202 z m 228 176 b 167 342 187 227 167 282 b 229 507 167 401 187 456 b 232 509 229 509 231 509 b 234 509 233 509 233 509 b 337 433 281 494 316 469 b 363 344 354 406 363 376 l 363 342 b 336 250 362 309 353 279 b 233 174 315 214 280 189 l 232 174 b 228 176 231 174 229 174 z m 461 -57 b 449 -73 460 -68 456 -73 b 437 -57 441 -73 437 -67 b 449 -42 438 -47 442 -42 b 461 -57 457 -42 461 -47 z m 129 679 b 85 661 112 679 98 673 b 68 618 74 650 68 635 l 68 64 b 85 20 68 47 74 32 b 129 3 98 9 112 3 l 684 3 b 726 20 701 3 715 9 b 745 64 739 32 745 47 l 745 618 b 726 661 745 635 739 650 b 684 679 715 673 701 679 z m 595 -34 l 595 -81 l 604 -81 l 604 -50 l 604 -50 l 616 -81 l 623 -81 l 635 -50 l 635 -81 l 646 -81 l 646 -34 l 633 -34 l 620 -66 l 619 -66 l 607 -34 z m 180 814 l 193 814 l 193 834 l 204 834 b 220 840 211 834 216 836 b 227 854 224 844 227 848 b 204 876 226 869 218 876 l 180 876 z m 235 814 l 277 814 l 277 825 l 248 825 l 248 840 l 275 840 l 275 850 l 248 850 l 248 865 l 277 865 l 277 876 l 235 876 z m 288 814 l 300 814 l 300 836 l 310 836 l 321 814 l 336 814 l 323 838 b 334 856 330 841 334 847 b 312 876 333 869 326 876 l 288 876 z m 377 858 l 390 858 b 367 877 388 870 380 877 b 350 871 360 877 354 875 b 343 858 345 868 343 863 b 360 841 343 849 349 843 l 367 840 b 378 831 374 838 377 835 b 366 824 377 826 373 824 b 354 833 359 824 355 827 l 341 833 b 349 818 342 826 344 821 b 367 813 353 814 359 813 b 391 831 382 813 389 819 b 372 850 390 842 384 848 l 366 851 b 357 859 360 852 357 854 b 367 866 357 863 360 866 b 377 858 373 866 376 863 z m 456 845 b 448 868 456 854 454 863 b 427 877 443 873 435 877 b 406 868 419 877 412 873 b 398 845 401 863 398 854 b 406 821 398 835 401 827 b 427 813 412 816 419 813 b 448 821 435 813 443 816 b 456 845 454 827 456 835 z m 518 876 l 505 876 l 505 837 l 505 837 l 478 876 l 466 876 l 466 814 l 479 814 l 479 852 l 507 814 l 518 814 z m 540 814 l 545 827 l 566 827 l 571 814 l 585 814 l 564 876 l 547 876 l 526 814 z m 593 814 l 633 814 l 633 825 l 606 825 l 606 876 l 593 876 z m 237 791 l 237 751 b 225 739 237 743 233 739 b 212 751 216 741 212 744 l 212 791 l 199 791 l 199 750 b 206 734 199 743 201 738 b 225 728 211 730 217 728 b 243 734 233 728 239 730 b 251 750 248 738 251 743 l 251 791 z m 295 772 l 308 772 b 285 791 307 785 298 791 b 268 787 278 791 273 790 b 261 772 264 783 262 779 b 278 755 262 764 267 758 l 285 754 b 296 746 292 753 296 750 b 284 739 295 741 291 739 b 273 748 277 739 274 742 l 260 748 b 267 733 260 741 262 736 b 285 728 271 730 277 728 b 309 746 300 728 308 734 b 290 764 308 756 302 762 l 284 766 b 275 773 278 767 275 769 b 285 781 275 778 278 781 b 295 772 291 781 294 778 z m 318 728 l 359 728 l 359 739 l 331 739 l 331 754 l 357 754 l 357 765 l 331 765 l 331 780 l 359 780 l 359 791 l 318 791 z m 447 760 b 438 783 447 770 444 778 b 418 791 433 789 426 791 b 397 783 410 791 403 789 b 389 760 391 778 389 770 b 397 736 389 749 391 742 b 418 728 403 730 410 728 b 438 736 426 728 433 730 b 447 760 444 742 447 749 z m 509 791 l 496 791 l 496 751 l 495 751 l 468 791 l 456 791 l 456 728 l 469 728 l 469 768 l 470 768 l 497 728 l 509 728 z m 519 728 l 559 728 l 559 739 l 532 739 l 532 791 l 519 791 z m 556 791 l 579 751 l 579 728 l 592 728 l 592 751 l 614 791 l 600 791 l 586 764 l 585 764 l 571 791 z m 167 -81 l 199 -81 l 199 -73 l 177 -73 l 177 -61 l 197 -61 l 197 -53 l 177 -53 l 177 -42 l 199 -42 l 199 -34 l 167 -34 z m 246 -34 l 236 -34 l 236 -63 l 235 -63 l 215 -34 l 207 -34 l 207 -81 l 216 -81 l 216 -51 l 217 -51 l 237 -81 l 246 -81 z m 263 -34 l 252 -34 l 267 -57 l 252 -81 l 263 -81 l 273 -64 l 283 -81 l 294 -81 l 279 -57 l 294 -34 l 283 -34 l 273 -50 z m 298 -34 l 315 -64 l 315 -81 l 325 -81 l 325 -64 l 342 -34 l 331 -34 l 320 -54 l 309 -34 z m 386 -50 b 380 -37 385 -45 383 -41 b 366 -33 376 -35 371 -33 b 350 -39 359 -33 354 -35 b 344 -57 346 -43 344 -50 b 350 -75 344 -65 346 -71 b 366 -81 354 -79 359 -81 b 380 -77 372 -81 376 -80 b 386 -64 383 -73 385 -69 l 376 -64 b 366 -73 374 -70 371 -73 b 353 -57 357 -73 353 -67 b 366 -42 355 -47 359 -42 b 376 -50 371 -42 374 -45 z m 393 -81 l 423 -81 l 423 -73 l 404 -73 l 404 -34 l 393 -34 z m 471 -57 b 465 -39 471 -50 469 -43 b 449 -33 460 -35 456 -33 b 433 -39 443 -33 437 -35 b 427 -57 429 -43 427 -50 b 433 -75 427 -65 429 -71 b 449 -81 437 -79 443 -81 b 465 -75 456 -81 460 -79 b 471 -57 469 -71 471 -65 z m 481 -81 b 487 -76 484 -81 486 -79 b 481 -71 486 -73 484 -71 b 475 -76 478 -71 476 -73 b 481 -81 476 -79 478 -81 z m 536 -50 b 530 -37 536 -45 534 -41 b 516 -33 526 -35 522 -33 b 500 -39 510 -33 505 -35 b 494 -57 496 -43 494 -50 b 500 -75 494 -65 496 -71 b 516 -81 505 -79 510 -81 b 530 -77 522 -81 527 -80 b 536 -64 534 -73 536 -69 l 526 -64 b 516 -73 525 -70 522 -73 b 505 -57 508 -73 505 -67 b 516 -42 505 -47 509 -42 b 526 -50 522 -42 525 -45 z m 587 -57 b 581 -39 587 -50 585 -43 b 565 -33 576 -35 571 -33 b 549 -39 559 -33 553 -35 b 543 -57 545 -43 543 -50 b 549 -75 543 -65 545 -71 b 565 -81 553 -79 559 -81 b 581 -75 571 -81 576 -79 b 587 -57 585 -71 587 -65 z "},"2":{"ha":812,"x_min":0,"x_max":0,"o":"m 539 469 b 589 501 554 483 570 494 b 492 563 555 536 522 557 b 422 572 460 569 437 572 b 332 554 392 572 361 566 b 381 510 350 541 367 526 b 424 514 396 513 410 514 b 539 469 466 514 505 499 z m 306 249 b 338 342 328 277 338 308 b 306 433 338 375 328 406 b 279 382 292 416 283 398 b 274 341 276 366 274 352 b 278 309 274 330 275 319 b 306 249 283 288 292 267 z m 443 373 b 445 341 444 363 445 352 b 443 309 445 331 444 320 b 527 341 474 311 502 322 b 443 373 502 361 474 371 z m 289 231 b 256 292 271 252 260 273 b 250 341 252 312 250 328 b 254 380 250 354 251 368 b 289 452 260 406 271 430 b 239 481 274 465 258 475 b 192 342 208 439 192 392 b 239 201 192 291 208 244 b 266 214 248 204 257 209 b 289 231 274 219 281 224 z m 589 181 b 539 213 570 189 554 199 b 424 168 505 183 466 168 b 381 173 410 168 396 170 b 356 147 374 163 365 155 b 332 129 348 140 340 134 b 422 111 361 117 392 111 b 469 115 437 111 453 112 b 589 181 515 125 555 146 z m 577 -57 b 565 -73 576 -68 572 -73 b 553 -57 557 -73 553 -67 b 565 -42 554 -47 558 -42 b 577 -57 573 -42 577 -47 z m 193 844 l 193 865 l 202 865 b 213 854 210 864 213 861 b 202 844 213 848 210 844 z m 300 846 l 300 865 l 309 865 b 321 856 317 865 321 861 b 309 846 321 849 317 846 z m 443 845 b 427 825 442 831 437 825 b 412 845 417 825 412 831 b 427 865 412 858 418 865 b 443 845 438 865 443 858 z m 548 838 l 555 862 l 564 838 z m 433 760 b 418 739 433 746 427 739 b 401 760 407 739 401 746 b 418 780 403 773 408 780 b 433 760 429 779 433 772 z m 625 196 b 628 191 627 195 628 193 l 628 189 b 627 188 628 189 627 188 b 508 98 587 137 547 107 b 422 85 469 90 440 85 b 300 117 380 85 340 96 l 288 123 b 286 127 287 124 286 126 b 286 130 286 128 286 129 l 288 132 b 386 224 332 157 365 188 b 418 340 408 261 418 300 l 418 342 b 385 458 418 383 407 422 b 288 551 363 496 331 526 b 286 555 287 552 286 553 b 286 557 286 555 286 557 l 288 559 b 427 596 334 584 380 596 b 471 593 442 596 457 595 b 628 494 533 582 585 549 b 629 490 629 493 629 492 b 624 486 629 488 627 487 b 579 469 608 484 594 477 b 543 439 565 460 553 450 b 538 437 541 437 540 437 b 535 438 538 437 536 437 b 479 479 515 458 496 471 b 425 490 461 486 444 490 b 399 488 417 490 408 490 b 439 398 418 460 431 431 b 559 345 486 397 526 378 b 561 342 560 344 561 342 b 559 338 561 340 560 339 b 439 285 526 304 486 286 b 399 195 431 252 418 222 b 422 193 407 193 415 193 b 536 245 467 193 505 210 b 540 247 537 246 538 247 l 541 247 b 545 245 543 246 544 245 b 625 196 569 218 595 202 z m 228 176 b 167 342 187 227 167 282 b 229 507 167 401 187 456 b 232 509 229 509 231 509 b 234 509 233 509 233 509 b 337 433 281 494 316 469 b 363 344 354 406 363 376 l 363 342 b 336 250 362 309 353 279 b 233 174 315 214 280 189 l 232 174 b 228 176 231 174 229 174 z m 461 -57 b 449 -73 460 -68 456 -73 b 437 -57 441 -73 437 -67 b 449 -42 438 -47 442 -42 b 461 -57 457 -42 461 -47 z m 129 679 b 85 661 112 679 98 673 b 68 618 74 650 68 635 l 68 64 b 85 20 68 47 74 32 b 129 3 98 9 112 3 l 684 3 b 726 20 701 3 715 9 b 745 64 739 32 745 47 l 745 618 b 726 661 745 635 739 650 b 684 679 715 673 701 679 z m 595 -34 l 595 -81 l 604 -81 l 604 -50 l 604 -50 l 616 -81 l 623 -81 l 635 -50 l 635 -81 l 646 -81 l 646 -34 l 633 -34 l 620 -66 l 619 -66 l 607 -34 z m 180 814 l 193 814 l 193 834 l 204 834 b 220 840 211 834 216 836 b 227 854 224 844 227 848 b 204 876 226 869 218 876 l 180 876 z m 235 814 l 277 814 l 277 825 l 248 825 l 248 840 l 275 840 l 275 850 l 248 850 l 248 865 l 277 865 l 277 876 l 235 876 z m 288 814 l 300 814 l 300 836 l 310 836 l 321 814 l 336 814 l 323 838 b 334 856 330 841 334 847 b 312 876 333 869 326 876 l 288 876 z m 377 858 l 390 858 b 367 877 388 870 380 877 b 350 871 360 877 354 875 b 343 858 345 868 343 863 b 360 841 343 849 349 843 l 367 840 b 378 831 374 838 377 835 b 366 824 377 826 373 824 b 354 833 359 824 355 827 l 341 833 b 349 818 342 826 344 821 b 367 813 353 814 359 813 b 391 831 382 813 389 819 b 372 850 390 842 384 848 l 366 851 b 357 859 360 852 357 854 b 367 866 357 863 360 866 b 377 858 373 866 376 863 z m 456 845 b 448 868 456 854 454 863 b 427 877 443 873 435 877 b 406 868 419 877 412 873 b 398 845 401 863 398 854 b 406 821 398 835 401 827 b 427 813 412 816 419 813 b 448 821 435 813 443 816 b 456 845 454 827 456 835 z m 518 876 l 505 876 l 505 837 l 505 837 l 478 876 l 466 876 l 466 814 l 479 814 l 479 852 l 507 814 l 518 814 z m 540 814 l 545 827 l 566 827 l 571 814 l 585 814 l 564 876 l 547 876 l 526 814 z m 593 814 l 633 814 l 633 825 l 606 825 l 606 876 l 593 876 z m 237 791 l 237 751 b 225 739 237 743 233 739 b 212 751 216 741 212 744 l 212 791 l 199 791 l 199 750 b 206 734 199 743 201 738 b 225 728 211 730 217 728 b 243 734 233 728 239 730 b 251 750 248 738 251 743 l 251 791 z m 295 772 l 308 772 b 285 791 307 785 298 791 b 268 787 278 791 273 790 b 261 772 264 783 262 779 b 278 755 262 764 267 758 l 285 754 b 296 746 292 753 296 750 b 284 739 295 741 291 739 b 273 748 277 739 274 742 l 260 748 b 267 733 260 741 262 736 b 285 728 271 730 277 728 b 309 746 300 728 308 734 b 290 764 308 756 302 762 l 284 766 b 275 773 278 767 275 769 b 285 781 275 778 278 781 b 295 772 291 781 294 778 z m 318 728 l 359 728 l 359 739 l 331 739 l 331 754 l 357 754 l 357 765 l 331 765 l 331 780 l 359 780 l 359 791 l 318 791 z m 447 760 b 438 783 447 770 444 778 b 418 791 433 789 426 791 b 397 783 410 791 403 789 b 389 760 391 778 389 770 b 397 736 389 749 391 742 b 418 728 403 730 410 728 b 438 736 426 728 433 730 b 447 760 444 742 447 749 z m 509 791 l 496 791 l 496 751 l 495 751 l 468 791 l 456 791 l 456 728 l 469 728 l 469 768 l 470 768 l 497 728 l 509 728 z m 519 728 l 559 728 l 559 739 l 532 739 l 532 791 l 519 791 z m 556 791 l 579 751 l 579 728 l 592 728 l 592 751 l 614 791 l 600 791 l 586 764 l 585 764 l 571 791 z m 167 -81 l 199 -81 l 199 -73 l 177 -73 l 177 -61 l 197 -61 l 197 -53 l 177 -53 l 177 -42 l 199 -42 l 199 -34 l 167 -34 z m 246 -34 l 236 -34 l 236 -63 l 235 -63 l 215 -34 l 207 -34 l 207 -81 l 216 -81 l 216 -51 l 217 -51 l 237 -81 l 246 -81 z m 263 -34 l 252 -34 l 267 -57 l 252 -81 l 263 -81 l 273 -64 l 283 -81 l 294 -81 l 279 -57 l 294 -34 l 283 -34 l 273 -50 z m 298 -34 l 315 -64 l 315 -81 l 325 -81 l 325 -64 l 342 -34 l 331 -34 l 320 -54 l 309 -34 z m 386 -50 b 380 -37 385 -45 383 -41 b 366 -33 376 -35 371 -33 b 350 -39 359 -33 354 -35 b 344 -57 346 -43 344 -50 b 350 -75 344 -65 346 -71 b 366 -81 354 -79 359 -81 b 380 -77 372 -81 376 -80 b 386 -64 383 -73 385 -69 l 376 -64 b 366 -73 374 -70 371 -73 b 353 -57 357 -73 353 -67 b 366 -42 355 -47 359 -42 b 376 -50 371 -42 374 -45 z m 393 -81 l 423 -81 l 423 -73 l 404 -73 l 404 -34 l 393 -34 z m 471 -57 b 465 -39 471 -50 469 -43 b 449 -33 460 -35 456 -33 b 433 -39 443 -33 437 -35 b 427 -57 429 -43 427 -50 b 433 -75 427 -65 429 -71 b 449 -81 437 -79 443 -81 b 465 -75 456 -81 460 -79 b 471 -57 469 -71 471 -65 z m 481 -81 b 487 -76 484 -81 486 -79 b 481 -71 486 -73 484 -71 b 475 -76 478 -71 476 -73 b 481 -81 476 -79 478 -81 z m 536 -50 b 530 -37 536 -45 534 -41 b 516 -33 526 -35 522 -33 b 500 -39 510 -33 505 -35 b 494 -57 496 -43 494 -50 b 500 -75 494 -65 496 -71 b 516 -81 505 -79 510 -81 b 530 -77 522 -81 527 -80 b 536 -64 534 -73 536 -69 l 526 -64 b 516 -73 525 -70 522 -73 b 505 -57 508 -73 505 -67 b 516 -42 505 -47 509 -42 b 526 -50 522 -42 525 -45 z m 587 -57 b 581 -39 587 -50 585 -43 b 565 -33 576 -35 571 -33 b 549 -39 559 -33 553 -35 b 543 -57 545 -43 543 -50 b 549 -75 543 -65 545 -71 b 565 -81 553 -79 559 -81 b 581 -75 571 -81 576 -79 b 587 -57 585 -71 587 -65 z "},"3":{"ha":812,"x_min":0,"x_max":0,"o":"m 539 469 b 589 501 554 483 570 494 b 492 563 555 536 522 557 b 422 572 460 569 437 572 b 332 554 392 572 361 566 b 381 510 350 541 367 526 b 424 514 396 513 410 514 b 539 469 466 514 505 499 z m 306 249 b 338 342 328 277 338 308 b 306 433 338 375 328 406 b 279 382 292 416 283 398 b 274 341 276 366 274 352 b 278 309 274 330 275 319 b 306 249 283 288 292 267 z m 443 373 b 445 341 444 363 445 352 b 443 309 445 331 444 320 b 527 341 474 311 502 322 b 443 373 502 361 474 371 z m 289 231 b 256 292 271 252 260 273 b 250 341 252 312 250 328 b 254 380 250 354 251 368 b 289 452 260 406 271 430 b 239 481 274 465 258 475 b 192 342 208 439 192 392 b 239 201 192 291 208 244 b 266 214 248 204 257 209 b 289 231 274 219 281 224 z m 589 181 b 539 213 570 189 554 199 b 424 168 505 183 466 168 b 381 173 410 168 396 170 b 356 147 374 163 365 155 b 332 129 348 140 340 134 b 422 111 361 117 392 111 b 469 115 437 111 453 112 b 589 181 515 125 555 146 z m 577 -57 b 565 -73 576 -68 572 -73 b 553 -57 557 -73 553 -67 b 565 -42 554 -47 558 -42 b 577 -57 573 -42 577 -47 z m 193 844 l 193 865 l 202 865 b 213 854 210 864 213 861 b 202 844 213 848 210 844 z m 300 846 l 300 865 l 309 865 b 321 856 317 865 321 861 b 309 846 321 849 317 846 z m 443 845 b 427 825 442 831 437 825 b 412 845 417 825 412 831 b 427 865 412 858 418 865 b 443 845 438 865 443 858 z m 548 838 l 555 862 l 564 838 z m 433 760 b 418 739 433 746 427 739 b 401 760 407 739 401 746 b 418 780 403 773 408 780 b 433 760 429 779 433 772 z m 625 196 b 628 191 627 195 628 193 l 628 189 b 627 188 628 189 627 188 b 508 98 587 137 547 107 b 422 85 469 90 440 85 b 300 117 380 85 340 96 l 288 123 b 286 127 287 124 286 126 b 286 130 286 128 286 129 l 288 132 b 386 224 332 157 365 188 b 418 340 408 261 418 300 l 418 342 b 385 458 418 383 407 422 b 288 551 363 496 331 526 b 286 555 287 552 286 553 b 286 557 286 555 286 557 l 288 559 b 427 596 334 584 380 596 b 471 593 442 596 457 595 b 628 494 533 582 585 549 b 629 490 629 493 629 492 b 624 486 629 488 627 487 b 579 469 608 484 594 477 b 543 439 565 460 553 450 b 538 437 541 437 540 437 b 535 438 538 437 536 437 b 479 479 515 458 496 471 b 425 490 461 486 444 490 b 399 488 417 490 408 490 b 439 398 418 460 431 431 b 559 345 486 397 526 378 b 561 342 560 344 561 342 b 559 338 561 340 560 339 b 439 285 526 304 486 286 b 399 195 431 252 418 222 b 422 193 407 193 415 193 b 536 245 467 193 505 210 b 540 247 537 246 538 247 l 541 247 b 545 245 543 246 544 245 b 625 196 569 218 595 202 z m 228 176 b 167 342 187 227 167 282 b 229 507 167 401 187 456 b 232 509 229 509 231 509 b 234 509 233 509 233 509 b 337 433 281 494 316 469 b 363 344 354 406 363 376 l 363 342 b 336 250 362 309 353 279 b 233 174 315 214 280 189 l 232 174 b 228 176 231 174 229 174 z m 461 -57 b 449 -73 460 -68 456 -73 b 437 -57 441 -73 437 -67 b 449 -42 438 -47 442 -42 b 461 -57 457 -42 461 -47 z m 129 679 b 85 661 112 679 98 673 b 68 618 74 650 68 635 l 68 64 b 85 20 68 47 74 32 b 129 3 98 9 112 3 l 684 3 b 726 20 701 3 715 9 b 745 64 739 32 745 47 l 745 618 b 726 661 745 635 739 650 b 684 679 715 673 701 679 z m 595 -34 l 595 -81 l 604 -81 l 604 -50 l 604 -50 l 616 -81 l 623 -81 l 635 -50 l 635 -81 l 646 -81 l 646 -34 l 633 -34 l 620 -66 l 619 -66 l 607 -34 z m 180 814 l 193 814 l 193 834 l 204 834 b 220 840 211 834 216 836 b 227 854 224 844 227 848 b 204 876 226 869 218 876 l 180 876 z m 235 814 l 277 814 l 277 825 l 248 825 l 248 840 l 275 840 l 275 850 l 248 850 l 248 865 l 277 865 l 277 876 l 235 876 z m 288 814 l 300 814 l 300 836 l 310 836 l 321 814 l 336 814 l 323 838 b 334 856 330 841 334 847 b 312 876 333 869 326 876 l 288 876 z m 377 858 l 390 858 b 367 877 388 870 380 877 b 350 871 360 877 354 875 b 343 858 345 868 343 863 b 360 841 343 849 349 843 l 367 840 b 378 831 374 838 377 835 b 366 824 377 826 373 824 b 354 833 359 824 355 827 l 341 833 b 349 818 342 826 344 821 b 367 813 353 814 359 813 b 391 831 382 813 389 819 b 372 850 390 842 384 848 l 366 851 b 357 859 360 852 357 854 b 367 866 357 863 360 866 b 377 858 373 866 376 863 z m 456 845 b 448 868 456 854 454 863 b 427 877 443 873 435 877 b 406 868 419 877 412 873 b 398 845 401 863 398 854 b 406 821 398 835 401 827 b 427 813 412 816 419 813 b 448 821 435 813 443 816 b 456 845 454 827 456 835 z m 518 876 l 505 876 l 505 837 l 505 837 l 478 876 l 466 876 l 466 814 l 479 814 l 479 852 l 507 814 l 518 814 z m 540 814 l 545 827 l 566 827 l 571 814 l 585 814 l 564 876 l 547 876 l 526 814 z m 593 814 l 633 814 l 633 825 l 606 825 l 606 876 l 593 876 z m 237 791 l 237 751 b 225 739 237 743 233 739 b 212 751 216 741 212 744 l 212 791 l 199 791 l 199 750 b 206 734 199 743 201 738 b 225 728 211 730 217 728 b 243 734 233 728 239 730 b 251 750 248 738 251 743 l 251 791 z m 295 772 l 308 772 b 285 791 307 785 298 791 b 268 787 278 791 273 790 b 261 772 264 783 262 779 b 278 755 262 764 267 758 l 285 754 b 296 746 292 753 296 750 b 284 739 295 741 291 739 b 273 748 277 739 274 742 l 260 748 b 267 733 260 741 262 736 b 285 728 271 730 277 728 b 309 746 300 728 308 734 b 290 764 308 756 302 762 l 284 766 b 275 773 278 767 275 769 b 285 781 275 778 278 781 b 295 772 291 781 294 778 z m 318 728 l 359 728 l 359 739 l 331 739 l 331 754 l 357 754 l 357 765 l 331 765 l 331 780 l 359 780 l 359 791 l 318 791 z m 447 760 b 438 783 447 770 444 778 b 418 791 433 789 426 791 b 397 783 410 791 403 789 b 389 760 391 778 389 770 b 397 736 389 749 391 742 b 418 728 403 730 410 728 b 438 736 426 728 433 730 b 447 760 444 742 447 749 z m 509 791 l 496 791 l 496 751 l 495 751 l 468 791 l 456 791 l 456 728 l 469 728 l 469 768 l 470 768 l 497 728 l 509 728 z m 519 728 l 559 728 l 559 739 l 532 739 l 532 791 l 519 791 z m 556 791 l 579 751 l 579 728 l 592 728 l 592 751 l 614 791 l 600 791 l 586 764 l 585 764 l 571 791 z m 167 -81 l 199 -81 l 199 -73 l 177 -73 l 177 -61 l 197 -61 l 197 -53 l 177 -53 l 177 -42 l 199 -42 l 199 -34 l 167 -34 z m 246 -34 l 236 -34 l 236 -63 l 235 -63 l 215 -34 l 207 -34 l 207 -81 l 216 -81 l 216 -51 l 217 -51 l 237 -81 l 246 -81 z m 263 -34 l 252 -34 l 267 -57 l 252 -81 l 263 -81 l 273 -64 l 283 -81 l 294 -81 l 279 -57 l 294 -34 l 283 -34 l 273 -50 z m 298 -34 l 315 -64 l 315 -81 l 325 -81 l 325 -64 l 342 -34 l 331 -34 l 320 -54 l 309 -34 z m 386 -50 b 380 -37 385 -45 383 -41 b 366 -33 376 -35 371 -33 b 350 -39 359 -33 354 -35 b 344 -57 346 -43 344 -50 b 350 -75 344 -65 346 -71 b 366 -81 354 -79 359 -81 b 380 -77 372 -81 376 -80 b 386 -64 383 -73 385 -69 l 376 -64 b 366 -73 374 -70 371 -73 b 353 -57 357 -73 353 -67 b 366 -42 355 -47 359 -42 b 376 -50 371 -42 374 -45 z m 393 -81 l 423 -81 l 423 -73 l 404 -73 l 404 -34 l 393 -34 z m 471 -57 b 465 -39 471 -50 469 -43 b 449 -33 460 -35 456 -33 b 433 -39 443 -33 437 -35 b 427 -57 429 -43 427 -50 b 433 -75 427 -65 429 -71 b 449 -81 437 -79 443 -81 b 465 -75 456 -81 460 -79 b 471 -57 469 -71 471 -65 z m 481 -81 b 487 -76 484 -81 486 -79 b 481 -71 486 -73 484 -71 b 475 -76 478 -71 476 -73 b 481 -81 476 -79 478 -81 z m 536 -50 b 530 -37 536 -45 534 -41 b 516 -33 526 -35 522 -33 b 500 -39 510 -33 505 -35 b 494 -57 496 -43 494 -50 b 500 -75 494 -65 496 -71 b 516 -81 505 -79 510 -81 b 530 -77 522 -81 527 -80 b 536 -64 534 -73 536 -69 l 526 -64 b 516 -73 525 -70 522 -73 b 505 -57 508 -73 505 -67 b 516 -42 505 -47 509 -42 b 526 -50 522 -42 525 -45 z m 587 -57 b 581 -39 587 -50 585 -43 b 565 -33 576 -35 571 -33 b 549 -39 559 -33 553 -35 b 543 -57 545 -43 543 -50 b 549 -75 543 -65 545 -71 b 565 -81 553 -79 559 -81 b 581 -75 571 -81 576 -79 b 587 -57 585 -71 587 -65 z "},"4":{"ha":812,"x_min":0,"x_max":0,"o":"m 539 469 b 589 501 554 483 570 494 b 492 563 555 536 522 557 b 422 572 460 569 437 572 b 332 554 392 572 361 566 b 381 510 350 541 367 526 b 424 514 396 513 410 514 b 539 469 466 514 505 499 z m 306 249 b 338 342 328 277 338 308 b 306 433 338 375 328 406 b 279 382 292 416 283 398 b 274 341 276 366 274 352 b 278 309 274 330 275 319 b 306 249 283 288 292 267 z m 443 373 b 445 341 444 363 445 352 b 443 309 445 331 444 320 b 527 341 474 311 502 322 b 443 373 502 361 474 371 z m 289 231 b 256 292 271 252 260 273 b 250 341 252 312 250 328 b 254 380 250 354 251 368 b 289 452 260 406 271 430 b 239 481 274 465 258 475 b 192 342 208 439 192 392 b 239 201 192 291 208 244 b 266 214 248 204 257 209 b 289 231 274 219 281 224 z m 589 181 b 539 213 570 189 554 199 b 424 168 505 183 466 168 b 381 173 410 168 396 170 b 356 147 374 163 365 155 b 332 129 348 140 340 134 b 422 111 361 117 392 111 b 469 115 437 111 453 112 b 589 181 515 125 555 146 z m 577 -57 b 565 -73 576 -68 572 -73 b 553 -57 557 -73 553 -67 b 565 -42 554 -47 558 -42 b 577 -57 573 -42 577 -47 z m 193 844 l 193 865 l 202 865 b 213 854 210 864 213 861 b 202 844 213 848 210 844 z m 300 846 l 300 865 l 309 865 b 321 856 317 865 321 861 b 309 846 321 849 317 846 z m 443 845 b 427 825 442 831 437 825 b 412 845 417 825 412 831 b 427 865 412 858 418 865 b 443 845 438 865 443 858 z m 548 838 l 555 862 l 564 838 z m 433 760 b 418 739 433 746 427 739 b 401 760 407 739 401 746 b 418 780 403 773 408 780 b 433 760 429 779 433 772 z m 625 196 b 628 191 627 195 628 193 l 628 189 b 627 188 628 189 627 188 b 508 98 587 137 547 107 b 422 85 469 90 440 85 b 300 117 380 85 340 96 l 288 123 b 286 127 287 124 286 126 b 286 130 286 128 286 129 l 288 132 b 386 224 332 157 365 188 b 418 340 408 261 418 300 l 418 342 b 385 458 418 383 407 422 b 288 551 363 496 331 526 b 286 555 287 552 286 553 b 286 557 286 555 286 557 l 288 559 b 427 596 334 584 380 596 b 471 593 442 596 457 595 b 628 494 533 582 585 549 b 629 490 629 493 629 492 b 624 486 629 488 627 487 b 579 469 608 484 594 477 b 543 439 565 460 553 450 b 538 437 541 437 540 437 b 535 438 538 437 536 437 b 479 479 515 458 496 471 b 425 490 461 486 444 490 b 399 488 417 490 408 490 b 439 398 418 460 431 431 b 559 345 486 397 526 378 b 561 342 560 344 561 342 b 559 338 561 340 560 339 b 439 285 526 304 486 286 b 399 195 431 252 418 222 b 422 193 407 193 415 193 b 536 245 467 193 505 210 b 540 247 537 246 538 247 l 541 247 b 545 245 543 246 544 245 b 625 196 569 218 595 202 z m 228 176 b 167 342 187 227 167 282 b 229 507 167 401 187 456 b 232 509 229 509 231 509 b 234 509 233 509 233 509 b 337 433 281 494 316 469 b 363 344 354 406 363 376 l 363 342 b 336 250 362 309 353 279 b 233 174 315 214 280 189 l 232 174 b 228 176 231 174 229 174 z m 461 -57 b 449 -73 460 -68 456 -73 b 437 -57 441 -73 437 -67 b 449 -42 438 -47 442 -42 b 461 -57 457 -42 461 -47 z m 129 679 b 85 661 112 679 98 673 b 68 618 74 650 68 635 l 68 64 b 85 20 68 47 74 32 b 129 3 98 9 112 3 l 684 3 b 726 20 701 3 715 9 b 745 64 739 32 745 47 l 745 618 b 726 661 745 635 739 650 b 684 679 715 673 701 679 z m 595 -34 l 595 -81 l 604 -81 l 604 -50 l 604 -50 l 616 -81 l 623 -81 l 635 -50 l 635 -81 l 646 -81 l 646 -34 l 633 -34 l 620 -66 l 619 -66 l 607 -34 z m 180 814 l 193 814 l 193 834 l 204 834 b 220 840 211 834 216 836 b 227 854 224 844 227 848 b 204 876 226 869 218 876 l 180 876 z m 235 814 l 277 814 l 277 825 l 248 825 l 248 840 l 275 840 l 275 850 l 248 850 l 248 865 l 277 865 l 277 876 l 235 876 z m 288 814 l 300 814 l 300 836 l 310 836 l 321 814 l 336 814 l 323 838 b 334 856 330 841 334 847 b 312 876 333 869 326 876 l 288 876 z m 377 858 l 390 858 b 367 877 388 870 380 877 b 350 871 360 877 354 875 b 343 858 345 868 343 863 b 360 841 343 849 349 843 l 367 840 b 378 831 374 838 377 835 b 366 824 377 826 373 824 b 354 833 359 824 355 827 l 341 833 b 349 818 342 826 344 821 b 367 813 353 814 359 813 b 391 831 382 813 389 819 b 372 850 390 842 384 848 l 366 851 b 357 859 360 852 357 854 b 367 866 357 863 360 866 b 377 858 373 866 376 863 z m 456 845 b 448 868 456 854 454 863 b 427 877 443 873 435 877 b 406 868 419 877 412 873 b 398 845 401 863 398 854 b 406 821 398 835 401 827 b 427 813 412 816 419 813 b 448 821 435 813 443 816 b 456 845 454 827 456 835 z m 518 876 l 505 876 l 505 837 l 505 837 l 478 876 l 466 876 l 466 814 l 479 814 l 479 852 l 507 814 l 518 814 z m 540 814 l 545 827 l 566 827 l 571 814 l 585 814 l 564 876 l 547 876 l 526 814 z m 593 814 l 633 814 l 633 825 l 606 825 l 606 876 l 593 876 z m 237 791 l 237 751 b 225 739 237 743 233 739 b 212 751 216 741 212 744 l 212 791 l 199 791 l 199 750 b 206 734 199 743 201 738 b 225 728 211 730 217 728 b 243 734 233 728 239 730 b 251 750 248 738 251 743 l 251 791 z m 295 772 l 308 772 b 285 791 307 785 298 791 b 268 787 278 791 273 790 b 261 772 264 783 262 779 b 278 755 262 764 267 758 l 285 754 b 296 746 292 753 296 750 b 284 739 295 741 291 739 b 273 748 277 739 274 742 l 260 748 b 267 733 260 741 262 736 b 285 728 271 730 277 728 b 309 746 300 728 308 734 b 290 764 308 756 302 762 l 284 766 b 275 773 278 767 275 769 b 285 781 275 778 278 781 b 295 772 291 781 294 778 z m 318 728 l 359 728 l 359 739 l 331 739 l 331 754 l 357 754 l 357 765 l 331 765 l 331 780 l 359 780 l 359 791 l 318 791 z m 447 760 b 438 783 447 770 444 778 b 418 791 433 789 426 791 b 397 783 410 791 403 789 b 389 760 391 778 389 770 b 397 736 389 749 391 742 b 418 728 403 730 410 728 b 438 736 426 728 433 730 b 447 760 444 742 447 749 z m 509 791 l 496 791 l 496 751 l 495 751 l 468 791 l 456 791 l 456 728 l 469 728 l 469 768 l 470 768 l 497 728 l 509 728 z m 519 728 l 559 728 l 559 739 l 532 739 l 532 791 l 519 791 z m 556 791 l 579 751 l 579 728 l 592 728 l 592 751 l 614 791 l 600 791 l 586 764 l 585 764 l 571 791 z m 167 -81 l 199 -81 l 199 -73 l 177 -73 l 177 -61 l 197 -61 l 197 -53 l 177 -53 l 177 -42 l 199 -42 l 199 -34 l 167 -34 z m 246 -34 l 236 -34 l 236 -63 l 235 -63 l 215 -34 l 207 -34 l 207 -81 l 216 -81 l 216 -51 l 217 -51 l 237 -81 l 246 -81 z m 263 -34 l 252 -34 l 267 -57 l 252 -81 l 263 -81 l 273 -64 l 283 -81 l 294 -81 l 279 -57 l 294 -34 l 283 -34 l 273 -50 z m 298 -34 l 315 -64 l 315 -81 l 325 -81 l 325 -64 l 342 -34 l 331 -34 l 320 -54 l 309 -34 z m 386 -50 b 380 -37 385 -45 383 -41 b 366 -33 376 -35 371 -33 b 350 -39 359 -33 354 -35 b 344 -57 346 -43 344 -50 b 350 -75 344 -65 346 -71 b 366 -81 354 -79 359 -81 b 380 -77 372 -81 376 -80 b 386 -64 383 -73 385 -69 l 376 -64 b 366 -73 374 -70 371 -73 b 353 -57 357 -73 353 -67 b 366 -42 355 -47 359 -42 b 376 -50 371 -42 374 -45 z m 393 -81 l 423 -81 l 423 -73 l 404 -73 l 404 -34 l 393 -34 z m 471 -57 b 465 -39 471 -50 469 -43 b 449 -33 460 -35 456 -33 b 433 -39 443 -33 437 -35 b 427 -57 429 -43 427 -50 b 433 -75 427 -65 429 -71 b 449 -81 437 -79 443 -81 b 465 -75 456 -81 460 -79 b 471 -57 469 -71 471 -65 z m 481 -81 b 487 -76 484 -81 486 -79 b 481 -71 486 -73 484 -71 b 475 -76 478 -71 476 -73 b 481 -81 476 -79 478 -81 z m 536 -50 b 530 -37 536 -45 534 -41 b 516 -33 526 -35 522 -33 b 500 -39 510 -33 505 -35 b 494 -57 496 -43 494 -50 b 500 -75 494 -65 496 -71 b 516 -81 505 -79 510 -81 b 530 -77 522 -81 527 -80 b 536 -64 534 -73 536 -69 l 526 -64 b 516 -73 525 -70 522 -73 b 505 -57 508 -73 505 -67 b 516 -42 505 -47 509 -42 b 526 -50 522 -42 525 -45 z m 587 -57 b 581 -39 587 -50 585 -43 b 565 -33 576 -35 571 -33 b 549 -39 559 -33 553 -35 b 543 -57 545 -43 543 -50 b 549 -75 543 -65 545 -71 b 565 -81 553 -79 559 -81 b 581 -75 571 -81 576 -79 b 587 -57 585 -71 587 -65 z "},"5":{"ha":812,"x_min":0,"x_max":0,"o":"m 539 469 b 589 501 554 483 570 494 b 492 563 555 536 522 557 b 422 572 460 569 437 572 b 332 554 392 572 361 566 b 381 510 350 541 367 526 b 424 514 396 513 410 514 b 539 469 466 514 505 499 z m 306 249 b 338 342 328 277 338 308 b 306 433 338 375 328 406 b 279 382 292 416 283 398 b 274 341 276 366 274 352 b 278 309 274 330 275 319 b 306 249 283 288 292 267 z m 443 373 b 445 341 444 363 445 352 b 443 309 445 331 444 320 b 527 341 474 311 502 322 b 443 373 502 361 474 371 z m 289 231 b 256 292 271 252 260 273 b 250 341 252 312 250 328 b 254 380 250 354 251 368 b 289 452 260 406 271 430 b 239 481 274 465 258 475 b 192 342 208 439 192 392 b 239 201 192 291 208 244 b 266 214 248 204 257 209 b 289 231 274 219 281 224 z m 589 181 b 539 213 570 189 554 199 b 424 168 505 183 466 168 b 381 173 410 168 396 170 b 356 147 374 163 365 155 b 332 129 348 140 340 134 b 422 111 361 117 392 111 b 469 115 437 111 453 112 b 589 181 515 125 555 146 z m 577 -57 b 565 -73 576 -68 572 -73 b 553 -57 557 -73 553 -67 b 565 -42 554 -47 558 -42 b 577 -57 573 -42 577 -47 z m 193 844 l 193 865 l 202 865 b 213 854 210 864 213 861 b 202 844 213 848 210 844 z m 300 846 l 300 865 l 309 865 b 321 856 317 865 321 861 b 309 846 321 849 317 846 z m 443 845 b 427 825 442 831 437 825 b 412 845 417 825 412 831 b 427 865 412 858 418 865 b 443 845 438 865 443 858 z m 548 838 l 555 862 l 564 838 z m 433 760 b 418 739 433 746 427 739 b 401 760 407 739 401 746 b 418 780 403 773 408 780 b 433 760 429 779 433 772 z m 625 196 b 628 191 627 195 628 193 l 628 189 b 627 188 628 189 627 188 b 508 98 587 137 547 107 b 422 85 469 90 440 85 b 300 117 380 85 340 96 l 288 123 b 286 127 287 124 286 126 b 286 130 286 128 286 129 l 288 132 b 386 224 332 157 365 188 b 418 340 408 261 418 300 l 418 342 b 385 458 418 383 407 422 b 288 551 363 496 331 526 b 286 555 287 552 286 553 b 286 557 286 555 286 557 l 288 559 b 427 596 334 584 380 596 b 471 593 442 596 457 595 b 628 494 533 582 585 549 b 629 490 629 493 629 492 b 624 486 629 488 627 487 b 579 469 608 484 594 477 b 543 439 565 460 553 450 b 538 437 541 437 540 437 b 535 438 538 437 536 437 b 479 479 515 458 496 471 b 425 490 461 486 444 490 b 399 488 417 490 408 490 b 439 398 418 460 431 431 b 559 345 486 397 526 378 b 561 342 560 344 561 342 b 559 338 561 340 560 339 b 439 285 526 304 486 286 b 399 195 431 252 418 222 b 422 193 407 193 415 193 b 536 245 467 193 505 210 b 540 247 537 246 538 247 l 541 247 b 545 245 543 246 544 245 b 625 196 569 218 595 202 z m 228 176 b 167 342 187 227 167 282 b 229 507 167 401 187 456 b 232 509 229 509 231 509 b 234 509 233 509 233 509 b 337 433 281 494 316 469 b 363 344 354 406 363 376 l 363 342 b 336 250 362 309 353 279 b 233 174 315 214 280 189 l 232 174 b 228 176 231 174 229 174 z m 461 -57 b 449 -73 460 -68 456 -73 b 437 -57 441 -73 437 -67 b 449 -42 438 -47 442 -42 b 461 -57 457 -42 461 -47 z m 129 679 b 85 661 112 679 98 673 b 68 618 74 650 68 635 l 68 64 b 85 20 68 47 74 32 b 129 3 98 9 112 3 l 684 3 b 726 20 701 3 715 9 b 745 64 739 32 745 47 l 745 618 b 726 661 745 635 739 650 b 684 679 715 673 701 679 z m 595 -34 l 595 -81 l 604 -81 l 604 -50 l 604 -50 l 616 -81 l 623 -81 l 635 -50 l 635 -81 l 646 -81 l 646 -34 l 633 -34 l 620 -66 l 619 -66 l 607 -34 z m 180 814 l 193 814 l 193 834 l 204 834 b 220 840 211 834 216 836 b 227 854 224 844 227 848 b 204 876 226 869 218 876 l 180 876 z m 235 814 l 277 814 l 277 825 l 248 825 l 248 840 l 275 840 l 275 850 l 248 850 l 248 865 l 277 865 l 277 876 l 235 876 z m 288 814 l 300 814 l 300 836 l 310 836 l 321 814 l 336 814 l 323 838 b 334 856 330 841 334 847 b 312 876 333 869 326 876 l 288 876 z m 377 858 l 390 858 b 367 877 388 870 380 877 b 350 871 360 877 354 875 b 343 858 345 868 343 863 b 360 841 343 849 349 843 l 367 840 b 378 831 374 838 377 835 b 366 824 377 826 373 824 b 354 833 359 824 355 827 l 341 833 b 349 818 342 826 344 821 b 367 813 353 814 359 813 b 391 831 382 813 389 819 b 372 850 390 842 384 848 l 366 851 b 357 859 360 852 357 854 b 367 866 357 863 360 866 b 377 858 373 866 376 863 z m 456 845 b 448 868 456 854 454 863 b 427 877 443 873 435 877 b 406 868 419 877 412 873 b 398 845 401 863 398 854 b 406 821 398 835 401 827 b 427 813 412 816 419 813 b 448 821 435 813 443 816 b 456 845 454 827 456 835 z m 518 876 l 505 876 l 505 837 l 505 837 l 478 876 l 466 876 l 466 814 l 479 814 l 479 852 l 507 814 l 518 814 z m 540 814 l 545 827 l 566 827 l 571 814 l 585 814 l 564 876 l 547 876 l 526 814 z m 593 814 l 633 814 l 633 825 l 606 825 l 606 876 l 593 876 z m 237 791 l 237 751 b 225 739 237 743 233 739 b 212 751 216 741 212 744 l 212 791 l 199 791 l 199 750 b 206 734 199 743 201 738 b 225 728 211 730 217 728 b 243 734 233 728 239 730 b 251 750 248 738 251 743 l 251 791 z m 295 772 l 308 772 b 285 791 307 785 298 791 b 268 787 278 791 273 790 b 261 772 264 783 262 779 b 278 755 262 764 267 758 l 285 754 b 296 746 292 753 296 750 b 284 739 295 741 291 739 b 273 748 277 739 274 742 l 260 748 b 267 733 260 741 262 736 b 285 728 271 730 277 728 b 309 746 300 728 308 734 b 290 764 308 756 302 762 l 284 766 b 275 773 278 767 275 769 b 285 781 275 778 278 781 b 295 772 291 781 294 778 z m 318 728 l 359 728 l 359 739 l 331 739 l 331 754 l 357 754 l 357 765 l 331 765 l 331 780 l 359 780 l 359 791 l 318 791 z m 447 760 b 438 783 447 770 444 778 b 418 791 433 789 426 791 b 397 783 410 791 403 789 b 389 760 391 778 389 770 b 397 736 389 749 391 742 b 418 728 403 730 410 728 b 438 736 426 728 433 730 b 447 760 444 742 447 749 z m 509 791 l 496 791 l 496 751 l 495 751 l 468 791 l 456 791 l 456 728 l 469 728 l 469 768 l 470 768 l 497 728 l 509 728 z m 519 728 l 559 728 l 559 739 l 532 739 l 532 791 l 519 791 z m 556 791 l 579 751 l 579 728 l 592 728 l 592 751 l 614 791 l 600 791 l 586 764 l 585 764 l 571 791 z m 167 -81 l 199 -81 l 199 -73 l 177 -73 l 177 -61 l 197 -61 l 197 -53 l 177 -53 l 177 -42 l 199 -42 l 199 -34 l 167 -34 z m 246 -34 l 236 -34 l 236 -63 l 235 -63 l 215 -34 l 207 -34 l 207 -81 l 216 -81 l 216 -51 l 217 -51 l 237 -81 l 246 -81 z m 263 -34 l 252 -34 l 267 -57 l 252 -81 l 263 -81 l 273 -64 l 283 -81 l 294 -81 l 279 -57 l 294 -34 l 283 -34 l 273 -50 z m 298 -34 l 315 -64 l 315 -81 l 325 -81 l 325 -64 l 342 -34 l 331 -34 l 320 -54 l 309 -34 z m 386 -50 b 380 -37 385 -45 383 -41 b 366 -33 376 -35 371 -33 b 350 -39 359 -33 354 -35 b 344 -57 346 -43 344 -50 b 350 -75 344 -65 346 -71 b 366 -81 354 -79 359 -81 b 380 -77 372 -81 376 -80 b 386 -64 383 -73 385 -69 l 376 -64 b 366 -73 374 -70 371 -73 b 353 -57 357 -73 353 -67 b 366 -42 355 -47 359 -42 b 376 -50 371 -42 374 -45 z m 393 -81 l 423 -81 l 423 -73 l 404 -73 l 404 -34 l 393 -34 z m 471 -57 b 465 -39 471 -50 469 -43 b 449 -33 460 -35 456 -33 b 433 -39 443 -33 437 -35 b 427 -57 429 -43 427 -50 b 433 -75 427 -65 429 -71 b 449 -81 437 -79 443 -81 b 465 -75 456 -81 460 -79 b 471 -57 469 -71 471 -65 z m 481 -81 b 487 -76 484 -81 486 -79 b 481 -71 486 -73 484 -71 b 475 -76 478 -71 476 -73 b 481 -81 476 -79 478 -81 z m 536 -50 b 530 -37 536 -45 534 -41 b 516 -33 526 -35 522 -33 b 500 -39 510 -33 505 -35 b 494 -57 496 -43 494 -50 b 500 -75 494 -65 496 -71 b 516 -81 505 -79 510 -81 b 530 -77 522 -81 527 -80 b 536 -64 534 -73 536 -69 l 526 -64 b 516 -73 525 -70 522 -73 b 505 -57 508 -73 505 -67 b 516 -42 505 -47 509 -42 b 526 -50 522 -42 525 -45 z m 587 -57 b 581 -39 587 -50 585 -43 b 565 -33 576 -35 571 -33 b 549 -39 559 -33 553 -35 b 543 -57 545 -43 543 -50 b 549 -75 543 -65 545 -71 b 565 -81 553 -79 559 -81 b 581 -75 571 -81 576 -79 b 587 -57 585 -71 587 -65 z "},"6":{"ha":812,"x_min":0,"x_max":0,"o":"m 539 469 b 589 501 554 483 570 494 b 492 563 555 536 522 557 b 422 572 460 569 437 572 b 332 554 392 572 361 566 b 381 510 350 541 367 526 b 424 514 396 513 410 514 b 539 469 466 514 505 499 z m 306 249 b 338 342 328 277 338 308 b 306 433 338 375 328 406 b 279 382 292 416 283 398 b 274 341 276 366 274 352 b 278 309 274 330 275 319 b 306 249 283 288 292 267 z m 443 373 b 445 341 444 363 445 352 b 443 309 445 331 444 320 b 527 341 474 311 502 322 b 443 373 502 361 474 371 z m 289 231 b 256 292 271 252 260 273 b 250 341 252 312 250 328 b 254 380 250 354 251 368 b 289 452 260 406 271 430 b 239 481 274 465 258 475 b 192 342 208 439 192 392 b 239 201 192 291 208 244 b 266 214 248 204 257 209 b 289 231 274 219 281 224 z m 589 181 b 539 213 570 189 554 199 b 424 168 505 183 466 168 b 381 173 410 168 396 170 b 356 147 374 163 365 155 b 332 129 348 140 340 134 b 422 111 361 117 392 111 b 469 115 437 111 453 112 b 589 181 515 125 555 146 z m 577 -57 b 565 -73 576 -68 572 -73 b 553 -57 557 -73 553 -67 b 565 -42 554 -47 558 -42 b 577 -57 573 -42 577 -47 z m 193 844 l 193 865 l 202 865 b 213 854 210 864 213 861 b 202 844 213 848 210 844 z m 300 846 l 300 865 l 309 865 b 321 856 317 865 321 861 b 309 846 321 849 317 846 z m 443 845 b 427 825 442 831 437 825 b 412 845 417 825 412 831 b 427 865 412 858 418 865 b 443 845 438 865 443 858 z m 548 838 l 555 862 l 564 838 z m 433 760 b 418 739 433 746 427 739 b 401 760 407 739 401 746 b 418 780 403 773 408 780 b 433 760 429 779 433 772 z m 625 196 b 628 191 627 195 628 193 l 628 189 b 627 188 628 189 627 188 b 508 98 587 137 547 107 b 422 85 469 90 440 85 b 300 117 380 85 340 96 l 288 123 b 286 127 287 124 286 126 b 286 130 286 128 286 129 l 288 132 b 386 224 332 157 365 188 b 418 340 408 261 418 300 l 418 342 b 385 458 418 383 407 422 b 288 551 363 496 331 526 b 286 555 287 552 286 553 b 286 557 286 555 286 557 l 288 559 b 427 596 334 584 380 596 b 471 593 442 596 457 595 b 628 494 533 582 585 549 b 629 490 629 493 629 492 b 624 486 629 488 627 487 b 579 469 608 484 594 477 b 543 439 565 460 553 450 b 538 437 541 437 540 437 b 535 438 538 437 536 437 b 479 479 515 458 496 471 b 425 490 461 486 444 490 b 399 488 417 490 408 490 b 439 398 418 460 431 431 b 559 345 486 397 526 378 b 561 342 560 344 561 342 b 559 338 561 340 560 339 b 439 285 526 304 486 286 b 399 195 431 252 418 222 b 422 193 407 193 415 193 b 536 245 467 193 505 210 b 540 247 537 246 538 247 l 541 247 b 545 245 543 246 544 245 b 625 196 569 218 595 202 z m 228 176 b 167 342 187 227 167 282 b 229 507 167 401 187 456 b 232 509 229 509 231 509 b 234 509 233 509 233 509 b 337 433 281 494 316 469 b 363 344 354 406 363 376 l 363 342 b 336 250 362 309 353 279 b 233 174 315 214 280 189 l 232 174 b 228 176 231 174 229 174 z m 461 -57 b 449 -73 460 -68 456 -73 b 437 -57 441 -73 437 -67 b 449 -42 438 -47 442 -42 b 461 -57 457 -42 461 -47 z m 129 679 b 85 661 112 679 98 673 b 68 618 74 650 68 635 l 68 64 b 85 20 68 47 74 32 b 129 3 98 9 112 3 l 684 3 b 726 20 701 3 715 9 b 745 64 739 32 745 47 l 745 618 b 726 661 745 635 739 650 b 684 679 715 673 701 679 z m 595 -34 l 595 -81 l 604 -81 l 604 -50 l 604 -50 l 616 -81 l 623 -81 l 635 -50 l 635 -81 l 646 -81 l 646 -34 l 633 -34 l 620 -66 l 619 -66 l 607 -34 z m 180 814 l 193 814 l 193 834 l 204 834 b 220 840 211 834 216 836 b 227 854 224 844 227 848 b 204 876 226 869 218 876 l 180 876 z m 235 814 l 277 814 l 277 825 l 248 825 l 248 840 l 275 840 l 275 850 l 248 850 l 248 865 l 277 865 l 277 876 l 235 876 z m 288 814 l 300 814 l 300 836 l 310 836 l 321 814 l 336 814 l 323 838 b 334 856 330 841 334 847 b 312 876 333 869 326 876 l 288 876 z m 377 858 l 390 858 b 367 877 388 870 380 877 b 350 871 360 877 354 875 b 343 858 345 868 343 863 b 360 841 343 849 349 843 l 367 840 b 378 831 374 838 377 835 b 366 824 377 826 373 824 b 354 833 359 824 355 827 l 341 833 b 349 818 342 826 344 821 b 367 813 353 814 359 813 b 391 831 382 813 389 819 b 372 850 390 842 384 848 l 366 851 b 357 859 360 852 357 854 b 367 866 357 863 360 866 b 377 858 373 866 376 863 z m 456 845 b 448 868 456 854 454 863 b 427 877 443 873 435 877 b 406 868 419 877 412 873 b 398 845 401 863 398 854 b 406 821 398 835 401 827 b 427 813 412 816 419 813 b 448 821 435 813 443 816 b 456 845 454 827 456 835 z m 518 876 l 505 876 l 505 837 l 505 837 l 478 876 l 466 876 l 466 814 l 479 814 l 479 852 l 507 814 l 518 814 z m 540 814 l 545 827 l 566 827 l 571 814 l 585 814 l 564 876 l 547 876 l 526 814 z m 593 814 l 633 814 l 633 825 l 606 825 l 606 876 l 593 876 z m 237 791 l 237 751 b 225 739 237 743 233 739 b 212 751 216 741 212 744 l 212 791 l 199 791 l 199 750 b 206 734 199 743 201 738 b 225 728 211 730 217 728 b 243 734 233 728 239 730 b 251 750 248 738 251 743 l 251 791 z m 295 772 l 308 772 b 285 791 307 785 298 791 b 268 787 278 791 273 790 b 261 772 264 783 262 779 b 278 755 262 764 267 758 l 285 754 b 296 746 292 753 296 750 b 284 739 295 741 291 739 b 273 748 277 739 274 742 l 260 748 b 267 733 260 741 262 736 b 285 728 271 730 277 728 b 309 746 300 728 308 734 b 290 764 308 756 302 762 l 284 766 b 275 773 278 767 275 769 b 285 781 275 778 278 781 b 295 772 291 781 294 778 z m 318 728 l 359 728 l 359 739 l 331 739 l 331 754 l 357 754 l 357 765 l 331 765 l 331 780 l 359 780 l 359 791 l 318 791 z m 447 760 b 438 783 447 770 444 778 b 418 791 433 789 426 791 b 397 783 410 791 403 789 b 389 760 391 778 389 770 b 397 736 389 749 391 742 b 418 728 403 730 410 728 b 438 736 426 728 433 730 b 447 760 444 742 447 749 z m 509 791 l 496 791 l 496 751 l 495 751 l 468 791 l 456 791 l 456 728 l 469 728 l 469 768 l 470 768 l 497 728 l 509 728 z m 519 728 l 559 728 l 559 739 l 532 739 l 532 791 l 519 791 z m 556 791 l 579 751 l 579 728 l 592 728 l 592 751 l 614 791 l 600 791 l 586 764 l 585 764 l 571 791 z m 167 -81 l 199 -81 l 199 -73 l 177 -73 l 177 -61 l 197 -61 l 197 -53 l 177 -53 l 177 -42 l 199 -42 l 199 -34 l 167 -34 z m 246 -34 l 236 -34 l 236 -63 l 235 -63 l 215 -34 l 207 -34 l 207 -81 l 216 -81 l 216 -51 l 217 -51 l 237 -81 l 246 -81 z m 263 -34 l 252 -34 l 267 -57 l 252 -81 l 263 -81 l 273 -64 l 283 -81 l 294 -81 l 279 -57 l 294 -34 l 283 -34 l 273 -50 z m 298 -34 l 315 -64 l 315 -81 l 325 -81 l 325 -64 l 342 -34 l 331 -34 l 320 -54 l 309 -34 z m 386 -50 b 380 -37 385 -45 383 -41 b 366 -33 376 -35 371 -33 b 350 -39 359 -33 354 -35 b 344 -57 346 -43 344 -50 b 350 -75 344 -65 346 -71 b 366 -81 354 -79 359 -81 b 380 -77 372 -81 376 -80 b 386 -64 383 -73 385 -69 l 376 -64 b 366 -73 374 -70 371 -73 b 353 -57 357 -73 353 -67 b 366 -42 355 -47 359 -42 b 376 -50 371 -42 374 -45 z m 393 -81 l 423 -81 l 423 -73 l 404 -73 l 404 -34 l 393 -34 z m 471 -57 b 465 -39 471 -50 469 -43 b 449 -33 460 -35 456 -33 b 433 -39 443 -33 437 -35 b 427 -57 429 -43 427 -50 b 433 -75 427 -65 429 -71 b 449 -81 437 -79 443 -81 b 465 -75 456 -81 460 -79 b 471 -57 469 -71 471 -65 z m 481 -81 b 487 -76 484 -81 486 -79 b 481 -71 486 -73 484 -71 b 475 -76 478 -71 476 -73 b 481 -81 476 -79 478 -81 z m 536 -50 b 530 -37 536 -45 534 -41 b 516 -33 526 -35 522 -33 b 500 -39 510 -33 505 -35 b 494 -57 496 -43 494 -50 b 500 -75 494 -65 496 -71 b 516 -81 505 -79 510 -81 b 530 -77 522 -81 527 -80 b 536 -64 534 -73 536 -69 l 526 -64 b 516 -73 525 -70 522 -73 b 505 -57 508 -73 505 -67 b 516 -42 505 -47 509 -42 b 526 -50 522 -42 525 -45 z m 587 -57 b 581 -39 587 -50 585 -43 b 565 -33 576 -35 571 -33 b 549 -39 559 -33 553 -35 b 543 -57 545 -43 543 -50 b 549 -75 543 -65 545 -71 b 565 -81 553 -79 559 -81 b 581 -75 571 -81 576 -79 b 587 -57 585 -71 587 -65 z "},"7":{"ha":812,"x_min":0,"x_max":0,"o":"m 539 469 b 589 501 554 483 570 494 b 492 563 555 536 522 557 b 422 572 460 569 437 572 b 332 554 392 572 361 566 b 381 510 350 541 367 526 b 424 514 396 513 410 514 b 539 469 466 514 505 499 z m 306 249 b 338 342 328 277 338 308 b 306 433 338 375 328 406 b 279 382 292 416 283 398 b 274 341 276 366 274 352 b 278 309 274 330 275 319 b 306 249 283 288 292 267 z m 443 373 b 445 341 444 363 445 352 b 443 309 445 331 444 320 b 527 341 474 311 502 322 b 443 373 502 361 474 371 z m 289 231 b 256 292 271 252 260 273 b 250 341 252 312 250 328 b 254 380 250 354 251 368 b 289 452 260 406 271 430 b 239 481 274 465 258 475 b 192 342 208 439 192 392 b 239 201 192 291 208 244 b 266 214 248 204 257 209 b 289 231 274 219 281 224 z m 589 181 b 539 213 570 189 554 199 b 424 168 505 183 466 168 b 381 173 410 168 396 170 b 356 147 374 163 365 155 b 332 129 348 140 340 134 b 422 111 361 117 392 111 b 469 115 437 111 453 112 b 589 181 515 125 555 146 z m 577 -57 b 565 -73 576 -68 572 -73 b 553 -57 557 -73 553 -67 b 565 -42 554 -47 558 -42 b 577 -57 573 -42 577 -47 z m 193 844 l 193 865 l 202 865 b 213 854 210 864 213 861 b 202 844 213 848 210 844 z m 300 846 l 300 865 l 309 865 b 321 856 317 865 321 861 b 309 846 321 849 317 846 z m 443 845 b 427 825 442 831 437 825 b 412 845 417 825 412 831 b 427 865 412 858 418 865 b 443 845 438 865 443 858 z m 548 838 l 555 862 l 564 838 z m 433 760 b 418 739 433 746 427 739 b 401 760 407 739 401 746 b 418 780 403 773 408 780 b 433 760 429 779 433 772 z m 625 196 b 628 191 627 195 628 193 l 628 189 b 627 188 628 189 627 188 b 508 98 587 137 547 107 b 422 85 469 90 440 85 b 300 117 380 85 340 96 l 288 123 b 286 127 287 124 286 126 b 286 130 286 128 286 129 l 288 132 b 386 224 332 157 365 188 b 418 340 408 261 418 300 l 418 342 b 385 458 418 383 407 422 b 288 551 363 496 331 526 b 286 555 287 552 286 553 b 286 557 286 555 286 557 l 288 559 b 427 596 334 584 380 596 b 471 593 442 596 457 595 b 628 494 533 582 585 549 b 629 490 629 493 629 492 b 624 486 629 488 627 487 b 579 469 608 484 594 477 b 543 439 565 460 553 450 b 538 437 541 437 540 437 b 535 438 538 437 536 437 b 479 479 515 458 496 471 b 425 490 461 486 444 490 b 399 488 417 490 408 490 b 439 398 418 460 431 431 b 559 345 486 397 526 378 b 561 342 560 344 561 342 b 559 338 561 340 560 339 b 439 285 526 304 486 286 b 399 195 431 252 418 222 b 422 193 407 193 415 193 b 536 245 467 193 505 210 b 540 247 537 246 538 247 l 541 247 b 545 245 543 246 544 245 b 625 196 569 218 595 202 z m 228 176 b 167 342 187 227 167 282 b 229 507 167 401 187 456 b 232 509 229 509 231 509 b 234 509 233 509 233 509 b 337 433 281 494 316 469 b 363 344 354 406 363 376 l 363 342 b 336 250 362 309 353 279 b 233 174 315 214 280 189 l 232 174 b 228 176 231 174 229 174 z m 461 -57 b 449 -73 460 -68 456 -73 b 437 -57 441 -73 437 -67 b 449 -42 438 -47 442 -42 b 461 -57 457 -42 461 -47 z m 129 679 b 85 661 112 679 98 673 b 68 618 74 650 68 635 l 68 64 b 85 20 68 47 74 32 b 129 3 98 9 112 3 l 684 3 b 726 20 701 3 715 9 b 745 64 739 32 745 47 l 745 618 b 726 661 745 635 739 650 b 684 679 715 673 701 679 z m 595 -34 l 595 -81 l 604 -81 l 604 -50 l 604 -50 l 616 -81 l 623 -81 l 635 -50 l 635 -81 l 646 -81 l 646 -34 l 633 -34 l 620 -66 l 619 -66 l 607 -34 z m 180 814 l 193 814 l 193 834 l 204 834 b 220 840 211 834 216 836 b 227 854 224 844 227 848 b 204 876 226 869 218 876 l 180 876 z m 235 814 l 277 814 l 277 825 l 248 825 l 248 840 l 275 840 l 275 850 l 248 850 l 248 865 l 277 865 l 277 876 l 235 876 z m 288 814 l 300 814 l 300 836 l 310 836 l 321 814 l 336 814 l 323 838 b 334 856 330 841 334 847 b 312 876 333 869 326 876 l 288 876 z m 377 858 l 390 858 b 367 877 388 870 380 877 b 350 871 360 877 354 875 b 343 858 345 868 343 863 b 360 841 343 849 349 843 l 367 840 b 378 831 374 838 377 835 b 366 824 377 826 373 824 b 354 833 359 824 355 827 l 341 833 b 349 818 342 826 344 821 b 367 813 353 814 359 813 b 391 831 382 813 389 819 b 372 850 390 842 384 848 l 366 851 b 357 859 360 852 357 854 b 367 866 357 863 360 866 b 377 858 373 866 376 863 z m 456 845 b 448 868 456 854 454 863 b 427 877 443 873 435 877 b 406 868 419 877 412 873 b 398 845 401 863 398 854 b 406 821 398 835 401 827 b 427 813 412 816 419 813 b 448 821 435 813 443 816 b 456 845 454 827 456 835 z m 518 876 l 505 876 l 505 837 l 505 837 l 478 876 l 466 876 l 466 814 l 479 814 l 479 852 l 507 814 l 518 814 z m 540 814 l 545 827 l 566 827 l 571 814 l 585 814 l 564 876 l 547 876 l 526 814 z m 593 814 l 633 814 l 633 825 l 606 825 l 606 876 l 593 876 z m 237 791 l 237 751 b 225 739 237 743 233 739 b 212 751 216 741 212 744 l 212 791 l 199 791 l 199 750 b 206 734 199 743 201 738 b 225 728 211 730 217 728 b 243 734 233 728 239 730 b 251 750 248 738 251 743 l 251 791 z m 295 772 l 308 772 b 285 791 307 785 298 791 b 268 787 278 791 273 790 b 261 772 264 783 262 779 b 278 755 262 764 267 758 l 285 754 b 296 746 292 753 296 750 b 284 739 295 741 291 739 b 273 748 277 739 274 742 l 260 748 b 267 733 260 741 262 736 b 285 728 271 730 277 728 b 309 746 300 728 308 734 b 290 764 308 756 302 762 l 284 766 b 275 773 278 767 275 769 b 285 781 275 778 278 781 b 295 772 291 781 294 778 z m 318 728 l 359 728 l 359 739 l 331 739 l 331 754 l 357 754 l 357 765 l 331 765 l 331 780 l 359 780 l 359 791 l 318 791 z m 447 760 b 438 783 447 770 444 778 b 418 791 433 789 426 791 b 397 783 410 791 403 789 b 389 760 391 778 389 770 b 397 736 389 749 391 742 b 418 728 403 730 410 728 b 438 736 426 728 433 730 b 447 760 444 742 447 749 z m 509 791 l 496 791 l 496 751 l 495 751 l 468 791 l 456 791 l 456 728 l 469 728 l 469 768 l 470 768 l 497 728 l 509 728 z m 519 728 l 559 728 l 559 739 l 532 739 l 532 791 l 519 791 z m 556 791 l 579 751 l 579 728 l 592 728 l 592 751 l 614 791 l 600 791 l 586 764 l 585 764 l 571 791 z m 167 -81 l 199 -81 l 199 -73 l 177 -73 l 177 -61 l 197 -61 l 197 -53 l 177 -53 l 177 -42 l 199 -42 l 199 -34 l 167 -34 z m 246 -34 l 236 -34 l 236 -63 l 235 -63 l 215 -34 l 207 -34 l 207 -81 l 216 -81 l 216 -51 l 217 -51 l 237 -81 l 246 -81 z m 263 -34 l 252 -34 l 267 -57 l 252 -81 l 263 -81 l 273 -64 l 283 -81 l 294 -81 l 279 -57 l 294 -34 l 283 -34 l 273 -50 z m 298 -34 l 315 -64 l 315 -81 l 325 -81 l 325 -64 l 342 -34 l 331 -34 l 320 -54 l 309 -34 z m 386 -50 b 380 -37 385 -45 383 -41 b 366 -33 376 -35 371 -33 b 350 -39 359 -33 354 -35 b 344 -57 346 -43 344 -50 b 350 -75 344 -65 346 -71 b 366 -81 354 -79 359 -81 b 380 -77 372 -81 376 -80 b 386 -64 383 -73 385 -69 l 376 -64 b 366 -73 374 -70 371 -73 b 353 -57 357 -73 353 -67 b 366 -42 355 -47 359 -42 b 376 -50 371 -42 374 -45 z m 393 -81 l 423 -81 l 423 -73 l 404 -73 l 404 -34 l 393 -34 z m 471 -57 b 465 -39 471 -50 469 -43 b 449 -33 460 -35 456 -33 b 433 -39 443 -33 437 -35 b 427 -57 429 -43 427 -50 b 433 -75 427 -65 429 -71 b 449 -81 437 -79 443 -81 b 465 -75 456 -81 460 -79 b 471 -57 469 -71 471 -65 z m 481 -81 b 487 -76 484 -81 486 -79 b 481 -71 486 -73 484 -71 b 475 -76 478 -71 476 -73 b 481 -81 476 -79 478 -81 z m 536 -50 b 530 -37 536 -45 534 -41 b 516 -33 526 -35 522 -33 b 500 -39 510 -33 505 -35 b 494 -57 496 -43 494 -50 b 500 -75 494 -65 496 -71 b 516 -81 505 -79 510 -81 b 530 -77 522 -81 527 -80 b 536 -64 534 -73 536 -69 l 526 -64 b 516 -73 525 -70 522 -73 b 505 -57 508 -73 505 -67 b 516 -42 505 -47 509 -42 b 526 -50 522 -42 525 -45 z m 587 -57 b 581 -39 587 -50 585 -43 b 565 -33 576 -35 571 -33 b 549 -39 559 -33 553 -35 b 543 -57 545 -43 543 -50 b 549 -75 543 -65 545 -71 b 565 -81 553 -79 559 -81 b 581 -75 571 -81 576 -79 b 587 -57 585 -71 587 -65 z "},"8":{"ha":812,"x_min":0,"x_max":0,"o":"m 539 469 b 589 501 554 483 570 494 b 492 563 555 536 522 557 b 422 572 460 569 437 572 b 332 554 392 572 361 566 b 381 510 350 541 367 526 b 424 514 396 513 410 514 b 539 469 466 514 505 499 z m 306 249 b 338 342 328 277 338 308 b 306 433 338 375 328 406 b 279 382 292 416 283 398 b 274 341 276 366 274 352 b 278 309 274 330 275 319 b 306 249 283 288 292 267 z m 443 373 b 445 341 444 363 445 352 b 443 309 445 331 444 320 b 527 341 474 311 502 322 b 443 373 502 361 474 371 z m 289 231 b 256 292 271 252 260 273 b 250 341 252 312 250 328 b 254 380 250 354 251 368 b 289 452 260 406 271 430 b 239 481 274 465 258 475 b 192 342 208 439 192 392 b 239 201 192 291 208 244 b 266 214 248 204 257 209 b 289 231 274 219 281 224 z m 589 181 b 539 213 570 189 554 199 b 424 168 505 183 466 168 b 381 173 410 168 396 170 b 356 147 374 163 365 155 b 332 129 348 140 340 134 b 422 111 361 117 392 111 b 469 115 437 111 453 112 b 589 181 515 125 555 146 z m 577 -57 b 565 -73 576 -68 572 -73 b 553 -57 557 -73 553 -67 b 565 -42 554 -47 558 -42 b 577 -57 573 -42 577 -47 z m 193 844 l 193 865 l 202 865 b 213 854 210 864 213 861 b 202 844 213 848 210 844 z m 300 846 l 300 865 l 309 865 b 321 856 317 865 321 861 b 309 846 321 849 317 846 z m 443 845 b 427 825 442 831 437 825 b 412 845 417 825 412 831 b 427 865 412 858 418 865 b 443 845 438 865 443 858 z m 548 838 l 555 862 l 564 838 z m 433 760 b 418 739 433 746 427 739 b 401 760 407 739 401 746 b 418 780 403 773 408 780 b 433 760 429 779 433 772 z m 625 196 b 628 191 627 195 628 193 l 628 189 b 627 188 628 189 627 188 b 508 98 587 137 547 107 b 422 85 469 90 440 85 b 300 117 380 85 340 96 l 288 123 b 286 127 287 124 286 126 b 286 130 286 128 286 129 l 288 132 b 386 224 332 157 365 188 b 418 340 408 261 418 300 l 418 342 b 385 458 418 383 407 422 b 288 551 363 496 331 526 b 286 555 287 552 286 553 b 286 557 286 555 286 557 l 288 559 b 427 596 334 584 380 596 b 471 593 442 596 457 595 b 628 494 533 582 585 549 b 629 490 629 493 629 492 b 624 486 629 488 627 487 b 579 469 608 484 594 477 b 543 439 565 460 553 450 b 538 437 541 437 540 437 b 535 438 538 437 536 437 b 479 479 515 458 496 471 b 425 490 461 486 444 490 b 399 488 417 490 408 490 b 439 398 418 460 431 431 b 559 345 486 397 526 378 b 561 342 560 344 561 342 b 559 338 561 340 560 339 b 439 285 526 304 486 286 b 399 195 431 252 418 222 b 422 193 407 193 415 193 b 536 245 467 193 505 210 b 540 247 537 246 538 247 l 541 247 b 545 245 543 246 544 245 b 625 196 569 218 595 202 z m 228 176 b 167 342 187 227 167 282 b 229 507 167 401 187 456 b 232 509 229 509 231 509 b 234 509 233 509 233 509 b 337 433 281 494 316 469 b 363 344 354 406 363 376 l 363 342 b 336 250 362 309 353 279 b 233 174 315 214 280 189 l 232 174 b 228 176 231 174 229 174 z m 461 -57 b 449 -73 460 -68 456 -73 b 437 -57 441 -73 437 -67 b 449 -42 438 -47 442 -42 b 461 -57 457 -42 461 -47 z m 129 679 b 85 661 112 679 98 673 b 68 618 74 650 68 635 l 68 64 b 85 20 68 47 74 32 b 129 3 98 9 112 3 l 684 3 b 726 20 701 3 715 9 b 745 64 739 32 745 47 l 745 618 b 726 661 745 635 739 650 b 684 679 715 673 701 679 z m 595 -34 l 595 -81 l 604 -81 l 604 -50 l 604 -50 l 616 -81 l 623 -81 l 635 -50 l 635 -81 l 646 -81 l 646 -34 l 633 -34 l 620 -66 l 619 -66 l 607 -34 z m 180 814 l 193 814 l 193 834 l 204 834 b 220 840 211 834 216 836 b 227 854 224 844 227 848 b 204 876 226 869 218 876 l 180 876 z m 235 814 l 277 814 l 277 825 l 248 825 l 248 840 l 275 840 l 275 850 l 248 850 l 248 865 l 277 865 l 277 876 l 235 876 z m 288 814 l 300 814 l 300 836 l 310 836 l 321 814 l 336 814 l 323 838 b 334 856 330 841 334 847 b 312 876 333 869 326 876 l 288 876 z m 377 858 l 390 858 b 367 877 388 870 380 877 b 350 871 360 877 354 875 b 343 858 345 868 343 863 b 360 841 343 849 349 843 l 367 840 b 378 831 374 838 377 835 b 366 824 377 826 373 824 b 354 833 359 824 355 827 l 341 833 b 349 818 342 826 344 821 b 367 813 353 814 359 813 b 391 831 382 813 389 819 b 372 850 390 842 384 848 l 366 851 b 357 859 360 852 357 854 b 367 866 357 863 360 866 b 377 858 373 866 376 863 z m 456 845 b 448 868 456 854 454 863 b 427 877 443 873 435 877 b 406 868 419 877 412 873 b 398 845 401 863 398 854 b 406 821 398 835 401 827 b 427 813 412 816 419 813 b 448 821 435 813 443 816 b 456 845 454 827 456 835 z m 518 876 l 505 876 l 505 837 l 505 837 l 478 876 l 466 876 l 466 814 l 479 814 l 479 852 l 507 814 l 518 814 z m 540 814 l 545 827 l 566 827 l 571 814 l 585 814 l 564 876 l 547 876 l 526 814 z m 593 814 l 633 814 l 633 825 l 606 825 l 606 876 l 593 876 z m 237 791 l 237 751 b 225 739 237 743 233 739 b 212 751 216 741 212 744 l 212 791 l 199 791 l 199 750 b 206 734 199 743 201 738 b 225 728 211 730 217 728 b 243 734 233 728 239 730 b 251 750 248 738 251 743 l 251 791 z m 295 772 l 308 772 b 285 791 307 785 298 791 b 268 787 278 791 273 790 b 261 772 264 783 262 779 b 278 755 262 764 267 758 l 285 754 b 296 746 292 753 296 750 b 284 739 295 741 291 739 b 273 748 277 739 274 742 l 260 748 b 267 733 260 741 262 736 b 285 728 271 730 277 728 b 309 746 300 728 308 734 b 290 764 308 756 302 762 l 284 766 b 275 773 278 767 275 769 b 285 781 275 778 278 781 b 295 772 291 781 294 778 z m 318 728 l 359 728 l 359 739 l 331 739 l 331 754 l 357 754 l 357 765 l 331 765 l 331 780 l 359 780 l 359 791 l 318 791 z m 447 760 b 438 783 447 770 444 778 b 418 791 433 789 426 791 b 397 783 410 791 403 789 b 389 760 391 778 389 770 b 397 736 389 749 391 742 b 418 728 403 730 410 728 b 438 736 426 728 433 730 b 447 760 444 742 447 749 z m 509 791 l 496 791 l 496 751 l 495 751 l 468 791 l 456 791 l 456 728 l 469 728 l 469 768 l 470 768 l 497 728 l 509 728 z m 519 728 l 559 728 l 559 739 l 532 739 l 532 791 l 519 791 z m 556 791 l 579 751 l 579 728 l 592 728 l 592 751 l 614 791 l 600 791 l 586 764 l 585 764 l 571 791 z m 167 -81 l 199 -81 l 199 -73 l 177 -73 l 177 -61 l 197 -61 l 197 -53 l 177 -53 l 177 -42 l 199 -42 l 199 -34 l 167 -34 z m 246 -34 l 236 -34 l 236 -63 l 235 -63 l 215 -34 l 207 -34 l 207 -81 l 216 -81 l 216 -51 l 217 -51 l 237 -81 l 246 -81 z m 263 -34 l 252 -34 l 267 -57 l 252 -81 l 263 -81 l 273 -64 l 283 -81 l 294 -81 l 279 -57 l 294 -34 l 283 -34 l 273 -50 z m 298 -34 l 315 -64 l 315 -81 l 325 -81 l 325 -64 l 342 -34 l 331 -34 l 320 -54 l 309 -34 z m 386 -50 b 380 -37 385 -45 383 -41 b 366 -33 376 -35 371 -33 b 350 -39 359 -33 354 -35 b 344 -57 346 -43 344 -50 b 350 -75 344 -65 346 -71 b 366 -81 354 -79 359 -81 b 380 -77 372 -81 376 -80 b 386 -64 383 -73 385 -69 l 376 -64 b 366 -73 374 -70 371 -73 b 353 -57 357 -73 353 -67 b 366 -42 355 -47 359 -42 b 376 -50 371 -42 374 -45 z m 393 -81 l 423 -81 l 423 -73 l 404 -73 l 404 -34 l 393 -34 z m 471 -57 b 465 -39 471 -50 469 -43 b 449 -33 460 -35 456 -33 b 433 -39 443 -33 437 -35 b 427 -57 429 -43 427 -50 b 433 -75 427 -65 429 -71 b 449 -81 437 -79 443 -81 b 465 -75 456 -81 460 -79 b 471 -57 469 -71 471 -65 z m 481 -81 b 487 -76 484 -81 486 -79 b 481 -71 486 -73 484 -71 b 475 -76 478 -71 476 -73 b 481 -81 476 -79 478 -81 z m 536 -50 b 530 -37 536 -45 534 -41 b 516 -33 526 -35 522 -33 b 500 -39 510 -33 505 -35 b 494 -57 496 -43 494 -50 b 500 -75 494 -65 496 -71 b 516 -81 505 -79 510 -81 b 530 -77 522 -81 527 -80 b 536 -64 534 -73 536 -69 l 526 -64 b 516 -73 525 -70 522 -73 b 505 -57 508 -73 505 -67 b 516 -42 505 -47 509 -42 b 526 -50 522 -42 525 -45 z m 587 -57 b 581 -39 587 -50 585 -43 b 565 -33 576 -35 571 -33 b 549 -39 559 -33 553 -35 b 543 -57 545 -43 543 -50 b 549 -75 543 -65 545 -71 b 565 -81 553 -79 559 -81 b 581 -75 571 -81 576 -79 b 587 -57 585 -71 587 -65 z "},"9":{"ha":812,"x_min":0,"x_max":0,"o":"m 539 469 b 589 501 554 483 570 494 b 492 563 555 536 522 557 b 422 572 460 569 437 572 b 332 554 392 572 361 566 b 381 510 350 541 367 526 b 424 514 396 513 410 514 b 539 469 466 514 505 499 z m 306 249 b 338 342 328 277 338 308 b 306 433 338 375 328 406 b 279 382 292 416 283 398 b 274 341 276 366 274 352 b 278 309 274 330 275 319 b 306 249 283 288 292 267 z m 443 373 b 445 341 444 363 445 352 b 443 309 445 331 444 320 b 527 341 474 311 502 322 b 443 373 502 361 474 371 z m 289 231 b 256 292 271 252 260 273 b 250 341 252 312 250 328 b 254 380 250 354 251 368 b 289 452 260 406 271 430 b 239 481 274 465 258 475 b 192 342 208 439 192 392 b 239 201 192 291 208 244 b 266 214 248 204 257 209 b 289 231 274 219 281 224 z m 589 181 b 539 213 570 189 554 199 b 424 168 505 183 466 168 b 381 173 410 168 396 170 b 356 147 374 163 365 155 b 332 129 348 140 340 134 b 422 111 361 117 392 111 b 469 115 437 111 453 112 b 589 181 515 125 555 146 z m 577 -57 b 565 -73 576 -68 572 -73 b 553 -57 557 -73 553 -67 b 565 -42 554 -47 558 -42 b 577 -57 573 -42 577 -47 z m 193 844 l 193 865 l 202 865 b 213 854 210 864 213 861 b 202 844 213 848 210 844 z m 300 846 l 300 865 l 309 865 b 321 856 317 865 321 861 b 309 846 321 849 317 846 z m 443 845 b 427 825 442 831 437 825 b 412 845 417 825 412 831 b 427 865 412 858 418 865 b 443 845 438 865 443 858 z m 548 838 l 555 862 l 564 838 z m 433 760 b 418 739 433 746 427 739 b 401 760 407 739 401 746 b 418 780 403 773 408 780 b 433 760 429 779 433 772 z m 625 196 b 628 191 627 195 628 193 l 628 189 b 627 188 628 189 627 188 b 508 98 587 137 547 107 b 422 85 469 90 440 85 b 300 117 380 85 340 96 l 288 123 b 286 127 287 124 286 126 b 286 130 286 128 286 129 l 288 132 b 386 224 332 157 365 188 b 418 340 408 261 418 300 l 418 342 b 385 458 418 383 407 422 b 288 551 363 496 331 526 b 286 555 287 552 286 553 b 286 557 286 555 286 557 l 288 559 b 427 596 334 584 380 596 b 471 593 442 596 457 595 b 628 494 533 582 585 549 b 629 490 629 493 629 492 b 624 486 629 488 627 487 b 579 469 608 484 594 477 b 543 439 565 460 553 450 b 538 437 541 437 540 437 b 535 438 538 437 536 437 b 479 479 515 458 496 471 b 425 490 461 486 444 490 b 399 488 417 490 408 490 b 439 398 418 460 431 431 b 559 345 486 397 526 378 b 561 342 560 344 561 342 b 559 338 561 340 560 339 b 439 285 526 304 486 286 b 399 195 431 252 418 222 b 422 193 407 193 415 193 b 536 245 467 193 505 210 b 540 247 537 246 538 247 l 541 247 b 545 245 543 246 544 245 b 625 196 569 218 595 202 z m 228 176 b 167 342 187 227 167 282 b 229 507 167 401 187 456 b 232 509 229 509 231 509 b 234 509 233 509 233 509 b 337 433 281 494 316 469 b 363 344 354 406 363 376 l 363 342 b 336 250 362 309 353 279 b 233 174 315 214 280 189 l 232 174 b 228 176 231 174 229 174 z m 461 -57 b 449 -73 460 -68 456 -73 b 437 -57 441 -73 437 -67 b 449 -42 438 -47 442 -42 b 461 -57 457 -42 461 -47 z m 129 679 b 85 661 112 679 98 673 b 68 618 74 650 68 635 l 68 64 b 85 20 68 47 74 32 b 129 3 98 9 112 3 l 684 3 b 726 20 701 3 715 9 b 745 64 739 32 745 47 l 745 618 b 726 661 745 635 739 650 b 684 679 715 673 701 679 z m 595 -34 l 595 -81 l 604 -81 l 604 -50 l 604 -50 l 616 -81 l 623 -81 l 635 -50 l 635 -81 l 646 -81 l 646 -34 l 633 -34 l 620 -66 l 619 -66 l 607 -34 z m 180 814 l 193 814 l 193 834 l 204 834 b 220 840 211 834 216 836 b 227 854 224 844 227 848 b 204 876 226 869 218 876 l 180 876 z m 235 814 l 277 814 l 277 825 l 248 825 l 248 840 l 275 840 l 275 850 l 248 850 l 248 865 l 277 865 l 277 876 l 235 876 z m 288 814 l 300 814 l 300 836 l 310 836 l 321 814 l 336 814 l 323 838 b 334 856 330 841 334 847 b 312 876 333 869 326 876 l 288 876 z m 377 858 l 390 858 b 367 877 388 870 380 877 b 350 871 360 877 354 875 b 343 858 345 868 343 863 b 360 841 343 849 349 843 l 367 840 b 378 831 374 838 377 835 b 366 824 377 826 373 824 b 354 833 359 824 355 827 l 341 833 b 349 818 342 826 344 821 b 367 813 353 814 359 813 b 391 831 382 813 389 819 b 372 850 390 842 384 848 l 366 851 b 357 859 360 852 357 854 b 367 866 357 863 360 866 b 377 858 373 866 376 863 z m 456 845 b 448 868 456 854 454 863 b 427 877 443 873 435 877 b 406 868 419 877 412 873 b 398 845 401 863 398 854 b 406 821 398 835 401 827 b 427 813 412 816 419 813 b 448 821 435 813 443 816 b 456 845 454 827 456 835 z m 518 876 l 505 876 l 505 837 l 505 837 l 478 876 l 466 876 l 466 814 l 479 814 l 479 852 l 507 814 l 518 814 z m 540 814 l 545 827 l 566 827 l 571 814 l 585 814 l 564 876 l 547 876 l 526 814 z m 593 814 l 633 814 l 633 825 l 606 825 l 606 876 l 593 876 z m 237 791 l 237 751 b 225 739 237 743 233 739 b 212 751 216 741 212 744 l 212 791 l 199 791 l 199 750 b 206 734 199 743 201 738 b 225 728 211 730 217 728 b 243 734 233 728 239 730 b 251 750 248 738 251 743 l 251 791 z m 295 772 l 308 772 b 285 791 307 785 298 791 b 268 787 278 791 273 790 b 261 772 264 783 262 779 b 278 755 262 764 267 758 l 285 754 b 296 746 292 753 296 750 b 284 739 295 741 291 739 b 273 748 277 739 274 742 l 260 748 b 267 733 260 741 262 736 b 285 728 271 730 277 728 b 309 746 300 728 308 734 b 290 764 308 756 302 762 l 284 766 b 275 773 278 767 275 769 b 285 781 275 778 278 781 b 295 772 291 781 294 778 z m 318 728 l 359 728 l 359 739 l 331 739 l 331 754 l 357 754 l 357 765 l 331 765 l 331 780 l 359 780 l 359 791 l 318 791 z m 447 760 b 438 783 447 770 444 778 b 418 791 433 789 426 791 b 397 783 410 791 403 789 b 389 760 391 778 389 770 b 397 736 389 749 391 742 b 418 728 403 730 410 728 b 438 736 426 728 433 730 b 447 760 444 742 447 749 z m 509 791 l 496 791 l 496 751 l 495 751 l 468 791 l 456 791 l 456 728 l 469 728 l 469 768 l 470 768 l 497 728 l 509 728 z m 519 728 l 559 728 l 559 739 l 532 739 l 532 791 l 519 791 z m 556 791 l 579 751 l 579 728 l 592 728 l 592 751 l 614 791 l 600 791 l 586 764 l 585 764 l 571 791 z m 167 -81 l 199 -81 l 199 -73 l 177 -73 l 177 -61 l 197 -61 l 197 -53 l 177 -53 l 177 -42 l 199 -42 l 199 -34 l 167 -34 z m 246 -34 l 236 -34 l 236 -63 l 235 -63 l 215 -34 l 207 -34 l 207 -81 l 216 -81 l 216 -51 l 217 -51 l 237 -81 l 246 -81 z m 263 -34 l 252 -34 l 267 -57 l 252 -81 l 263 -81 l 273 -64 l 283 -81 l 294 -81 l 279 -57 l 294 -34 l 283 -34 l 273 -50 z m 298 -34 l 315 -64 l 315 -81 l 325 -81 l 325 -64 l 342 -34 l 331 -34 l 320 -54 l 309 -34 z m 386 -50 b 380 -37 385 -45 383 -41 b 366 -33 376 -35 371 -33 b 350 -39 359 -33 354 -35 b 344 -57 346 -43 344 -50 b 350 -75 344 -65 346 -71 b 366 -81 354 -79 359 -81 b 380 -77 372 -81 376 -80 b 386 -64 383 -73 385 -69 l 376 -64 b 366 -73 374 -70 371 -73 b 353 -57 357 -73 353 -67 b 366 -42 355 -47 359 -42 b 376 -50 371 -42 374 -45 z m 393 -81 l 423 -81 l 423 -73 l 404 -73 l 404 -34 l 393 -34 z m 471 -57 b 465 -39 471 -50 469 -43 b 449 -33 460 -35 456 -33 b 433 -39 443 -33 437 -35 b 427 -57 429 -43 427 -50 b 433 -75 427 -65 429 -71 b 449 -81 437 -79 443 -81 b 465 -75 456 -81 460 -79 b 471 -57 469 -71 471 -65 z m 481 -81 b 487 -76 484 -81 486 -79 b 481 -71 486 -73 484 -71 b 475 -76 478 -71 476 -73 b 481 -81 476 -79 478 -81 z m 536 -50 b 530 -37 536 -45 534 -41 b 516 -33 526 -35 522 -33 b 500 -39 510 -33 505 -35 b 494 -57 496 -43 494 -50 b 500 -75 494 -65 496 -71 b 516 -81 505 -79 510 -81 b 530 -77 522 -81 527 -80 b 536 -64 534 -73 536 -69 l 526 -64 b 516 -73 525 -70 522 -73 b 505 -57 508 -73 505 -67 b 516 -42 505 -47 509 -42 b 526 -50 522 -42 525 -45 z m 587 -57 b 581 -39 587 -50 585 -43 b 565 -33 576 -35 571 -33 b 549 -39 559 -33 553 -35 b 543 -57 545 -43 543 -50 b 549 -75 543 -65 545 -71 b 565 -81 553 -79 559 -81 b 581 -75 571 -81 576 -79 b 587 -57 585 -71 587 -65 z "}," ":{"ha":475,"x_min":0,"x_max":0,"o":""},"":{"ha":475,"x_min":0,"x_max":0,"o":""},"!":{"ha":341,"x_min":0,"x_max":0,"o":"m 68 206 l 68 1 l 273 1 l 273 206 z m 68 1028 l 68 281 l 273 281 l 273 1028 z "},"\"":{"ha":661,"x_min":0,"x_max":0,"o":"m 344 1028 l 133 1028 l 81 804 b 68 775 79 792 75 783 l 110 718 l 203 777 b 279 832 236 795 261 814 b 316 907 296 850 309 875 z m 593 1028 l 382 1028 l 330 804 b 317 775 328 792 323 783 l 359 718 l 453 777 b 528 832 485 795 510 814 b 565 907 545 850 557 875 z "},"#":{"ha":1836,"x_min":0,"x_max":0,"o":"m 1306 758 b 1324 804 1306 776 1312 791 b 1371 823 1336 817 1352 823 l 1768 823 l 1768 1028 l 1525 1028 b 1442 1008 1490 1028 1463 1021 b 1372 948 1421 995 1398 975 l 1181 756 b 1152 726 1170 746 1160 736 l 735 726 l 735 758 b 753 804 735 776 741 791 b 800 823 766 817 781 823 l 1198 823 l 1198 1028 l 954 1028 b 871 1008 920 1028 892 1021 b 802 948 850 995 827 975 l 610 756 b 581 726 600 746 590 736 l 199 726 l 199 521 l 530 521 l 530 271 b 512 225 530 253 524 237 b 465 206 500 212 484 206 l 68 206 l 68 1 l 312 1 b 394 20 346 1 373 7 b 464 81 415 34 438 54 l 647 264 l 1100 264 b 1036 206 1093 225 1071 206 l 638 206 l 638 1 l 882 1 b 964 20 916 1 944 7 b 1034 81 985 34 1008 54 l 1217 264 l 1768 264 l 1768 469 l 1306 469 z m 735 469 l 735 521 l 1101 521 l 1101 469 z "},"$":{"ha":1705,"x_min":0,"x_max":0,"o":"m 1637 1 l 1637 193 b 1617 275 1637 227 1630 255 b 1556 345 1604 296 1584 319 l 1365 537 b 1317 582 1348 555 1332 570 b 1272 608 1303 593 1287 602 b 1213 617 1255 614 1236 617 l 955 617 l 955 823 l 1367 823 b 1413 804 1385 823 1401 817 b 1432 758 1426 791 1432 776 l 1432 584 l 1637 584 l 1637 604 b 1617 686 1637 638 1630 666 b 1556 756 1604 707 1584 730 l 1365 947 b 1299 1006 1341 973 1319 992 b 1227 1027 1280 1019 1255 1026 l 1213 1028 l 956 1028 l 956 1223 l 749 1223 l 749 1028 l 68 1028 l 68 836 b 87 753 68 801 75 774 b 148 683 101 732 121 709 l 339 492 b 404 435 363 467 385 448 b 474 412 424 422 447 414 l 492 412 l 749 412 l 749 206 l 338 206 b 292 225 319 206 304 212 b 273 271 279 237 273 253 l 273 445 l 68 445 l 68 425 b 87 342 68 391 75 363 b 148 273 101 321 121 298 l 339 81 b 388 36 357 63 373 48 b 433 9 402 24 418 16 b 492 1 450 3 469 1 l 749 1 l 749 -195 l 956 -195 l 956 1 z m 273 823 l 749 823 l 749 617 l 338 617 b 292 636 319 617 304 623 b 273 682 279 648 273 664 z m 955 412 l 1367 412 b 1413 393 1385 412 1401 406 b 1432 347 1426 380 1432 365 l 1432 206 l 955 206 z "},"%":{"ha":1705,"x_min":0,"x_max":0,"o":"m 955 758 b 973 804 955 776 961 791 b 1020 823 985 817 1001 823 l 1637 823 l 1637 1028 l 1173 1028 b 1091 1008 1139 1028 1112 1021 b 1021 948 1070 995 1047 975 l 830 757 b 770 688 804 731 784 708 b 750 610 758 667 750 641 l 750 271 b 732 225 750 253 744 237 b 685 206 720 212 704 206 l 68 206 l 68 1 l 532 1 b 614 20 566 1 593 7 b 684 81 635 34 658 54 l 875 272 b 920 321 893 290 908 306 b 947 366 932 335 941 351 b 956 425 952 382 956 401 z m 274 907 l 466 907 b 493 897 477 907 486 904 b 504 869 500 890 504 881 l 504 669 b 466 631 504 646 491 633 l 274 631 b 247 641 263 631 254 634 b 236 669 239 648 236 657 l 236 869 b 274 907 236 892 248 905 z m 363 510 l 376 510 b 410 515 389 510 401 512 b 437 531 419 519 429 524 b 465 557 446 538 455 547 l 577 669 b 604 697 588 680 597 689 b 619 724 610 705 616 714 b 625 756 623 732 625 744 l 625 782 b 612 828 624 800 621 816 b 577 869 605 840 593 854 l 465 981 b 425 1017 450 997 437 1008 b 376 1028 412 1024 396 1028 l 363 1028 b 330 1023 351 1028 339 1027 b 303 1007 320 1019 311 1015 b 275 981 294 1000 285 991 l 162 869 b 136 841 152 859 143 850 b 121 814 130 833 124 824 b 115 782 117 806 115 795 l 115 756 b 127 710 115 738 119 722 b 162 669 135 698 146 684 l 275 557 b 315 522 290 541 303 530 b 363 510 328 514 344 510 z m 1239 398 l 1431 398 b 1458 387 1442 398 1451 395 b 1469 360 1466 380 1469 372 l 1469 159 b 1431 121 1469 137 1457 124 l 1239 121 b 1212 132 1228 121 1219 125 b 1201 159 1204 139 1201 148 l 1201 360 b 1239 398 1201 382 1213 395 z m 1329 1 l 1341 1 b 1375 6 1354 1 1366 2 b 1402 22 1384 9 1394 14 b 1430 47 1411 28 1420 37 l 1542 160 b 1569 188 1553 170 1562 179 b 1584 214 1575 196 1581 205 b 1590 247 1588 223 1590 234 l 1590 273 b 1577 319 1590 291 1586 307 b 1542 359 1570 331 1558 345 l 1430 471 b 1390 507 1415 488 1402 499 b 1341 519 1377 515 1361 519 l 1329 519 b 1295 513 1316 519 1304 517 b 1268 498 1286 510 1276 505 b 1240 471 1259 491 1250 482 l 1127 359 b 1101 332 1117 349 1108 340 b 1086 305 1095 323 1089 315 b 1080 273 1082 296 1080 285 l 1080 247 b 1093 201 1080 229 1084 213 b 1127 160 1100 189 1112 175 l 1240 47 b 1280 12 1255 32 1268 20 b 1329 1 1293 5 1309 1 z "},"&":{"ha":2150,"x_min":0,"x_max":0,"o":"m 68 1 l 1213 1 b 1272 9 1236 1 1256 3 b 1318 36 1287 16 1303 24 b 1366 81 1332 47 1348 62 l 1415 131 l 1415 1 l 1621 1 l 1621 234 l 1659 234 b 1717 243 1682 234 1702 237 b 1763 270 1733 249 1748 258 b 1811 315 1777 281 1794 296 l 2003 506 b 2063 576 2030 532 2050 555 b 2083 658 2076 596 2083 623 l 2083 678 l 1877 678 l 1877 505 b 1860 458 1877 486 1871 471 b 1813 439 1847 446 1832 439 l 1621 439 l 1621 448 b 1612 507 1621 471 1618 491 b 1586 553 1606 522 1597 538 b 1541 601 1574 567 1559 583 l 1481 660 l 1557 736 b 1619 823 1598 774 1619 804 b 1621 853 1620 842 1621 852 b 1543 975 1621 890 1595 930 b 1489 1014 1525 992 1506 1005 b 1423 1028 1470 1023 1449 1027 l 492 1028 b 434 1019 469 1028 450 1025 b 388 993 418 1013 402 1004 b 340 948 374 981 357 966 l 149 757 b 88 687 121 730 101 707 b 68 604 75 666 68 639 l 68 584 l 273 584 l 273 758 b 292 804 273 776 279 791 b 338 823 304 817 319 823 l 1432 823 l 1432 734 b 1414 689 1432 716 1426 701 b 1367 670 1402 676 1386 670 l 492 670 b 434 661 469 670 450 667 b 388 635 418 655 402 646 b 340 589 374 623 357 608 l 149 398 b 88 328 121 372 101 349 b 68 246 75 307 68 280 z m 427 234 l 1415 234 l 1415 227 b 1367 206 1403 213 1387 206 l 373 206 b 427 234 387 224 404 234 z m 275 206 l 274 206 b 273 302 274 238 274 271 l 273 399 b 292 446 273 418 279 433 b 338 465 304 458 319 465 l 1213 465 l 1231 465 b 1301 488 1258 467 1282 475 b 1366 545 1320 501 1342 520 l 1415 594 l 1415 439 l 581 439 b 523 431 558 439 538 437 b 477 404 507 425 492 416 b 429 359 463 392 446 377 z "},"'":{"ha":412,"x_min":0,"x_max":0,"o":"m 344 1028 l 133 1028 l 81 804 b 68 775 79 792 75 783 l 110 718 l 203 777 b 279 832 236 795 261 814 b 316 907 296 850 309 875 z "},"(":{"ha":580,"x_min":0,"x_max":0,"o":"m 338 1123 l 512 1123 l 512 1329 l 492 1329 b 433 1320 469 1329 450 1326 b 388 1293 418 1314 402 1305 b 340 1249 373 1281 357 1266 l 148 1057 b 87 987 121 1031 101 1008 b 68 905 75 966 68 939 l 68 124 b 77 66 68 101 71 82 b 103 20 83 50 92 35 b 148 -28 115 5 130 -11 l 340 -220 b 410 -280 366 -247 389 -267 b 492 -300 430 -293 458 -300 l 512 -300 l 512 -94 l 338 -94 b 292 -76 320 -94 304 -88 b 273 -29 279 -64 273 -48 l 273 1058 b 292 1105 273 1077 279 1093 b 338 1123 304 1117 320 1123 z "},")":{"ha":580,"x_min":0,"x_max":0,"o":"m 68 1123 l 241 1123 b 288 1105 260 1123 275 1117 b 307 1058 300 1093 307 1077 l 307 -29 b 288 -76 307 -48 300 -64 b 241 -94 275 -88 260 -94 l 68 -94 l 68 -300 l 88 -300 b 170 -280 122 -300 150 -293 b 240 -220 191 -267 214 -247 l 431 -28 b 477 20 450 -11 465 5 b 503 66 488 35 497 50 b 512 124 509 82 512 101 l 512 905 b 492 987 512 939 505 966 b 431 1057 479 1008 458 1031 l 240 1249 b 192 1293 222 1266 206 1281 b 146 1320 177 1305 162 1314 b 88 1329 130 1326 111 1329 l 68 1329 z "},"*":{"ha":665,"x_min":0,"x_max":0,"o":"m 333 882 l 229 882 b 191 921 203 885 191 899 l 191 1028 l 68 1028 l 68 1013 b 79 963 68 992 72 976 b 116 922 87 951 100 937 l 214 824 l 214 749 b 175 709 211 722 197 709 l 68 709 l 68 587 l 83 587 b 133 599 104 587 120 591 b 174 635 145 607 159 618 l 288 749 b 300 761 293 753 296 758 b 321 760 307 760 313 760 l 332 760 l 332 733 l 435 733 b 474 694 461 730 474 717 l 474 587 l 597 587 l 597 602 b 585 652 597 623 593 640 b 549 693 577 664 565 678 l 451 791 l 451 867 b 490 905 454 892 467 905 l 597 905 l 597 1028 l 581 1028 b 532 1017 561 1028 545 1024 b 490 980 519 1008 506 996 l 376 866 b 364 854 372 862 368 858 b 344 856 358 855 351 856 l 333 856 z "},"+":{"ha":1313,"x_min":0,"x_max":0,"o":"m 68 599 l 68 393 l 553 393 l 553 189 l 759 189 l 759 393 l 1245 393 l 1245 599 l 759 599 l 759 804 l 553 804 l 553 599 z "},",":{"ha":412,"x_min":0,"x_max":0,"o":"m 344 179 l 133 179 l 81 -46 b 68 -74 79 -57 75 -66 l 110 -132 l 203 -73 b 279 -17 236 -54 261 -35 b 316 58 296 1 309 26 z "},"-":{"ha":1313,"x_min":0,"x_max":0,"o":"m 68 599 l 68 393 l 1245 393 l 1245 599 z "},"":{"ha":1313,"x_min":0,"x_max":0,"o":"m 68 599 l 68 393 l 1245 393 l 1245 599 z "},".":{"ha":341,"x_min":0,"x_max":0,"o":"m 68 1 l 273 1 l 273 179 l 68 179 z "},"/":{"ha":1265,"x_min":0,"x_max":0,"o":"m 735 758 b 753 804 735 776 741 791 b 800 823 766 817 781 823 l 1198 823 l 1198 1028 l 954 1028 b 871 1008 920 1028 892 1021 b 802 948 850 995 827 975 l 610 756 b 551 688 584 731 564 708 b 530 610 538 667 530 641 l 530 271 b 512 225 530 253 524 237 b 465 206 500 212 484 206 l 68 206 l 68 1 l 312 1 b 394 20 346 1 373 7 b 464 81 415 34 438 54 l 655 272 b 700 321 673 290 688 306 b 727 366 712 335 721 351 b 735 425 732 382 735 401 z "},":":{"ha":341,"x_min":0,"x_max":0,"o":"m 68 1 l 273 1 l 273 179 l 68 179 z m 68 850 l 273 850 l 273 1028 l 68 1028 z "},";":{"ha":373,"x_min":0,"x_max":0,"o":"m 71 -66 b 68 -71 69 -68 68 -70 l 68 -77 l 121 -77 b 252 -5 174 -73 217 -50 b 305 142 288 38 305 87 l 305 179 l 100 179 l 100 -12 b 71 -66 100 -35 90 -54 z m 99 850 l 304 850 l 304 1028 l 99 1028 z "},"<":{"ha":803,"x_min":0,"x_max":0,"o":"m 273 686 b 292 732 273 705 279 720 b 338 751 304 745 319 751 l 735 751 l 735 957 l 492 957 b 409 937 458 957 430 950 b 339 876 389 924 365 903 l 148 685 b 103 637 130 667 115 651 b 77 591 92 622 83 607 b 68 533 71 575 68 555 l 68 496 b 87 414 68 462 75 434 b 148 344 101 393 121 370 l 339 153 b 388 107 357 134 373 119 b 433 81 402 96 418 87 b 492 72 450 75 469 72 l 735 72 l 735 277 l 338 277 b 292 296 319 277 304 284 b 273 342 279 309 273 324 z "},"=":{"ha":1295,"x_min":0,"x_max":0,"o":"m 68 738 l 68 532 l 1227 532 l 1227 738 z m 68 460 l 68 255 l 1227 255 l 1227 460 z "},">":{"ha":803,"x_min":0,"x_max":0,"o":"m 530 686 l 530 342 b 512 296 530 324 524 309 b 465 277 500 284 484 277 l 68 277 l 68 72 l 312 72 b 370 81 334 72 354 75 b 416 107 386 87 401 96 b 464 153 430 119 446 134 l 655 344 b 715 414 682 370 703 393 b 735 496 729 434 735 462 l 735 533 b 727 591 735 555 732 575 b 700 637 721 607 712 622 b 655 685 688 651 673 667 l 464 876 b 394 937 438 903 415 924 b 312 957 373 950 346 957 l 68 957 l 68 751 l 465 751 b 512 732 484 751 500 745 b 530 686 524 720 530 705 z "},"?":{"ha":1705,"x_min":0,"x_max":0,"o":"m 1637 1028 l 492 1028 b 433 1019 469 1028 450 1025 b 388 993 418 1013 402 1004 b 339 947 373 981 357 966 l 148 756 b 87 686 121 730 101 707 b 68 604 75 666 68 638 l 68 584 l 273 584 l 273 758 b 292 804 273 776 279 791 b 338 823 304 817 319 823 l 1432 823 l 1432 649 b 1413 603 1432 631 1426 615 b 1367 584 1401 591 1385 584 l 968 584 b 899 571 940 584 917 580 b 844 531 881 562 863 549 b 794 482 827 515 810 499 b 789 478 793 481 791 479 b 760 441 776 465 766 453 b 749 400 753 431 749 417 l 749 281 l 955 281 l 955 378 l 1213 378 b 1272 387 1236 378 1255 382 b 1317 414 1287 393 1303 402 b 1365 459 1332 426 1348 441 l 1556 650 b 1617 720 1584 676 1604 699 b 1637 802 1630 741 1637 768 z m 955 1 l 955 206 l 749 206 l 749 1 z "},"@":{"ha":2537,"x_min":0,"x_max":0,"o":"m 473 1 l 1618 1 b 1676 9 1641 1 1660 3 b 1722 36 1692 15 1708 24 b 1771 81 1737 48 1753 63 l 1836 147 l 1836 -66 b 1889 -180 1839 -111 1856 -149 b 1938 -230 1906 -197 1922 -214 l 1943 -235 b 1979 -264 1956 -248 1968 -258 b 2020 -275 1990 -271 2004 -275 l 2045 -275 b 2103 -266 2068 -275 2087 -271 b 2149 -239 2119 -260 2134 -251 b 2197 -194 2163 -227 2180 -212 l 2389 -3 b 2449 67 2416 23 2436 46 b 2469 149 2462 87 2469 115 l 2469 880 b 2460 937 2469 902 2466 922 b 2433 983 2454 954 2445 968 b 2389 1031 2422 998 2407 1014 l 2197 1223 b 2127 1283 2171 1250 2148 1270 b 2045 1303 2106 1297 2079 1303 l 492 1303 b 433 1295 469 1303 450 1300 b 388 1267 418 1289 402 1280 b 340 1223 373 1256 357 1241 l 148 1031 b 87 962 121 1006 101 983 b 68 880 75 941 68 913 l 68 149 b 77 92 68 127 71 107 b 103 45 83 75 92 60 b 148 -3 115 31 130 15 l 340 -194 b 410 -254 366 -221 389 -241 b 492 -275 430 -268 458 -275 l 1659 -275 l 1659 -69 l 338 -69 b 292 -51 320 -69 304 -63 b 273 -4 279 -39 273 -23 l 273 1033 b 292 1080 273 1052 279 1067 b 338 1098 304 1092 320 1098 l 2199 1098 b 2245 1080 2217 1098 2232 1092 b 2264 1033 2257 1067 2264 1052 l 2264 -4 b 2245 -51 2264 -23 2257 -39 b 2199 -69 2232 -63 2217 -69 l 2042 -69 l 2042 339 b 2033 397 2042 362 2039 381 b 2007 443 2028 413 2019 429 b 1962 492 1995 458 1980 473 l 1866 587 l 1818 539 b 1836 492 1830 527 1836 511 l 1836 269 b 1772 206 1830 227 1809 206 l 678 206 l 678 399 b 696 446 678 418 684 433 b 743 465 709 458 724 465 l 1618 465 l 1636 465 b 1706 488 1663 467 1687 475 b 1771 545 1725 501 1747 520 l 1962 736 b 2022 806 1989 762 2009 785 b 2042 888 2035 827 2042 854 l 2042 1028 l 897 1028 l 883 1027 b 810 1006 854 1026 831 1019 b 745 948 791 992 768 973 l 553 756 b 493 686 526 730 506 707 b 473 604 479 666 473 638 l 473 584 l 678 584 l 678 758 b 696 804 678 776 684 791 b 743 823 709 817 724 823 l 1836 823 l 1836 734 b 1818 688 1836 716 1830 701 b 1772 670 1806 676 1791 670 l 897 670 b 839 661 874 670 854 667 b 793 634 823 655 808 646 b 745 589 779 623 762 608 l 553 398 b 493 328 526 372 506 349 b 473 246 479 308 473 280 z "},"A":{"ha":812,"x_min":0,"x_max":0,"o":"m 539 469 b 589 501 554 483 570 494 b 492 563 555 536 522 557 b 422 572 460 569 437 572 b 332 554 392 572 361 566 b 381 510 350 541 367 526 b 424 514 396 513 410 514 b 539 469 466 514 505 499 z m 306 249 b 338 342 328 277 338 308 b 306 433 338 375 328 406 b 279 382 292 416 283 398 b 274 341 276 366 274 352 b 278 309 274 330 275 319 b 306 249 283 288 292 267 z m 443 373 b 445 341 444 363 445 352 b 443 309 445 331 444 320 b 527 341 474 311 502 322 b 443 373 502 361 474 371 z m 289 231 b 256 292 271 252 260 273 b 250 341 252 312 250 328 b 254 380 250 354 251 368 b 289 452 260 406 271 430 b 239 481 274 465 258 475 b 192 342 208 439 192 392 b 239 201 192 291 208 244 b 266 214 248 204 257 209 b 289 231 274 219 281 224 z m 589 181 b 539 213 570 189 554 199 b 424 168 505 183 466 168 b 381 173 410 168 396 170 b 356 147 374 163 365 155 b 332 129 348 140 340 134 b 422 111 361 117 392 111 b 469 115 437 111 453 112 b 589 181 515 125 555 146 z m 577 -57 b 565 -73 576 -68 572 -73 b 553 -57 557 -73 553 -67 b 565 -42 554 -47 558 -42 b 577 -57 573 -42 577 -47 z m 193 844 l 193 865 l 202 865 b 213 854 210 864 213 861 b 202 844 213 848 210 844 z m 300 846 l 300 865 l 309 865 b 321 856 317 865 321 861 b 309 846 321 849 317 846 z m 443 845 b 427 825 442 831 437 825 b 412 845 417 825 412 831 b 427 865 412 858 418 865 b 443 845 438 865 443 858 z m 548 838 l 555 862 l 564 838 z m 433 760 b 418 739 433 746 427 739 b 401 760 407 739 401 746 b 418 780 403 773 408 780 b 433 760 429 779 433 772 z m 625 196 b 628 191 627 195 628 193 l 628 189 b 627 188 628 189 627 188 b 508 98 587 137 547 107 b 422 85 469 90 440 85 b 300 117 380 85 340 96 l 288 123 b 286 127 287 124 286 126 b 286 130 286 128 286 129 l 288 132 b 386 224 332 157 365 188 b 418 340 408 261 418 300 l 418 342 b 385 458 418 383 407 422 b 288 551 363 496 331 526 b 286 555 287 552 286 553 b 286 557 286 555 286 557 l 288 559 b 427 596 334 584 380 596 b 471 593 442 596 457 595 b 628 494 533 582 585 549 b 629 490 629 493 629 492 b 624 486 629 488 627 487 b 579 469 608 484 594 477 b 543 439 565 460 553 450 b 538 437 541 437 540 437 b 535 438 538 437 536 437 b 479 479 515 458 496 471 b 425 490 461 486 444 490 b 399 488 417 490 408 490 b 439 398 418 460 431 431 b 559 345 486 397 526 378 b 561 342 560 344 561 342 b 559 338 561 340 560 339 b 439 285 526 304 486 286 b 399 195 431 252 418 222 b 422 193 407 193 415 193 b 536 245 467 193 505 210 b 540 247 537 246 538 247 l 541 247 b 545 245 543 246 544 245 b 625 196 569 218 595 202 z m 228 176 b 167 342 187 227 167 282 b 229 507 167 401 187 456 b 232 509 229 509 231 509 b 234 509 233 509 233 509 b 337 433 281 494 316 469 b 363 344 354 406 363 376 l 363 342 b 336 250 362 309 353 279 b 233 174 315 214 280 189 l 232 174 b 228 176 231 174 229 174 z m 461 -57 b 449 -73 460 -68 456 -73 b 437 -57 441 -73 437 -67 b 449 -42 438 -47 442 -42 b 461 -57 457 -42 461 -47 z m 129 679 b 85 661 112 679 98 673 b 68 618 74 650 68 635 l 68 64 b 85 20 68 47 74 32 b 129 3 98 9 112 3 l 684 3 b 726 20 701 3 715 9 b 745 64 739 32 745 47 l 745 618 b 726 661 745 635 739 650 b 684 679 715 673 701 679 z m 595 -34 l 595 -81 l 604 -81 l 604 -50 l 604 -50 l 616 -81 l 623 -81 l 635 -50 l 635 -81 l 646 -81 l 646 -34 l 633 -34 l 620 -66 l 619 -66 l 607 -34 z m 180 814 l 193 814 l 193 834 l 204 834 b 220 840 211 834 216 836 b 227 854 224 844 227 848 b 204 876 226 869 218 876 l 180 876 z m 235 814 l 277 814 l 277 825 l 248 825 l 248 840 l 275 840 l 275 850 l 248 850 l 248 865 l 277 865 l 277 876 l 235 876 z m 288 814 l 300 814 l 300 836 l 310 836 l 321 814 l 336 814 l 323 838 b 334 856 330 841 334 847 b 312 876 333 869 326 876 l 288 876 z m 377 858 l 390 858 b 367 877 388 870 380 877 b 350 871 360 877 354 875 b 343 858 345 868 343 863 b 360 841 343 849 349 843 l 367 840 b 378 831 374 838 377 835 b 366 824 377 826 373 824 b 354 833 359 824 355 827 l 341 833 b 349 818 342 826 344 821 b 367 813 353 814 359 813 b 391 831 382 813 389 819 b 372 850 390 842 384 848 l 366 851 b 357 859 360 852 357 854 b 367 866 357 863 360 866 b 377 858 373 866 376 863 z m 456 845 b 448 868 456 854 454 863 b 427 877 443 873 435 877 b 406 868 419 877 412 873 b 398 845 401 863 398 854 b 406 821 398 835 401 827 b 427 813 412 816 419 813 b 448 821 435 813 443 816 b 456 845 454 827 456 835 z m 518 876 l 505 876 l 505 837 l 505 837 l 478 876 l 466 876 l 466 814 l 479 814 l 479 852 l 507 814 l 518 814 z m 540 814 l 545 827 l 566 827 l 571 814 l 585 814 l 564 876 l 547 876 l 526 814 z m 593 814 l 633 814 l 633 825 l 606 825 l 606 876 l 593 876 z m 237 791 l 237 751 b 225 739 237 743 233 739 b 212 751 216 741 212 744 l 212 791 l 199 791 l 199 750 b 206 734 199 743 201 738 b 225 728 211 730 217 728 b 243 734 233 728 239 730 b 251 750 248 738 251 743 l 251 791 z m 295 772 l 308 772 b 285 791 307 785 298 791 b 268 787 278 791 273 790 b 261 772 264 783 262 779 b 278 755 262 764 267 758 l 285 754 b 296 746 292 753 296 750 b 284 739 295 741 291 739 b 273 748 277 739 274 742 l 260 748 b 267 733 260 741 262 736 b 285 728 271 730 277 728 b 309 746 300 728 308 734 b 290 764 308 756 302 762 l 284 766 b 275 773 278 767 275 769 b 285 781 275 778 278 781 b 295 772 291 781 294 778 z m 318 728 l 359 728 l 359 739 l 331 739 l 331 754 l 357 754 l 357 765 l 331 765 l 331 780 l 359 780 l 359 791 l 318 791 z m 447 760 b 438 783 447 770 444 778 b 418 791 433 789 426 791 b 397 783 410 791 403 789 b 389 760 391 778 389 770 b 397 736 389 749 391 742 b 418 728 403 730 410 728 b 438 736 426 728 433 730 b 447 760 444 742 447 749 z m 509 791 l 496 791 l 496 751 l 495 751 l 468 791 l 456 791 l 456 728 l 469 728 l 469 768 l 470 768 l 497 728 l 509 728 z m 519 728 l 559 728 l 559 739 l 532 739 l 532 791 l 519 791 z m 556 791 l 579 751 l 579 728 l 592 728 l 592 751 l 614 791 l 600 791 l 586 764 l 585 764 l 571 791 z m 167 -81 l 199 -81 l 199 -73 l 177 -73 l 177 -61 l 197 -61 l 197 -53 l 177 -53 l 177 -42 l 199 -42 l 199 -34 l 167 -34 z m 246 -34 l 236 -34 l 236 -63 l 235 -63 l 215 -34 l 207 -34 l 207 -81 l 216 -81 l 216 -51 l 217 -51 l 237 -81 l 246 -81 z m 263 -34 l 252 -34 l 267 -57 l 252 -81 l 263 -81 l 273 -64 l 283 -81 l 294 -81 l 279 -57 l 294 -34 l 283 -34 l 273 -50 z m 298 -34 l 315 -64 l 315 -81 l 325 -81 l 325 -64 l 342 -34 l 331 -34 l 320 -54 l 309 -34 z m 386 -50 b 380 -37 385 -45 383 -41 b 366 -33 376 -35 371 -33 b 350 -39 359 -33 354 -35 b 344 -57 346 -43 344 -50 b 350 -75 344 -65 346 -71 b 366 -81 354 -79 359 -81 b 380 -77 372 -81 376 -80 b 386 -64 383 -73 385 -69 l 376 -64 b 366 -73 374 -70 371 -73 b 353 -57 357 -73 353 -67 b 366 -42 355 -47 359 -42 b 376 -50 371 -42 374 -45 z m 393 -81 l 423 -81 l 423 -73 l 404 -73 l 404 -34 l 393 -34 z m 471 -57 b 465 -39 471 -50 469 -43 b 449 -33 460 -35 456 -33 b 433 -39 443 -33 437 -35 b 427 -57 429 -43 427 -50 b 433 -75 427 -65 429 -71 b 449 -81 437 -79 443 -81 b 465 -75 456 -81 460 -79 b 471 -57 469 -71 471 -65 z m 481 -81 b 487 -76 484 -81 486 -79 b 481 -71 486 -73 484 -71 b 475 -76 478 -71 476 -73 b 481 -81 476 -79 478 -81 z m 536 -50 b 530 -37 536 -45 534 -41 b 516 -33 526 -35 522 -33 b 500 -39 510 -33 505 -35 b 494 -57 496 -43 494 -50 b 500 -75 494 -65 496 -71 b 516 -81 505 -79 510 -81 b 530 -77 522 -81 527 -80 b 536 -64 534 -73 536 -69 l 526 -64 b 516 -73 525 -70 522 -73 b 505 -57 508 -73 505 -67 b 516 -42 505 -47 509 -42 b 526 -50 522 -42 525 -45 z m 587 -57 b 581 -39 587 -50 585 -43 b 565 -33 576 -35 571 -33 b 549 -39 559 -33 553 -35 b 543 -57 545 -43 543 -50 b 549 -75 543 -65 545 -71 b 565 -81 553 -79 559 -81 b 581 -75 571 -81 576 -79 b 587 -57 585 -71 587 -65 z "},"B":{"ha":812,"x_min":0,"x_max":0,"o":"m 539 469 b 589 501 554 483 570 494 b 492 563 555 536 522 557 b 422 572 460 569 437 572 b 332 554 392 572 361 566 b 381 510 350 541 367 526 b 424 514 396 513 410 514 b 539 469 466 514 505 499 z m 306 249 b 338 342 328 277 338 308 b 306 433 338 375 328 406 b 279 382 292 416 283 398 b 274 341 276 366 274 352 b 278 309 274 330 275 319 b 306 249 283 288 292 267 z m 443 373 b 445 341 444 363 445 352 b 443 309 445 331 444 320 b 527 341 474 311 502 322 b 443 373 502 361 474 371 z m 289 231 b 256 292 271 252 260 273 b 250 341 252 312 250 328 b 254 380 250 354 251 368 b 289 452 260 406 271 430 b 239 481 274 465 258 475 b 192 342 208 439 192 392 b 239 201 192 291 208 244 b 266 214 248 204 257 209 b 289 231 274 219 281 224 z m 589 181 b 539 213 570 189 554 199 b 424 168 505 183 466 168 b 381 173 410 168 396 170 b 356 147 374 163 365 155 b 332 129 348 140 340 134 b 422 111 361 117 392 111 b 469 115 437 111 453 112 b 589 181 515 125 555 146 z m 577 -57 b 565 -73 576 -68 572 -73 b 553 -57 557 -73 553 -67 b 565 -42 554 -47 558 -42 b 577 -57 573 -42 577 -47 z m 193 844 l 193 865 l 202 865 b 213 854 210 864 213 861 b 202 844 213 848 210 844 z m 300 846 l 300 865 l 309 865 b 321 856 317 865 321 861 b 309 846 321 849 317 846 z m 443 845 b 427 825 442 831 437 825 b 412 845 417 825 412 831 b 427 865 412 858 418 865 b 443 845 438 865 443 858 z m 548 838 l 555 862 l 564 838 z m 433 760 b 418 739 433 746 427 739 b 401 760 407 739 401 746 b 418 780 403 773 408 780 b 433 760 429 779 433 772 z m 625 196 b 628 191 627 195 628 193 l 628 189 b 627 188 628 189 627 188 b 508 98 587 137 547 107 b 422 85 469 90 440 85 b 300 117 380 85 340 96 l 288 123 b 286 127 287 124 286 126 b 286 130 286 128 286 129 l 288 132 b 386 224 332 157 365 188 b 418 340 408 261 418 300 l 418 342 b 385 458 418 383 407 422 b 288 551 363 496 331 526 b 286 555 287 552 286 553 b 286 557 286 555 286 557 l 288 559 b 427 596 334 584 380 596 b 471 593 442 596 457 595 b 628 494 533 582 585 549 b 629 490 629 493 629 492 b 624 486 629 488 627 487 b 579 469 608 484 594 477 b 543 439 565 460 553 450 b 538 437 541 437 540 437 b 535 438 538 437 536 437 b 479 479 515 458 496 471 b 425 490 461 486 444 490 b 399 488 417 490 408 490 b 439 398 418 460 431 431 b 559 345 486 397 526 378 b 561 342 560 344 561 342 b 559 338 561 340 560 339 b 439 285 526 304 486 286 b 399 195 431 252 418 222 b 422 193 407 193 415 193 b 536 245 467 193 505 210 b 540 247 537 246 538 247 l 541 247 b 545 245 543 246 544 245 b 625 196 569 218 595 202 z m 228 176 b 167 342 187 227 167 282 b 229 507 167 401 187 456 b 232 509 229 509 231 509 b 234 509 233 509 233 509 b 337 433 281 494 316 469 b 363 344 354 406 363 376 l 363 342 b 336 250 362 309 353 279 b 233 174 315 214 280 189 l 232 174 b 228 176 231 174 229 174 z m 461 -57 b 449 -73 460 -68 456 -73 b 437 -57 441 -73 437 -67 b 449 -42 438 -47 442 -42 b 461 -57 457 -42 461 -47 z m 129 679 b 85 661 112 679 98 673 b 68 618 74 650 68 635 l 68 64 b 85 20 68 47 74 32 b 129 3 98 9 112 3 l 684 3 b 726 20 701 3 715 9 b 745 64 739 32 745 47 l 745 618 b 726 661 745 635 739 650 b 684 679 715 673 701 679 z m 595 -34 l 595 -81 l 604 -81 l 604 -50 l 604 -50 l 616 -81 l 623 -81 l 635 -50 l 635 -81 l 646 -81 l 646 -34 l 633 -34 l 620 -66 l 619 -66 l 607 -34 z m 180 814 l 193 814 l 193 834 l 204 834 b 220 840 211 834 216 836 b 227 854 224 844 227 848 b 204 876 226 869 218 876 l 180 876 z m 235 814 l 277 814 l 277 825 l 248 825 l 248 840 l 275 840 l 275 850 l 248 850 l 248 865 l 277 865 l 277 876 l 235 876 z m 288 814 l 300 814 l 300 836 l 310 836 l 321 814 l 336 814 l 323 838 b 334 856 330 841 334 847 b 312 876 333 869 326 876 l 288 876 z m 377 858 l 390 858 b 367 877 388 870 380 877 b 350 871 360 877 354 875 b 343 858 345 868 343 863 b 360 841 343 849 349 843 l 367 840 b 378 831 374 838 377 835 b 366 824 377 826 373 824 b 354 833 359 824 355 827 l 341 833 b 349 818 342 826 344 821 b 367 813 353 814 359 813 b 391 831 382 813 389 819 b 372 850 390 842 384 848 l 366 851 b 357 859 360 852 357 854 b 367 866 357 863 360 866 b 377 858 373 866 376 863 z m 456 845 b 448 868 456 854 454 863 b 427 877 443 873 435 877 b 406 868 419 877 412 873 b 398 845 401 863 398 854 b 406 821 398 835 401 827 b 427 813 412 816 419 813 b 448 821 435 813 443 816 b 456 845 454 827 456 835 z m 518 876 l 505 876 l 505 837 l 505 837 l 478 876 l 466 876 l 466 814 l 479 814 l 479 852 l 507 814 l 518 814 z m 540 814 l 545 827 l 566 827 l 571 814 l 585 814 l 564 876 l 547 876 l 526 814 z m 593 814 l 633 814 l 633 825 l 606 825 l 606 876 l 593 876 z m 237 791 l 237 751 b 225 739 237 743 233 739 b 212 751 216 741 212 744 l 212 791 l 199 791 l 199 750 b 206 734 199 743 201 738 b 225 728 211 730 217 728 b 243 734 233 728 239 730 b 251 750 248 738 251 743 l 251 791 z m 295 772 l 308 772 b 285 791 307 785 298 791 b 268 787 278 791 273 790 b 261 772 264 783 262 779 b 278 755 262 764 267 758 l 285 754 b 296 746 292 753 296 750 b 284 739 295 741 291 739 b 273 748 277 739 274 742 l 260 748 b 267 733 260 741 262 736 b 285 728 271 730 277 728 b 309 746 300 728 308 734 b 290 764 308 756 302 762 l 284 766 b 275 773 278 767 275 769 b 285 781 275 778 278 781 b 295 772 291 781 294 778 z m 318 728 l 359 728 l 359 739 l 331 739 l 331 754 l 357 754 l 357 765 l 331 765 l 331 780 l 359 780 l 359 791 l 318 791 z m 447 760 b 438 783 447 770 444 778 b 418 791 433 789 426 791 b 397 783 410 791 403 789 b 389 760 391 778 389 770 b 397 736 389 749 391 742 b 418 728 403 730 410 728 b 438 736 426 728 433 730 b 447 760 444 742 447 749 z m 509 791 l 496 791 l 496 751 l 495 751 l 468 791 l 456 791 l 456 728 l 469 728 l 469 768 l 470 768 l 497 728 l 509 728 z m 519 728 l 559 728 l 559 739 l 532 739 l 532 791 l 519 791 z m 556 791 l 579 751 l 579 728 l 592 728 l 592 751 l 614 791 l 600 791 l 586 764 l 585 764 l 571 791 z m 167 -81 l 199 -81 l 199 -73 l 177 -73 l 177 -61 l 197 -61 l 197 -53 l 177 -53 l 177 -42 l 199 -42 l 199 -34 l 167 -34 z m 246 -34 l 236 -34 l 236 -63 l 235 -63 l 215 -34 l 207 -34 l 207 -81 l 216 -81 l 216 -51 l 217 -51 l 237 -81 l 246 -81 z m 263 -34 l 252 -34 l 267 -57 l 252 -81 l 263 -81 l 273 -64 l 283 -81 l 294 -81 l 279 -57 l 294 -34 l 283 -34 l 273 -50 z m 298 -34 l 315 -64 l 315 -81 l 325 -81 l 325 -64 l 342 -34 l 331 -34 l 320 -54 l 309 -34 z m 386 -50 b 380 -37 385 -45 383 -41 b 366 -33 376 -35 371 -33 b 350 -39 359 -33 354 -35 b 344 -57 346 -43 344 -50 b 350 -75 344 -65 346 -71 b 366 -81 354 -79 359 -81 b 380 -77 372 -81 376 -80 b 386 -64 383 -73 385 -69 l 376 -64 b 366 -73 374 -70 371 -73 b 353 -57 357 -73 353 -67 b 366 -42 355 -47 359 -42 b 376 -50 371 -42 374 -45 z m 393 -81 l 423 -81 l 423 -73 l 404 -73 l 404 -34 l 393 -34 z m 471 -57 b 465 -39 471 -50 469 -43 b 449 -33 460 -35 456 -33 b 433 -39 443 -33 437 -35 b 427 -57 429 -43 427 -50 b 433 -75 427 -65 429 -71 b 449 -81 437 -79 443 -81 b 465 -75 456 -81 460 -79 b 471 -57 469 -71 471 -65 z m 481 -81 b 487 -76 484 -81 486 -79 b 481 -71 486 -73 484 -71 b 475 -76 478 -71 476 -73 b 481 -81 476 -79 478 -81 z m 536 -50 b 530 -37 536 -45 534 -41 b 516 -33 526 -35 522 -33 b 500 -39 510 -33 505 -35 b 494 -57 496 -43 494 -50 b 500 -75 494 -65 496 -71 b 516 -81 505 -79 510 -81 b 530 -77 522 -81 527 -80 b 536 -64 534 -73 536 -69 l 526 -64 b 516 -73 525 -70 522 -73 b 505 -57 508 -73 505 -67 b 516 -42 505 -47 509 -42 b 526 -50 522 -42 525 -45 z m 587 -57 b 581 -39 587 -50 585 -43 b 565 -33 576 -35 571 -33 b 549 -39 559 -33 553 -35 b 543 -57 545 -43 543 -50 b 549 -75 543 -65 545 -71 b 565 -81 553 -79 559 -81 b 581 -75 571 -81 576 -79 b 587 -57 585 -71 587 -65 z "},"C":{"ha":812,"x_min":0,"x_max":0,"o":"m 539 469 b 589 501 554 483 570 494 b 492 563 555 536 522 557 b 422 572 460 569 437 572 b 332 554 392 572 361 566 b 381 510 350 541 367 526 b 424 514 396 513 410 514 b 539 469 466 514 505 499 z m 306 249 b 338 342 328 277 338 308 b 306 433 338 375 328 406 b 279 382 292 416 283 398 b 274 341 276 366 274 352 b 278 309 274 330 275 319 b 306 249 283 288 292 267 z m 443 373 b 445 341 444 363 445 352 b 443 309 445 331 444 320 b 527 341 474 311 502 322 b 443 373 502 361 474 371 z m 289 231 b 256 292 271 252 260 273 b 250 341 252 312 250 328 b 254 380 250 354 251 368 b 289 452 260 406 271 430 b 239 481 274 465 258 475 b 192 342 208 439 192 392 b 239 201 192 291 208 244 b 266 214 248 204 257 209 b 289 231 274 219 281 224 z m 589 181 b 539 213 570 189 554 199 b 424 168 505 183 466 168 b 381 173 410 168 396 170 b 356 147 374 163 365 155 b 332 129 348 140 340 134 b 422 111 361 117 392 111 b 469 115 437 111 453 112 b 589 181 515 125 555 146 z m 577 -57 b 565 -73 576 -68 572 -73 b 553 -57 557 -73 553 -67 b 565 -42 554 -47 558 -42 b 577 -57 573 -42 577 -47 z m 193 844 l 193 865 l 202 865 b 213 854 210 864 213 861 b 202 844 213 848 210 844 z m 300 846 l 300 865 l 309 865 b 321 856 317 865 321 861 b 309 846 321 849 317 846 z m 443 845 b 427 825 442 831 437 825 b 412 845 417 825 412 831 b 427 865 412 858 418 865 b 443 845 438 865 443 858 z m 548 838 l 555 862 l 564 838 z m 433 760 b 418 739 433 746 427 739 b 401 760 407 739 401 746 b 418 780 403 773 408 780 b 433 760 429 779 433 772 z m 625 196 b 628 191 627 195 628 193 l 628 189 b 627 188 628 189 627 188 b 508 98 587 137 547 107 b 422 85 469 90 440 85 b 300 117 380 85 340 96 l 288 123 b 286 127 287 124 286 126 b 286 130 286 128 286 129 l 288 132 b 386 224 332 157 365 188 b 418 340 408 261 418 300 l 418 342 b 385 458 418 383 407 422 b 288 551 363 496 331 526 b 286 555 287 552 286 553 b 286 557 286 555 286 557 l 288 559 b 427 596 334 584 380 596 b 471 593 442 596 457 595 b 628 494 533 582 585 549 b 629 490 629 493 629 492 b 624 486 629 488 627 487 b 579 469 608 484 594 477 b 543 439 565 460 553 450 b 538 437 541 437 540 437 b 535 438 538 437 536 437 b 479 479 515 458 496 471 b 425 490 461 486 444 490 b 399 488 417 490 408 490 b 439 398 418 460 431 431 b 559 345 486 397 526 378 b 561 342 560 344 561 342 b 559 338 561 340 560 339 b 439 285 526 304 486 286 b 399 195 431 252 418 222 b 422 193 407 193 415 193 b 536 245 467 193 505 210 b 540 247 537 246 538 247 l 541 247 b 545 245 543 246 544 245 b 625 196 569 218 595 202 z m 228 176 b 167 342 187 227 167 282 b 229 507 167 401 187 456 b 232 509 229 509 231 509 b 234 509 233 509 233 509 b 337 433 281 494 316 469 b 363 344 354 406 363 376 l 363 342 b 336 250 362 309 353 279 b 233 174 315 214 280 189 l 232 174 b 228 176 231 174 229 174 z m 461 -57 b 449 -73 460 -68 456 -73 b 437 -57 441 -73 437 -67 b 449 -42 438 -47 442 -42 b 461 -57 457 -42 461 -47 z m 129 679 b 85 661 112 679 98 673 b 68 618 74 650 68 635 l 68 64 b 85 20 68 47 74 32 b 129 3 98 9 112 3 l 684 3 b 726 20 701 3 715 9 b 745 64 739 32 745 47 l 745 618 b 726 661 745 635 739 650 b 684 679 715 673 701 679 z m 595 -34 l 595 -81 l 604 -81 l 604 -50 l 604 -50 l 616 -81 l 623 -81 l 635 -50 l 635 -81 l 646 -81 l 646 -34 l 633 -34 l 620 -66 l 619 -66 l 607 -34 z m 180 814 l 193 814 l 193 834 l 204 834 b 220 840 211 834 216 836 b 227 854 224 844 227 848 b 204 876 226 869 218 876 l 180 876 z m 235 814 l 277 814 l 277 825 l 248 825 l 248 840 l 275 840 l 275 850 l 248 850 l 248 865 l 277 865 l 277 876 l 235 876 z m 288 814 l 300 814 l 300 836 l 310 836 l 321 814 l 336 814 l 323 838 b 334 856 330 841 334 847 b 312 876 333 869 326 876 l 288 876 z m 377 858 l 390 858 b 367 877 388 870 380 877 b 350 871 360 877 354 875 b 343 858 345 868 343 863 b 360 841 343 849 349 843 l 367 840 b 378 831 374 838 377 835 b 366 824 377 826 373 824 b 354 833 359 824 355 827 l 341 833 b 349 818 342 826 344 821 b 367 813 353 814 359 813 b 391 831 382 813 389 819 b 372 850 390 842 384 848 l 366 851 b 357 859 360 852 357 854 b 367 866 357 863 360 866 b 377 858 373 866 376 863 z m 456 845 b 448 868 456 854 454 863 b 427 877 443 873 435 877 b 406 868 419 877 412 873 b 398 845 401 863 398 854 b 406 821 398 835 401 827 b 427 813 412 816 419 813 b 448 821 435 813 443 816 b 456 845 454 827 456 835 z m 518 876 l 505 876 l 505 837 l 505 837 l 478 876 l 466 876 l 466 814 l 479 814 l 479 852 l 507 814 l 518 814 z m 540 814 l 545 827 l 566 827 l 571 814 l 585 814 l 564 876 l 547 876 l 526 814 z m 593 814 l 633 814 l 633 825 l 606 825 l 606 876 l 593 876 z m 237 791 l 237 751 b 225 739 237 743 233 739 b 212 751 216 741 212 744 l 212 791 l 199 791 l 199 750 b 206 734 199 743 201 738 b 225 728 211 730 217 728 b 243 734 233 728 239 730 b 251 750 248 738 251 743 l 251 791 z m 295 772 l 308 772 b 285 791 307 785 298 791 b 268 787 278 791 273 790 b 261 772 264 783 262 779 b 278 755 262 764 267 758 l 285 754 b 296 746 292 753 296 750 b 284 739 295 741 291 739 b 273 748 277 739 274 742 l 260 748 b 267 733 260 741 262 736 b 285 728 271 730 277 728 b 309 746 300 728 308 734 b 290 764 308 756 302 762 l 284 766 b 275 773 278 767 275 769 b 285 781 275 778 278 781 b 295 772 291 781 294 778 z m 318 728 l 359 728 l 359 739 l 331 739 l 331 754 l 357 754 l 357 765 l 331 765 l 331 780 l 359 780 l 359 791 l 318 791 z m 447 760 b 438 783 447 770 444 778 b 418 791 433 789 426 791 b 397 783 410 791 403 789 b 389 760 391 778 389 770 b 397 736 389 749 391 742 b 418 728 403 730 410 728 b 438 736 426 728 433 730 b 447 760 444 742 447 749 z m 509 791 l 496 791 l 496 751 l 495 751 l 468 791 l 456 791 l 456 728 l 469 728 l 469 768 l 470 768 l 497 728 l 509 728 z m 519 728 l 559 728 l 559 739 l 532 739 l 532 791 l 519 791 z m 556 791 l 579 751 l 579 728 l 592 728 l 592 751 l 614 791 l 600 791 l 586 764 l 585 764 l 571 791 z m 167 -81 l 199 -81 l 199 -73 l 177 -73 l 177 -61 l 197 -61 l 197 -53 l 177 -53 l 177 -42 l 199 -42 l 199 -34 l 167 -34 z m 246 -34 l 236 -34 l 236 -63 l 235 -63 l 215 -34 l 207 -34 l 207 -81 l 216 -81 l 216 -51 l 217 -51 l 237 -81 l 246 -81 z m 263 -34 l 252 -34 l 267 -57 l 252 -81 l 263 -81 l 273 -64 l 283 -81 l 294 -81 l 279 -57 l 294 -34 l 283 -34 l 273 -50 z m 298 -34 l 315 -64 l 315 -81 l 325 -81 l 325 -64 l 342 -34 l 331 -34 l 320 -54 l 309 -34 z m 386 -50 b 380 -37 385 -45 383 -41 b 366 -33 376 -35 371 -33 b 350 -39 359 -33 354 -35 b 344 -57 346 -43 344 -50 b 350 -75 344 -65 346 -71 b 366 -81 354 -79 359 -81 b 380 -77 372 -81 376 -80 b 386 -64 383 -73 385 -69 l 376 -64 b 366 -73 374 -70 371 -73 b 353 -57 357 -73 353 -67 b 366 -42 355 -47 359 -42 b 376 -50 371 -42 374 -45 z m 393 -81 l 423 -81 l 423 -73 l 404 -73 l 404 -34 l 393 -34 z m 471 -57 b 465 -39 471 -50 469 -43 b 449 -33 460 -35 456 -33 b 433 -39 443 -33 437 -35 b 427 -57 429 -43 427 -50 b 433 -75 427 -65 429 -71 b 449 -81 437 -79 443 -81 b 465 -75 456 -81 460 -79 b 471 -57 469 -71 471 -65 z m 481 -81 b 487 -76 484 -81 486 -79 b 481 -71 486 -73 484 -71 b 475 -76 478 -71 476 -73 b 481 -81 476 -79 478 -81 z m 536 -50 b 530 -37 536 -45 534 -41 b 516 -33 526 -35 522 -33 b 500 -39 510 -33 505 -35 b 494 -57 496 -43 494 -50 b 500 -75 494 -65 496 -71 b 516 -81 505 -79 510 -81 b 530 -77 522 -81 527 -80 b 536 -64 534 -73 536 -69 l 526 -64 b 516 -73 525 -70 522 -73 b 505 -57 508 -73 505 -67 b 516 -42 505 -47 509 -42 b 526 -50 522 -42 525 -45 z m 587 -57 b 581 -39 587 -50 585 -43 b 565 -33 576 -35 571 -33 b 549 -39 559 -33 553 -35 b 543 -57 545 -43 543 -50 b 549 -75 543 -65 545 -71 b 565 -81 553 -79 559 -81 b 581 -75 571 -81 576 -79 b 587 -57 585 -71 587 -65 z "},"D":{"ha":812,"x_min":0,"x_max":0,"o":"m 539 469 b 589 501 554 483 570 494 b 492 563 555 536 522 557 b 422 572 460 569 437 572 b 332 554 392 572 361 566 b 381 510 350 541 367 526 b 424 514 396 513 410 514 b 539 469 466 514 505 499 z m 306 249 b 338 342 328 277 338 308 b 306 433 338 375 328 406 b 279 382 292 416 283 398 b 274 341 276 366 274 352 b 278 309 274 330 275 319 b 306 249 283 288 292 267 z m 443 373 b 445 341 444 363 445 352 b 443 309 445 331 444 320 b 527 341 474 311 502 322 b 443 373 502 361 474 371 z m 289 231 b 256 292 271 252 260 273 b 250 341 252 312 250 328 b 254 380 250 354 251 368 b 289 452 260 406 271 430 b 239 481 274 465 258 475 b 192 342 208 439 192 392 b 239 201 192 291 208 244 b 266 214 248 204 257 209 b 289 231 274 219 281 224 z m 589 181 b 539 213 570 189 554 199 b 424 168 505 183 466 168 b 381 173 410 168 396 170 b 356 147 374 163 365 155 b 332 129 348 140 340 134 b 422 111 361 117 392 111 b 469 115 437 111 453 112 b 589 181 515 125 555 146 z m 577 -57 b 565 -73 576 -68 572 -73 b 553 -57 557 -73 553 -67 b 565 -42 554 -47 558 -42 b 577 -57 573 -42 577 -47 z m 193 844 l 193 865 l 202 865 b 213 854 210 864 213 861 b 202 844 213 848 210 844 z m 300 846 l 300 865 l 309 865 b 321 856 317 865 321 861 b 309 846 321 849 317 846 z m 443 845 b 427 825 442 831 437 825 b 412 845 417 825 412 831 b 427 865 412 858 418 865 b 443 845 438 865 443 858 z m 548 838 l 555 862 l 564 838 z m 433 760 b 418 739 433 746 427 739 b 401 760 407 739 401 746 b 418 780 403 773 408 780 b 433 760 429 779 433 772 z m 625 196 b 628 191 627 195 628 193 l 628 189 b 627 188 628 189 627 188 b 508 98 587 137 547 107 b 422 85 469 90 440 85 b 300 117 380 85 340 96 l 288 123 b 286 127 287 124 286 126 b 286 130 286 128 286 129 l 288 132 b 386 224 332 157 365 188 b 418 340 408 261 418 300 l 418 342 b 385 458 418 383 407 422 b 288 551 363 496 331 526 b 286 555 287 552 286 553 b 286 557 286 555 286 557 l 288 559 b 427 596 334 584 380 596 b 471 593 442 596 457 595 b 628 494 533 582 585 549 b 629 490 629 493 629 492 b 624 486 629 488 627 487 b 579 469 608 484 594 477 b 543 439 565 460 553 450 b 538 437 541 437 540 437 b 535 438 538 437 536 437 b 479 479 515 458 496 471 b 425 490 461 486 444 490 b 399 488 417 490 408 490 b 439 398 418 460 431 431 b 559 345 486 397 526 378 b 561 342 560 344 561 342 b 559 338 561 340 560 339 b 439 285 526 304 486 286 b 399 195 431 252 418 222 b 422 193 407 193 415 193 b 536 245 467 193 505 210 b 540 247 537 246 538 247 l 541 247 b 545 245 543 246 544 245 b 625 196 569 218 595 202 z m 228 176 b 167 342 187 227 167 282 b 229 507 167 401 187 456 b 232 509 229 509 231 509 b 234 509 233 509 233 509 b 337 433 281 494 316 469 b 363 344 354 406 363 376 l 363 342 b 336 250 362 309 353 279 b 233 174 315 214 280 189 l 232 174 b 228 176 231 174 229 174 z m 461 -57 b 449 -73 460 -68 456 -73 b 437 -57 441 -73 437 -67 b 449 -42 438 -47 442 -42 b 461 -57 457 -42 461 -47 z m 129 679 b 85 661 112 679 98 673 b 68 618 74 650 68 635 l 68 64 b 85 20 68 47 74 32 b 129 3 98 9 112 3 l 684 3 b 726 20 701 3 715 9 b 745 64 739 32 745 47 l 745 618 b 726 661 745 635 739 650 b 684 679 715 673 701 679 z m 595 -34 l 595 -81 l 604 -81 l 604 -50 l 604 -50 l 616 -81 l 623 -81 l 635 -50 l 635 -81 l 646 -81 l 646 -34 l 633 -34 l 620 -66 l 619 -66 l 607 -34 z m 180 814 l 193 814 l 193 834 l 204 834 b 220 840 211 834 216 836 b 227 854 224 844 227 848 b 204 876 226 869 218 876 l 180 876 z m 235 814 l 277 814 l 277 825 l 248 825 l 248 840 l 275 840 l 275 850 l 248 850 l 248 865 l 277 865 l 277 876 l 235 876 z m 288 814 l 300 814 l 300 836 l 310 836 l 321 814 l 336 814 l 323 838 b 334 856 330 841 334 847 b 312 876 333 869 326 876 l 288 876 z m 377 858 l 390 858 b 367 877 388 870 380 877 b 350 871 360 877 354 875 b 343 858 345 868 343 863 b 360 841 343 849 349 843 l 367 840 b 378 831 374 838 377 835 b 366 824 377 826 373 824 b 354 833 359 824 355 827 l 341 833 b 349 818 342 826 344 821 b 367 813 353 814 359 813 b 391 831 382 813 389 819 b 372 850 390 842 384 848 l 366 851 b 357 859 360 852 357 854 b 367 866 357 863 360 866 b 377 858 373 866 376 863 z m 456 845 b 448 868 456 854 454 863 b 427 877 443 873 435 877 b 406 868 419 877 412 873 b 398 845 401 863 398 854 b 406 821 398 835 401 827 b 427 813 412 816 419 813 b 448 821 435 813 443 816 b 456 845 454 827 456 835 z m 518 876 l 505 876 l 505 837 l 505 837 l 478 876 l 466 876 l 466 814 l 479 814 l 479 852 l 507 814 l 518 814 z m 540 814 l 545 827 l 566 827 l 571 814 l 585 814 l 564 876 l 547 876 l 526 814 z m 593 814 l 633 814 l 633 825 l 606 825 l 606 876 l 593 876 z m 237 791 l 237 751 b 225 739 237 743 233 739 b 212 751 216 741 212 744 l 212 791 l 199 791 l 199 750 b 206 734 199 743 201 738 b 225 728 211 730 217 728 b 243 734 233 728 239 730 b 251 750 248 738 251 743 l 251 791 z m 295 772 l 308 772 b 285 791 307 785 298 791 b 268 787 278 791 273 790 b 261 772 264 783 262 779 b 278 755 262 764 267 758 l 285 754 b 296 746 292 753 296 750 b 284 739 295 741 291 739 b 273 748 277 739 274 742 l 260 748 b 267 733 260 741 262 736 b 285 728 271 730 277 728 b 309 746 300 728 308 734 b 290 764 308 756 302 762 l 284 766 b 275 773 278 767 275 769 b 285 781 275 778 278 781 b 295 772 291 781 294 778 z m 318 728 l 359 728 l 359 739 l 331 739 l 331 754 l 357 754 l 357 765 l 331 765 l 331 780 l 359 780 l 359 791 l 318 791 z m 447 760 b 438 783 447 770 444 778 b 418 791 433 789 426 791 b 397 783 410 791 403 789 b 389 760 391 778 389 770 b 397 736 389 749 391 742 b 418 728 403 730 410 728 b 438 736 426 728 433 730 b 447 760 444 742 447 749 z m 509 791 l 496 791 l 496 751 l 495 751 l 468 791 l 456 791 l 456 728 l 469 728 l 469 768 l 470 768 l 497 728 l 509 728 z m 519 728 l 559 728 l 559 739 l 532 739 l 532 791 l 519 791 z m 556 791 l 579 751 l 579 728 l 592 728 l 592 751 l 614 791 l 600 791 l 586 764 l 585 764 l 571 791 z m 167 -81 l 199 -81 l 199 -73 l 177 -73 l 177 -61 l 197 -61 l 197 -53 l 177 -53 l 177 -42 l 199 -42 l 199 -34 l 167 -34 z m 246 -34 l 236 -34 l 236 -63 l 235 -63 l 215 -34 l 207 -34 l 207 -81 l 216 -81 l 216 -51 l 217 -51 l 237 -81 l 246 -81 z m 263 -34 l 252 -34 l 267 -57 l 252 -81 l 263 -81 l 273 -64 l 283 -81 l 294 -81 l 279 -57 l 294 -34 l 283 -34 l 273 -50 z m 298 -34 l 315 -64 l 315 -81 l 325 -81 l 325 -64 l 342 -34 l 331 -34 l 320 -54 l 309 -34 z m 386 -50 b 380 -37 385 -45 383 -41 b 366 -33 376 -35 371 -33 b 350 -39 359 -33 354 -35 b 344 -57 346 -43 344 -50 b 350 -75 344 -65 346 -71 b 366 -81 354 -79 359 -81 b 380 -77 372 -81 376 -80 b 386 -64 383 -73 385 -69 l 376 -64 b 366 -73 374 -70 371 -73 b 353 -57 357 -73 353 -67 b 366 -42 355 -47 359 -42 b 376 -50 371 -42 374 -45 z m 393 -81 l 423 -81 l 423 -73 l 404 -73 l 404 -34 l 393 -34 z m 471 -57 b 465 -39 471 -50 469 -43 b 449 -33 460 -35 456 -33 b 433 -39 443 -33 437 -35 b 427 -57 429 -43 427 -50 b 433 -75 427 -65 429 -71 b 449 -81 437 -79 443 -81 b 465 -75 456 -81 460 -79 b 471 -57 469 -71 471 -65 z m 481 -81 b 487 -76 484 -81 486 -79 b 481 -71 486 -73 484 -71 b 475 -76 478 -71 476 -73 b 481 -81 476 -79 478 -81 z m 536 -50 b 530 -37 536 -45 534 -41 b 516 -33 526 -35 522 -33 b 500 -39 510 -33 505 -35 b 494 -57 496 -43 494 -50 b 500 -75 494 -65 496 -71 b 516 -81 505 -79 510 -81 b 530 -77 522 -81 527 -80 b 536 -64 534 -73 536 -69 l 526 -64 b 516 -73 525 -70 522 -73 b 505 -57 508 -73 505 -67 b 516 -42 505 -47 509 -42 b 526 -50 522 -42 525 -45 z m 587 -57 b 581 -39 587 -50 585 -43 b 565 -33 576 -35 571 -33 b 549 -39 559 -33 553 -35 b 543 -57 545 -43 543 -50 b 549 -75 543 -65 545 -71 b 565 -81 553 -79 559 -81 b 581 -75 571 -81 576 -79 b 587 -57 585 -71 587 -65 z "},"E":{"ha":812,"x_min":0,"x_max":0,"o":"m 539 469 b 589 501 554 483 570 494 b 492 563 555 536 522 557 b 422 572 460 569 437 572 b 332 554 392 572 361 566 b 381 510 350 541 367 526 b 424 514 396 513 410 514 b 539 469 466 514 505 499 z m 306 249 b 338 342 328 277 338 308 b 306 433 338 375 328 406 b 279 382 292 416 283 398 b 274 341 276 366 274 352 b 278 309 274 330 275 319 b 306 249 283 288 292 267 z m 443 373 b 445 341 444 363 445 352 b 443 309 445 331 444 320 b 527 341 474 311 502 322 b 443 373 502 361 474 371 z m 289 231 b 256 292 271 252 260 273 b 250 341 252 312 250 328 b 254 380 250 354 251 368 b 289 452 260 406 271 430 b 239 481 274 465 258 475 b 192 342 208 439 192 392 b 239 201 192 291 208 244 b 266 214 248 204 257 209 b 289 231 274 219 281 224 z m 589 181 b 539 213 570 189 554 199 b 424 168 505 183 466 168 b 381 173 410 168 396 170 b 356 147 374 163 365 155 b 332 129 348 140 340 134 b 422 111 361 117 392 111 b 469 115 437 111 453 112 b 589 181 515 125 555 146 z m 577 -57 b 565 -73 576 -68 572 -73 b 553 -57 557 -73 553 -67 b 565 -42 554 -47 558 -42 b 577 -57 573 -42 577 -47 z m 193 844 l 193 865 l 202 865 b 213 854 210 864 213 861 b 202 844 213 848 210 844 z m 300 846 l 300 865 l 309 865 b 321 856 317 865 321 861 b 309 846 321 849 317 846 z m 443 845 b 427 825 442 831 437 825 b 412 845 417 825 412 831 b 427 865 412 858 418 865 b 443 845 438 865 443 858 z m 548 838 l 555 862 l 564 838 z m 433 760 b 418 739 433 746 427 739 b 401 760 407 739 401 746 b 418 780 403 773 408 780 b 433 760 429 779 433 772 z m 625 196 b 628 191 627 195 628 193 l 628 189 b 627 188 628 189 627 188 b 508 98 587 137 547 107 b 422 85 469 90 440 85 b 300 117 380 85 340 96 l 288 123 b 286 127 287 124 286 126 b 286 130 286 128 286 129 l 288 132 b 386 224 332 157 365 188 b 418 340 408 261 418 300 l 418 342 b 385 458 418 383 407 422 b 288 551 363 496 331 526 b 286 555 287 552 286 553 b 286 557 286 555 286 557 l 288 559 b 427 596 334 584 380 596 b 471 593 442 596 457 595 b 628 494 533 582 585 549 b 629 490 629 493 629 492 b 624 486 629 488 627 487 b 579 469 608 484 594 477 b 543 439 565 460 553 450 b 538 437 541 437 540 437 b 535 438 538 437 536 437 b 479 479 515 458 496 471 b 425 490 461 486 444 490 b 399 488 417 490 408 490 b 439 398 418 460 431 431 b 559 345 486 397 526 378 b 561 342 560 344 561 342 b 559 338 561 340 560 339 b 439 285 526 304 486 286 b 399 195 431 252 418 222 b 422 193 407 193 415 193 b 536 245 467 193 505 210 b 540 247 537 246 538 247 l 541 247 b 545 245 543 246 544 245 b 625 196 569 218 595 202 z m 228 176 b 167 342 187 227 167 282 b 229 507 167 401 187 456 b 232 509 229 509 231 509 b 234 509 233 509 233 509 b 337 433 281 494 316 469 b 363 344 354 406 363 376 l 363 342 b 336 250 362 309 353 279 b 233 174 315 214 280 189 l 232 174 b 228 176 231 174 229 174 z m 461 -57 b 449 -73 460 -68 456 -73 b 437 -57 441 -73 437 -67 b 449 -42 438 -47 442 -42 b 461 -57 457 -42 461 -47 z m 129 679 b 85 661 112 679 98 673 b 68 618 74 650 68 635 l 68 64 b 85 20 68 47 74 32 b 129 3 98 9 112 3 l 684 3 b 726 20 701 3 715 9 b 745 64 739 32 745 47 l 745 618 b 726 661 745 635 739 650 b 684 679 715 673 701 679 z m 595 -34 l 595 -81 l 604 -81 l 604 -50 l 604 -50 l 616 -81 l 623 -81 l 635 -50 l 635 -81 l 646 -81 l 646 -34 l 633 -34 l 620 -66 l 619 -66 l 607 -34 z m 180 814 l 193 814 l 193 834 l 204 834 b 220 840 211 834 216 836 b 227 854 224 844 227 848 b 204 876 226 869 218 876 l 180 876 z m 235 814 l 277 814 l 277 825 l 248 825 l 248 840 l 275 840 l 275 850 l 248 850 l 248 865 l 277 865 l 277 876 l 235 876 z m 288 814 l 300 814 l 300 836 l 310 836 l 321 814 l 336 814 l 323 838 b 334 856 330 841 334 847 b 312 876 333 869 326 876 l 288 876 z m 377 858 l 390 858 b 367 877 388 870 380 877 b 350 871 360 877 354 875 b 343 858 345 868 343 863 b 360 841 343 849 349 843 l 367 840 b 378 831 374 838 377 835 b 366 824 377 826 373 824 b 354 833 359 824 355 827 l 341 833 b 349 818 342 826 344 821 b 367 813 353 814 359 813 b 391 831 382 813 389 819 b 372 850 390 842 384 848 l 366 851 b 357 859 360 852 357 854 b 367 866 357 863 360 866 b 377 858 373 866 376 863 z m 456 845 b 448 868 456 854 454 863 b 427 877 443 873 435 877 b 406 868 419 877 412 873 b 398 845 401 863 398 854 b 406 821 398 835 401 827 b 427 813 412 816 419 813 b 448 821 435 813 443 816 b 456 845 454 827 456 835 z m 518 876 l 505 876 l 505 837 l 505 837 l 478 876 l 466 876 l 466 814 l 479 814 l 479 852 l 507 814 l 518 814 z m 540 814 l 545 827 l 566 827 l 571 814 l 585 814 l 564 876 l 547 876 l 526 814 z m 593 814 l 633 814 l 633 825 l 606 825 l 606 876 l 593 876 z m 237 791 l 237 751 b 225 739 237 743 233 739 b 212 751 216 741 212 744 l 212 791 l 199 791 l 199 750 b 206 734 199 743 201 738 b 225 728 211 730 217 728 b 243 734 233 728 239 730 b 251 750 248 738 251 743 l 251 791 z m 295 772 l 308 772 b 285 791 307 785 298 791 b 268 787 278 791 273 790 b 261 772 264 783 262 779 b 278 755 262 764 267 758 l 285 754 b 296 746 292 753 296 750 b 284 739 295 741 291 739 b 273 748 277 739 274 742 l 260 748 b 267 733 260 741 262 736 b 285 728 271 730 277 728 b 309 746 300 728 308 734 b 290 764 308 756 302 762 l 284 766 b 275 773 278 767 275 769 b 285 781 275 778 278 781 b 295 772 291 781 294 778 z m 318 728 l 359 728 l 359 739 l 331 739 l 331 754 l 357 754 l 357 765 l 331 765 l 331 780 l 359 780 l 359 791 l 318 791 z m 447 760 b 438 783 447 770 444 778 b 418 791 433 789 426 791 b 397 783 410 791 403 789 b 389 760 391 778 389 770 b 397 736 389 749 391 742 b 418 728 403 730 410 728 b 438 736 426 728 433 730 b 447 760 444 742 447 749 z m 509 791 l 496 791 l 496 751 l 495 751 l 468 791 l 456 791 l 456 728 l 469 728 l 469 768 l 470 768 l 497 728 l 509 728 z m 519 728 l 559 728 l 559 739 l 532 739 l 532 791 l 519 791 z m 556 791 l 579 751 l 579 728 l 592 728 l 592 751 l 614 791 l 600 791 l 586 764 l 585 764 l 571 791 z m 167 -81 l 199 -81 l 199 -73 l 177 -73 l 177 -61 l 197 -61 l 197 -53 l 177 -53 l 177 -42 l 199 -42 l 199 -34 l 167 -34 z m 246 -34 l 236 -34 l 236 -63 l 235 -63 l 215 -34 l 207 -34 l 207 -81 l 216 -81 l 216 -51 l 217 -51 l 237 -81 l 246 -81 z m 263 -34 l 252 -34 l 267 -57 l 252 -81 l 263 -81 l 273 -64 l 283 -81 l 294 -81 l 279 -57 l 294 -34 l 283 -34 l 273 -50 z m 298 -34 l 315 -64 l 315 -81 l 325 -81 l 325 -64 l 342 -34 l 331 -34 l 320 -54 l 309 -34 z m 386 -50 b 380 -37 385 -45 383 -41 b 366 -33 376 -35 371 -33 b 350 -39 359 -33 354 -35 b 344 -57 346 -43 344 -50 b 350 -75 344 -65 346 -71 b 366 -81 354 -79 359 -81 b 380 -77 372 -81 376 -80 b 386 -64 383 -73 385 -69 l 376 -64 b 366 -73 374 -70 371 -73 b 353 -57 357 -73 353 -67 b 366 -42 355 -47 359 -42 b 376 -50 371 -42 374 -45 z m 393 -81 l 423 -81 l 423 -73 l 404 -73 l 404 -34 l 393 -34 z m 471 -57 b 465 -39 471 -50 469 -43 b 449 -33 460 -35 456 -33 b 433 -39 443 -33 437 -35 b 427 -57 429 -43 427 -50 b 433 -75 427 -65 429 -71 b 449 -81 437 -79 443 -81 b 465 -75 456 -81 460 -79 b 471 -57 469 -71 471 -65 z m 481 -81 b 487 -76 484 -81 486 -79 b 481 -71 486 -73 484 -71 b 475 -76 478 -71 476 -73 b 481 -81 476 -79 478 -81 z m 536 -50 b 530 -37 536 -45 534 -41 b 516 -33 526 -35 522 -33 b 500 -39 510 -33 505 -35 b 494 -57 496 -43 494 -50 b 500 -75 494 -65 496 -71 b 516 -81 505 -79 510 -81 b 530 -77 522 -81 527 -80 b 536 -64 534 -73 536 -69 l 526 -64 b 516 -73 525 -70 522 -73 b 505 -57 508 -73 505 -67 b 516 -42 505 -47 509 -42 b 526 -50 522 -42 525 -45 z m 587 -57 b 581 -39 587 -50 585 -43 b 565 -33 576 -35 571 -33 b 549 -39 559 -33 553 -35 b 543 -57 545 -43 543 -50 b 549 -75 543 -65 545 -71 b 565 -81 553 -79 559 -81 b 581 -75 571 -81 576 -79 b 587 -57 585 -71 587 -65 z "},"F":{"ha":812,"x_min":0,"x_max":0,"o":"m 539 469 b 589 501 554 483 570 494 b 492 563 555 536 522 557 b 422 572 460 569 437 572 b 332 554 392 572 361 566 b 381 510 350 541 367 526 b 424 514 396 513 410 514 b 539 469 466 514 505 499 z m 306 249 b 338 342 328 277 338 308 b 306 433 338 375 328 406 b 279 382 292 416 283 398 b 274 341 276 366 274 352 b 278 309 274 330 275 319 b 306 249 283 288 292 267 z m 443 373 b 445 341 444 363 445 352 b 443 309 445 331 444 320 b 527 341 474 311 502 322 b 443 373 502 361 474 371 z m 289 231 b 256 292 271 252 260 273 b 250 341 252 312 250 328 b 254 380 250 354 251 368 b 289 452 260 406 271 430 b 239 481 274 465 258 475 b 192 342 208 439 192 392 b 239 201 192 291 208 244 b 266 214 248 204 257 209 b 289 231 274 219 281 224 z m 589 181 b 539 213 570 189 554 199 b 424 168 505 183 466 168 b 381 173 410 168 396 170 b 356 147 374 163 365 155 b 332 129 348 140 340 134 b 422 111 361 117 392 111 b 469 115 437 111 453 112 b 589 181 515 125 555 146 z m 577 -57 b 565 -73 576 -68 572 -73 b 553 -57 557 -73 553 -67 b 565 -42 554 -47 558 -42 b 577 -57 573 -42 577 -47 z m 193 844 l 193 865 l 202 865 b 213 854 210 864 213 861 b 202 844 213 848 210 844 z m 300 846 l 300 865 l 309 865 b 321 856 317 865 321 861 b 309 846 321 849 317 846 z m 443 845 b 427 825 442 831 437 825 b 412 845 417 825 412 831 b 427 865 412 858 418 865 b 443 845 438 865 443 858 z m 548 838 l 555 862 l 564 838 z m 433 760 b 418 739 433 746 427 739 b 401 760 407 739 401 746 b 418 780 403 773 408 780 b 433 760 429 779 433 772 z m 625 196 b 628 191 627 195 628 193 l 628 189 b 627 188 628 189 627 188 b 508 98 587 137 547 107 b 422 85 469 90 440 85 b 300 117 380 85 340 96 l 288 123 b 286 127 287 124 286 126 b 286 130 286 128 286 129 l 288 132 b 386 224 332 157 365 188 b 418 340 408 261 418 300 l 418 342 b 385 458 418 383 407 422 b 288 551 363 496 331 526 b 286 555 287 552 286 553 b 286 557 286 555 286 557 l 288 559 b 427 596 334 584 380 596 b 471 593 442 596 457 595 b 628 494 533 582 585 549 b 629 490 629 493 629 492 b 624 486 629 488 627 487 b 579 469 608 484 594 477 b 543 439 565 460 553 450 b 538 437 541 437 540 437 b 535 438 538 437 536 437 b 479 479 515 458 496 471 b 425 490 461 486 444 490 b 399 488 417 490 408 490 b 439 398 418 460 431 431 b 559 345 486 397 526 378 b 561 342 560 344 561 342 b 559 338 561 340 560 339 b 439 285 526 304 486 286 b 399 195 431 252 418 222 b 422 193 407 193 415 193 b 536 245 467 193 505 210 b 540 247 537 246 538 247 l 541 247 b 545 245 543 246 544 245 b 625 196 569 218 595 202 z m 228 176 b 167 342 187 227 167 282 b 229 507 167 401 187 456 b 232 509 229 509 231 509 b 234 509 233 509 233 509 b 337 433 281 494 316 469 b 363 344 354 406 363 376 l 363 342 b 336 250 362 309 353 279 b 233 174 315 214 280 189 l 232 174 b 228 176 231 174 229 174 z m 461 -57 b 449 -73 460 -68 456 -73 b 437 -57 441 -73 437 -67 b 449 -42 438 -47 442 -42 b 461 -57 457 -42 461 -47 z m 129 679 b 85 661 112 679 98 673 b 68 618 74 650 68 635 l 68 64 b 85 20 68 47 74 32 b 129 3 98 9 112 3 l 684 3 b 726 20 701 3 715 9 b 745 64 739 32 745 47 l 745 618 b 726 661 745 635 739 650 b 684 679 715 673 701 679 z m 595 -34 l 595 -81 l 604 -81 l 604 -50 l 604 -50 l 616 -81 l 623 -81 l 635 -50 l 635 -81 l 646 -81 l 646 -34 l 633 -34 l 620 -66 l 619 -66 l 607 -34 z m 180 814 l 193 814 l 193 834 l 204 834 b 220 840 211 834 216 836 b 227 854 224 844 227 848 b 204 876 226 869 218 876 l 180 876 z m 235 814 l 277 814 l 277 825 l 248 825 l 248 840 l 275 840 l 275 850 l 248 850 l 248 865 l 277 865 l 277 876 l 235 876 z m 288 814 l 300 814 l 300 836 l 310 836 l 321 814 l 336 814 l 323 838 b 334 856 330 841 334 847 b 312 876 333 869 326 876 l 288 876 z m 377 858 l 390 858 b 367 877 388 870 380 877 b 350 871 360 877 354 875 b 343 858 345 868 343 863 b 360 841 343 849 349 843 l 367 840 b 378 831 374 838 377 835 b 366 824 377 826 373 824 b 354 833 359 824 355 827 l 341 833 b 349 818 342 826 344 821 b 367 813 353 814 359 813 b 391 831 382 813 389 819 b 372 850 390 842 384 848 l 366 851 b 357 859 360 852 357 854 b 367 866 357 863 360 866 b 377 858 373 866 376 863 z m 456 845 b 448 868 456 854 454 863 b 427 877 443 873 435 877 b 406 868 419 877 412 873 b 398 845 401 863 398 854 b 406 821 398 835 401 827 b 427 813 412 816 419 813 b 448 821 435 813 443 816 b 456 845 454 827 456 835 z m 518 876 l 505 876 l 505 837 l 505 837 l 478 876 l 466 876 l 466 814 l 479 814 l 479 852 l 507 814 l 518 814 z m 540 814 l 545 827 l 566 827 l 571 814 l 585 814 l 564 876 l 547 876 l 526 814 z m 593 814 l 633 814 l 633 825 l 606 825 l 606 876 l 593 876 z m 237 791 l 237 751 b 225 739 237 743 233 739 b 212 751 216 741 212 744 l 212 791 l 199 791 l 199 750 b 206 734 199 743 201 738 b 225 728 211 730 217 728 b 243 734 233 728 239 730 b 251 750 248 738 251 743 l 251 791 z m 295 772 l 308 772 b 285 791 307 785 298 791 b 268 787 278 791 273 790 b 261 772 264 783 262 779 b 278 755 262 764 267 758 l 285 754 b 296 746 292 753 296 750 b 284 739 295 741 291 739 b 273 748 277 739 274 742 l 260 748 b 267 733 260 741 262 736 b 285 728 271 730 277 728 b 309 746 300 728 308 734 b 290 764 308 756 302 762 l 284 766 b 275 773 278 767 275 769 b 285 781 275 778 278 781 b 295 772 291 781 294 778 z m 318 728 l 359 728 l 359 739 l 331 739 l 331 754 l 357 754 l 357 765 l 331 765 l 331 780 l 359 780 l 359 791 l 318 791 z m 447 760 b 438 783 447 770 444 778 b 418 791 433 789 426 791 b 397 783 410 791 403 789 b 389 760 391 778 389 770 b 397 736 389 749 391 742 b 418 728 403 730 410 728 b 438 736 426 728 433 730 b 447 760 444 742 447 749 z m 509 791 l 496 791 l 496 751 l 495 751 l 468 791 l 456 791 l 456 728 l 469 728 l 469 768 l 470 768 l 497 728 l 509 728 z m 519 728 l 559 728 l 559 739 l 532 739 l 532 791 l 519 791 z m 556 791 l 579 751 l 579 728 l 592 728 l 592 751 l 614 791 l 600 791 l 586 764 l 585 764 l 571 791 z m 167 -81 l 199 -81 l 199 -73 l 177 -73 l 177 -61 l 197 -61 l 197 -53 l 177 -53 l 177 -42 l 199 -42 l 199 -34 l 167 -34 z m 246 -34 l 236 -34 l 236 -63 l 235 -63 l 215 -34 l 207 -34 l 207 -81 l 216 -81 l 216 -51 l 217 -51 l 237 -81 l 246 -81 z m 263 -34 l 252 -34 l 267 -57 l 252 -81 l 263 -81 l 273 -64 l 283 -81 l 294 -81 l 279 -57 l 294 -34 l 283 -34 l 273 -50 z m 298 -34 l 315 -64 l 315 -81 l 325 -81 l 325 -64 l 342 -34 l 331 -34 l 320 -54 l 309 -34 z m 386 -50 b 380 -37 385 -45 383 -41 b 366 -33 376 -35 371 -33 b 350 -39 359 -33 354 -35 b 344 -57 346 -43 344 -50 b 350 -75 344 -65 346 -71 b 366 -81 354 -79 359 -81 b 380 -77 372 -81 376 -80 b 386 -64 383 -73 385 -69 l 376 -64 b 366 -73 374 -70 371 -73 b 353 -57 357 -73 353 -67 b 366 -42 355 -47 359 -42 b 376 -50 371 -42 374 -45 z m 393 -81 l 423 -81 l 423 -73 l 404 -73 l 404 -34 l 393 -34 z m 471 -57 b 465 -39 471 -50 469 -43 b 449 -33 460 -35 456 -33 b 433 -39 443 -33 437 -35 b 427 -57 429 -43 427 -50 b 433 -75 427 -65 429 -71 b 449 -81 437 -79 443 -81 b 465 -75 456 -81 460 -79 b 471 -57 469 -71 471 -65 z m 481 -81 b 487 -76 484 -81 486 -79 b 481 -71 486 -73 484 -71 b 475 -76 478 -71 476 -73 b 481 -81 476 -79 478 -81 z m 536 -50 b 530 -37 536 -45 534 -41 b 516 -33 526 -35 522 -33 b 500 -39 510 -33 505 -35 b 494 -57 496 -43 494 -50 b 500 -75 494 -65 496 -71 b 516 -81 505 -79 510 -81 b 530 -77 522 -81 527 -80 b 536 -64 534 -73 536 -69 l 526 -64 b 516 -73 525 -70 522 -73 b 505 -57 508 -73 505 -67 b 516 -42 505 -47 509 -42 b 526 -50 522 -42 525 -45 z m 587 -57 b 581 -39 587 -50 585 -43 b 565 -33 576 -35 571 -33 b 549 -39 559 -33 553 -35 b 543 -57 545 -43 543 -50 b 549 -75 543 -65 545 -71 b 565 -81 553 -79 559 -81 b 581 -75 571 -81 576 -79 b 587 -57 585 -71 587 -65 z "},"G":{"ha":812,"x_min":0,"x_max":0,"o":"m 539 469 b 589 501 554 483 570 494 b 492 563 555 536 522 557 b 422 572 460 569 437 572 b 332 554 392 572 361 566 b 381 510 350 541 367 526 b 424 514 396 513 410 514 b 539 469 466 514 505 499 z m 306 249 b 338 342 328 277 338 308 b 306 433 338 375 328 406 b 279 382 292 416 283 398 b 274 341 276 366 274 352 b 278 309 274 330 275 319 b 306 249 283 288 292 267 z m 443 373 b 445 341 444 363 445 352 b 443 309 445 331 444 320 b 527 341 474 311 502 322 b 443 373 502 361 474 371 z m 289 231 b 256 292 271 252 260 273 b 250 341 252 312 250 328 b 254 380 250 354 251 368 b 289 452 260 406 271 430 b 239 481 274 465 258 475 b 192 342 208 439 192 392 b 239 201 192 291 208 244 b 266 214 248 204 257 209 b 289 231 274 219 281 224 z m 589 181 b 539 213 570 189 554 199 b 424 168 505 183 466 168 b 381 173 410 168 396 170 b 356 147 374 163 365 155 b 332 129 348 140 340 134 b 422 111 361 117 392 111 b 469 115 437 111 453 112 b 589 181 515 125 555 146 z m 577 -57 b 565 -73 576 -68 572 -73 b 553 -57 557 -73 553 -67 b 565 -42 554 -47 558 -42 b 577 -57 573 -42 577 -47 z m 193 844 l 193 865 l 202 865 b 213 854 210 864 213 861 b 202 844 213 848 210 844 z m 300 846 l 300 865 l 309 865 b 321 856 317 865 321 861 b 309 846 321 849 317 846 z m 443 845 b 427 825 442 831 437 825 b 412 845 417 825 412 831 b 427 865 412 858 418 865 b 443 845 438 865 443 858 z m 548 838 l 555 862 l 564 838 z m 433 760 b 418 739 433 746 427 739 b 401 760 407 739 401 746 b 418 780 403 773 408 780 b 433 760 429 779 433 772 z m 625 196 b 628 191 627 195 628 193 l 628 189 b 627 188 628 189 627 188 b 508 98 587 137 547 107 b 422 85 469 90 440 85 b 300 117 380 85 340 96 l 288 123 b 286 127 287 124 286 126 b 286 130 286 128 286 129 l 288 132 b 386 224 332 157 365 188 b 418 340 408 261 418 300 l 418 342 b 385 458 418 383 407 422 b 288 551 363 496 331 526 b 286 555 287 552 286 553 b 286 557 286 555 286 557 l 288 559 b 427 596 334 584 380 596 b 471 593 442 596 457 595 b 628 494 533 582 585 549 b 629 490 629 493 629 492 b 624 486 629 488 627 487 b 579 469 608 484 594 477 b 543 439 565 460 553 450 b 538 437 541 437 540 437 b 535 438 538 437 536 437 b 479 479 515 458 496 471 b 425 490 461 486 444 490 b 399 488 417 490 408 490 b 439 398 418 460 431 431 b 559 345 486 397 526 378 b 561 342 560 344 561 342 b 559 338 561 340 560 339 b 439 285 526 304 486 286 b 399 195 431 252 418 222 b 422 193 407 193 415 193 b 536 245 467 193 505 210 b 540 247 537 246 538 247 l 541 247 b 545 245 543 246 544 245 b 625 196 569 218 595 202 z m 228 176 b 167 342 187 227 167 282 b 229 507 167 401 187 456 b 232 509 229 509 231 509 b 234 509 233 509 233 509 b 337 433 281 494 316 469 b 363 344 354 406 363 376 l 363 342 b 336 250 362 309 353 279 b 233 174 315 214 280 189 l 232 174 b 228 176 231 174 229 174 z m 461 -57 b 449 -73 460 -68 456 -73 b 437 -57 441 -73 437 -67 b 449 -42 438 -47 442 -42 b 461 -57 457 -42 461 -47 z m 129 679 b 85 661 112 679 98 673 b 68 618 74 650 68 635 l 68 64 b 85 20 68 47 74 32 b 129 3 98 9 112 3 l 684 3 b 726 20 701 3 715 9 b 745 64 739 32 745 47 l 745 618 b 726 661 745 635 739 650 b 684 679 715 673 701 679 z m 595 -34 l 595 -81 l 604 -81 l 604 -50 l 604 -50 l 616 -81 l 623 -81 l 635 -50 l 635 -81 l 646 -81 l 646 -34 l 633 -34 l 620 -66 l 619 -66 l 607 -34 z m 180 814 l 193 814 l 193 834 l 204 834 b 220 840 211 834 216 836 b 227 854 224 844 227 848 b 204 876 226 869 218 876 l 180 876 z m 235 814 l 277 814 l 277 825 l 248 825 l 248 840 l 275 840 l 275 850 l 248 850 l 248 865 l 277 865 l 277 876 l 235 876 z m 288 814 l 300 814 l 300 836 l 310 836 l 321 814 l 336 814 l 323 838 b 334 856 330 841 334 847 b 312 876 333 869 326 876 l 288 876 z m 377 858 l 390 858 b 367 877 388 870 380 877 b 350 871 360 877 354 875 b 343 858 345 868 343 863 b 360 841 343 849 349 843 l 367 840 b 378 831 374 838 377 835 b 366 824 377 826 373 824 b 354 833 359 824 355 827 l 341 833 b 349 818 342 826 344 821 b 367 813 353 814 359 813 b 391 831 382 813 389 819 b 372 850 390 842 384 848 l 366 851 b 357 859 360 852 357 854 b 367 866 357 863 360 866 b 377 858 373 866 376 863 z m 456 845 b 448 868 456 854 454 863 b 427 877 443 873 435 877 b 406 868 419 877 412 873 b 398 845 401 863 398 854 b 406 821 398 835 401 827 b 427 813 412 816 419 813 b 448 821 435 813 443 816 b 456 845 454 827 456 835 z m 518 876 l 505 876 l 505 837 l 505 837 l 478 876 l 466 876 l 466 814 l 479 814 l 479 852 l 507 814 l 518 814 z m 540 814 l 545 827 l 566 827 l 571 814 l 585 814 l 564 876 l 547 876 l 526 814 z m 593 814 l 633 814 l 633 825 l 606 825 l 606 876 l 593 876 z m 237 791 l 237 751 b 225 739 237 743 233 739 b 212 751 216 741 212 744 l 212 791 l 199 791 l 199 750 b 206 734 199 743 201 738 b 225 728 211 730 217 728 b 243 734 233 728 239 730 b 251 750 248 738 251 743 l 251 791 z m 295 772 l 308 772 b 285 791 307 785 298 791 b 268 787 278 791 273 790 b 261 772 264 783 262 779 b 278 755 262 764 267 758 l 285 754 b 296 746 292 753 296 750 b 284 739 295 741 291 739 b 273 748 277 739 274 742 l 260 748 b 267 733 260 741 262 736 b 285 728 271 730 277 728 b 309 746 300 728 308 734 b 290 764 308 756 302 762 l 284 766 b 275 773 278 767 275 769 b 285 781 275 778 278 781 b 295 772 291 781 294 778 z m 318 728 l 359 728 l 359 739 l 331 739 l 331 754 l 357 754 l 357 765 l 331 765 l 331 780 l 359 780 l 359 791 l 318 791 z m 447 760 b 438 783 447 770 444 778 b 418 791 433 789 426 791 b 397 783 410 791 403 789 b 389 760 391 778 389 770 b 397 736 389 749 391 742 b 418 728 403 730 410 728 b 438 736 426 728 433 730 b 447 760 444 742 447 749 z m 509 791 l 496 791 l 496 751 l 495 751 l 468 791 l 456 791 l 456 728 l 469 728 l 469 768 l 470 768 l 497 728 l 509 728 z m 519 728 l 559 728 l 559 739 l 532 739 l 532 791 l 519 791 z m 556 791 l 579 751 l 579 728 l 592 728 l 592 751 l 614 791 l 600 791 l 586 764 l 585 764 l 571 791 z m 167 -81 l 199 -81 l 199 -73 l 177 -73 l 177 -61 l 197 -61 l 197 -53 l 177 -53 l 177 -42 l 199 -42 l 199 -34 l 167 -34 z m 246 -34 l 236 -34 l 236 -63 l 235 -63 l 215 -34 l 207 -34 l 207 -81 l 216 -81 l 216 -51 l 217 -51 l 237 -81 l 246 -81 z m 263 -34 l 252 -34 l 267 -57 l 252 -81 l 263 -81 l 273 -64 l 283 -81 l 294 -81 l 279 -57 l 294 -34 l 283 -34 l 273 -50 z m 298 -34 l 315 -64 l 315 -81 l 325 -81 l 325 -64 l 342 -34 l 331 -34 l 320 -54 l 309 -34 z m 386 -50 b 380 -37 385 -45 383 -41 b 366 -33 376 -35 371 -33 b 350 -39 359 -33 354 -35 b 344 -57 346 -43 344 -50 b 350 -75 344 -65 346 -71 b 366 -81 354 -79 359 -81 b 380 -77 372 -81 376 -80 b 386 -64 383 -73 385 -69 l 376 -64 b 366 -73 374 -70 371 -73 b 353 -57 357 -73 353 -67 b 366 -42 355 -47 359 -42 b 376 -50 371 -42 374 -45 z m 393 -81 l 423 -81 l 423 -73 l 404 -73 l 404 -34 l 393 -34 z m 471 -57 b 465 -39 471 -50 469 -43 b 449 -33 460 -35 456 -33 b 433 -39 443 -33 437 -35 b 427 -57 429 -43 427 -50 b 433 -75 427 -65 429 -71 b 449 -81 437 -79 443 -81 b 465 -75 456 -81 460 -79 b 471 -57 469 -71 471 -65 z m 481 -81 b 487 -76 484 -81 486 -79 b 481 -71 486 -73 484 -71 b 475 -76 478 -71 476 -73 b 481 -81 476 -79 478 -81 z m 536 -50 b 530 -37 536 -45 534 -41 b 516 -33 526 -35 522 -33 b 500 -39 510 -33 505 -35 b 494 -57 496 -43 494 -50 b 500 -75 494 -65 496 -71 b 516 -81 505 -79 510 -81 b 530 -77 522 -81 527 -80 b 536 -64 534 -73 536 -69 l 526 -64 b 516 -73 525 -70 522 -73 b 505 -57 508 -73 505 -67 b 516 -42 505 -47 509 -42 b 526 -50 522 -42 525 -45 z m 587 -57 b 581 -39 587 -50 585 -43 b 565 -33 576 -35 571 -33 b 549 -39 559 -33 553 -35 b 543 -57 545 -43 543 -50 b 549 -75 543 -65 545 -71 b 565 -81 553 -79 559 -81 b 581 -75 571 -81 576 -79 b 587 -57 585 -71 587 -65 z "},"H":{"ha":812,"x_min":0,"x_max":0,"o":"m 539 469 b 589 501 554 483 570 494 b 492 563 555 536 522 557 b 422 572 460 569 437 572 b 332 554 392 572 361 566 b 381 510 350 541 367 526 b 424 514 396 513 410 514 b 539 469 466 514 505 499 z m 306 249 b 338 342 328 277 338 308 b 306 433 338 375 328 406 b 279 382 292 416 283 398 b 274 341 276 366 274 352 b 278 309 274 330 275 319 b 306 249 283 288 292 267 z m 443 373 b 445 341 444 363 445 352 b 443 309 445 331 444 320 b 527 341 474 311 502 322 b 443 373 502 361 474 371 z m 289 231 b 256 292 271 252 260 273 b 250 341 252 312 250 328 b 254 380 250 354 251 368 b 289 452 260 406 271 430 b 239 481 274 465 258 475 b 192 342 208 439 192 392 b 239 201 192 291 208 244 b 266 214 248 204 257 209 b 289 231 274 219 281 224 z m 589 181 b 539 213 570 189 554 199 b 424 168 505 183 466 168 b 381 173 410 168 396 170 b 356 147 374 163 365 155 b 332 129 348 140 340 134 b 422 111 361 117 392 111 b 469 115 437 111 453 112 b 589 181 515 125 555 146 z m 577 -57 b 565 -73 576 -68 572 -73 b 553 -57 557 -73 553 -67 b 565 -42 554 -47 558 -42 b 577 -57 573 -42 577 -47 z m 193 844 l 193 865 l 202 865 b 213 854 210 864 213 861 b 202 844 213 848 210 844 z m 300 846 l 300 865 l 309 865 b 321 856 317 865 321 861 b 309 846 321 849 317 846 z m 443 845 b 427 825 442 831 437 825 b 412 845 417 825 412 831 b 427 865 412 858 418 865 b 443 845 438 865 443 858 z m 548 838 l 555 862 l 564 838 z m 433 760 b 418 739 433 746 427 739 b 401 760 407 739 401 746 b 418 780 403 773 408 780 b 433 760 429 779 433 772 z m 625 196 b 628 191 627 195 628 193 l 628 189 b 627 188 628 189 627 188 b 508 98 587 137 547 107 b 422 85 469 90 440 85 b 300 117 380 85 340 96 l 288 123 b 286 127 287 124 286 126 b 286 130 286 128 286 129 l 288 132 b 386 224 332 157 365 188 b 418 340 408 261 418 300 l 418 342 b 385 458 418 383 407 422 b 288 551 363 496 331 526 b 286 555 287 552 286 553 b 286 557 286 555 286 557 l 288 559 b 427 596 334 584 380 596 b 471 593 442 596 457 595 b 628 494 533 582 585 549 b 629 490 629 493 629 492 b 624 486 629 488 627 487 b 579 469 608 484 594 477 b 543 439 565 460 553 450 b 538 437 541 437 540 437 b 535 438 538 437 536 437 b 479 479 515 458 496 471 b 425 490 461 486 444 490 b 399 488 417 490 408 490 b 439 398 418 460 431 431 b 559 345 486 397 526 378 b 561 342 560 344 561 342 b 559 338 561 340 560 339 b 439 285 526 304 486 286 b 399 195 431 252 418 222 b 422 193 407 193 415 193 b 536 245 467 193 505 210 b 540 247 537 246 538 247 l 541 247 b 545 245 543 246 544 245 b 625 196 569 218 595 202 z m 228 176 b 167 342 187 227 167 282 b 229 507 167 401 187 456 b 232 509 229 509 231 509 b 234 509 233 509 233 509 b 337 433 281 494 316 469 b 363 344 354 406 363 376 l 363 342 b 336 250 362 309 353 279 b 233 174 315 214 280 189 l 232 174 b 228 176 231 174 229 174 z m 461 -57 b 449 -73 460 -68 456 -73 b 437 -57 441 -73 437 -67 b 449 -42 438 -47 442 -42 b 461 -57 457 -42 461 -47 z m 129 679 b 85 661 112 679 98 673 b 68 618 74 650 68 635 l 68 64 b 85 20 68 47 74 32 b 129 3 98 9 112 3 l 684 3 b 726 20 701 3 715 9 b 745 64 739 32 745 47 l 745 618 b 726 661 745 635 739 650 b 684 679 715 673 701 679 z m 595 -34 l 595 -81 l 604 -81 l 604 -50 l 604 -50 l 616 -81 l 623 -81 l 635 -50 l 635 -81 l 646 -81 l 646 -34 l 633 -34 l 620 -66 l 619 -66 l 607 -34 z m 180 814 l 193 814 l 193 834 l 204 834 b 220 840 211 834 216 836 b 227 854 224 844 227 848 b 204 876 226 869 218 876 l 180 876 z m 235 814 l 277 814 l 277 825 l 248 825 l 248 840 l 275 840 l 275 850 l 248 850 l 248 865 l 277 865 l 277 876 l 235 876 z m 288 814 l 300 814 l 300 836 l 310 836 l 321 814 l 336 814 l 323 838 b 334 856 330 841 334 847 b 312 876 333 869 326 876 l 288 876 z m 377 858 l 390 858 b 367 877 388 870 380 877 b 350 871 360 877 354 875 b 343 858 345 868 343 863 b 360 841 343 849 349 843 l 367 840 b 378 831 374 838 377 835 b 366 824 377 826 373 824 b 354 833 359 824 355 827 l 341 833 b 349 818 342 826 344 821 b 367 813 353 814 359 813 b 391 831 382 813 389 819 b 372 850 390 842 384 848 l 366 851 b 357 859 360 852 357 854 b 367 866 357 863 360 866 b 377 858 373 866 376 863 z m 456 845 b 448 868 456 854 454 863 b 427 877 443 873 435 877 b 406 868 419 877 412 873 b 398 845 401 863 398 854 b 406 821 398 835 401 827 b 427 813 412 816 419 813 b 448 821 435 813 443 816 b 456 845 454 827 456 835 z m 518 876 l 505 876 l 505 837 l 505 837 l 478 876 l 466 876 l 466 814 l 479 814 l 479 852 l 507 814 l 518 814 z m 540 814 l 545 827 l 566 827 l 571 814 l 585 814 l 564 876 l 547 876 l 526 814 z m 593 814 l 633 814 l 633 825 l 606 825 l 606 876 l 593 876 z m 237 791 l 237 751 b 225 739 237 743 233 739 b 212 751 216 741 212 744 l 212 791 l 199 791 l 199 750 b 206 734 199 743 201 738 b 225 728 211 730 217 728 b 243 734 233 728 239 730 b 251 750 248 738 251 743 l 251 791 z m 295 772 l 308 772 b 285 791 307 785 298 791 b 268 787 278 791 273 790 b 261 772 264 783 262 779 b 278 755 262 764 267 758 l 285 754 b 296 746 292 753 296 750 b 284 739 295 741 291 739 b 273 748 277 739 274 742 l 260 748 b 267 733 260 741 262 736 b 285 728 271 730 277 728 b 309 746 300 728 308 734 b 290 764 308 756 302 762 l 284 766 b 275 773 278 767 275 769 b 285 781 275 778 278 781 b 295 772 291 781 294 778 z m 318 728 l 359 728 l 359 739 l 331 739 l 331 754 l 357 754 l 357 765 l 331 765 l 331 780 l 359 780 l 359 791 l 318 791 z m 447 760 b 438 783 447 770 444 778 b 418 791 433 789 426 791 b 397 783 410 791 403 789 b 389 760 391 778 389 770 b 397 736 389 749 391 742 b 418 728 403 730 410 728 b 438 736 426 728 433 730 b 447 760 444 742 447 749 z m 509 791 l 496 791 l 496 751 l 495 751 l 468 791 l 456 791 l 456 728 l 469 728 l 469 768 l 470 768 l 497 728 l 509 728 z m 519 728 l 559 728 l 559 739 l 532 739 l 532 791 l 519 791 z m 556 791 l 579 751 l 579 728 l 592 728 l 592 751 l 614 791 l 600 791 l 586 764 l 585 764 l 571 791 z m 167 -81 l 199 -81 l 199 -73 l 177 -73 l 177 -61 l 197 -61 l 197 -53 l 177 -53 l 177 -42 l 199 -42 l 199 -34 l 167 -34 z m 246 -34 l 236 -34 l 236 -63 l 235 -63 l 215 -34 l 207 -34 l 207 -81 l 216 -81 l 216 -51 l 217 -51 l 237 -81 l 246 -81 z m 263 -34 l 252 -34 l 267 -57 l 252 -81 l 263 -81 l 273 -64 l 283 -81 l 294 -81 l 279 -57 l 294 -34 l 283 -34 l 273 -50 z m 298 -34 l 315 -64 l 315 -81 l 325 -81 l 325 -64 l 342 -34 l 331 -34 l 320 -54 l 309 -34 z m 386 -50 b 380 -37 385 -45 383 -41 b 366 -33 376 -35 371 -33 b 350 -39 359 -33 354 -35 b 344 -57 346 -43 344 -50 b 350 -75 344 -65 346 -71 b 366 -81 354 -79 359 -81 b 380 -77 372 -81 376 -80 b 386 -64 383 -73 385 -69 l 376 -64 b 366 -73 374 -70 371 -73 b 353 -57 357 -73 353 -67 b 366 -42 355 -47 359 -42 b 376 -50 371 -42 374 -45 z m 393 -81 l 423 -81 l 423 -73 l 404 -73 l 404 -34 l 393 -34 z m 471 -57 b 465 -39 471 -50 469 -43 b 449 -33 460 -35 456 -33 b 433 -39 443 -33 437 -35 b 427 -57 429 -43 427 -50 b 433 -75 427 -65 429 -71 b 449 -81 437 -79 443 -81 b 465 -75 456 -81 460 -79 b 471 -57 469 -71 471 -65 z m 481 -81 b 487 -76 484 -81 486 -79 b 481 -71 486 -73 484 -71 b 475 -76 478 -71 476 -73 b 481 -81 476 -79 478 -81 z m 536 -50 b 530 -37 536 -45 534 -41 b 516 -33 526 -35 522 -33 b 500 -39 510 -33 505 -35 b 494 -57 496 -43 494 -50 b 500 -75 494 -65 496 -71 b 516 -81 505 -79 510 -81 b 530 -77 522 -81 527 -80 b 536 -64 534 -73 536 -69 l 526 -64 b 516 -73 525 -70 522 -73 b 505 -57 508 -73 505 -67 b 516 -42 505 -47 509 -42 b 526 -50 522 -42 525 -45 z m 587 -57 b 581 -39 587 -50 585 -43 b 565 -33 576 -35 571 -33 b 549 -39 559 -33 553 -35 b 543 -57 545 -43 543 -50 b 549 -75 543 -65 545 -71 b 565 -81 553 -79 559 -81 b 581 -75 571 -81 576 -79 b 587 -57 585 -71 587 -65 z "},"I":{"ha":812,"x_min":0,"x_max":0,"o":"m 539 469 b 589 501 554 483 570 494 b 492 563 555 536 522 557 b 422 572 460 569 437 572 b 332 554 392 572 361 566 b 381 510 350 541 367 526 b 424 514 396 513 410 514 b 539 469 466 514 505 499 z m 306 249 b 338 342 328 277 338 308 b 306 433 338 375 328 406 b 279 382 292 416 283 398 b 274 341 276 366 274 352 b 278 309 274 330 275 319 b 306 249 283 288 292 267 z m 443 373 b 445 341 444 363 445 352 b 443 309 445 331 444 320 b 527 341 474 311 502 322 b 443 373 502 361 474 371 z m 289 231 b 256 292 271 252 260 273 b 250 341 252 312 250 328 b 254 380 250 354 251 368 b 289 452 260 406 271 430 b 239 481 274 465 258 475 b 192 342 208 439 192 392 b 239 201 192 291 208 244 b 266 214 248 204 257 209 b 289 231 274 219 281 224 z m 589 181 b 539 213 570 189 554 199 b 424 168 505 183 466 168 b 381 173 410 168 396 170 b 356 147 374 163 365 155 b 332 129 348 140 340 134 b 422 111 361 117 392 111 b 469 115 437 111 453 112 b 589 181 515 125 555 146 z m 577 -57 b 565 -73 576 -68 572 -73 b 553 -57 557 -73 553 -67 b 565 -42 554 -47 558 -42 b 577 -57 573 -42 577 -47 z m 193 844 l 193 865 l 202 865 b 213 854 210 864 213 861 b 202 844 213 848 210 844 z m 300 846 l 300 865 l 309 865 b 321 856 317 865 321 861 b 309 846 321 849 317 846 z m 443 845 b 427 825 442 831 437 825 b 412 845 417 825 412 831 b 427 865 412 858 418 865 b 443 845 438 865 443 858 z m 548 838 l 555 862 l 564 838 z m 433 760 b 418 739 433 746 427 739 b 401 760 407 739 401 746 b 418 780 403 773 408 780 b 433 760 429 779 433 772 z m 625 196 b 628 191 627 195 628 193 l 628 189 b 627 188 628 189 627 188 b 508 98 587 137 547 107 b 422 85 469 90 440 85 b 300 117 380 85 340 96 l 288 123 b 286 127 287 124 286 126 b 286 130 286 128 286 129 l 288 132 b 386 224 332 157 365 188 b 418 340 408 261 418 300 l 418 342 b 385 458 418 383 407 422 b 288 551 363 496 331 526 b 286 555 287 552 286 553 b 286 557 286 555 286 557 l 288 559 b 427 596 334 584 380 596 b 471 593 442 596 457 595 b 628 494 533 582 585 549 b 629 490 629 493 629 492 b 624 486 629 488 627 487 b 579 469 608 484 594 477 b 543 439 565 460 553 450 b 538 437 541 437 540 437 b 535 438 538 437 536 437 b 479 479 515 458 496 471 b 425 490 461 486 444 490 b 399 488 417 490 408 490 b 439 398 418 460 431 431 b 559 345 486 397 526 378 b 561 342 560 344 561 342 b 559 338 561 340 560 339 b 439 285 526 304 486 286 b 399 195 431 252 418 222 b 422 193 407 193 415 193 b 536 245 467 193 505 210 b 540 247 537 246 538 247 l 541 247 b 545 245 543 246 544 245 b 625 196 569 218 595 202 z m 228 176 b 167 342 187 227 167 282 b 229 507 167 401 187 456 b 232 509 229 509 231 509 b 234 509 233 509 233 509 b 337 433 281 494 316 469 b 363 344 354 406 363 376 l 363 342 b 336 250 362 309 353 279 b 233 174 315 214 280 189 l 232 174 b 228 176 231 174 229 174 z m 461 -57 b 449 -73 460 -68 456 -73 b 437 -57 441 -73 437 -67 b 449 -42 438 -47 442 -42 b 461 -57 457 -42 461 -47 z m 129 679 b 85 661 112 679 98 673 b 68 618 74 650 68 635 l 68 64 b 85 20 68 47 74 32 b 129 3 98 9 112 3 l 684 3 b 726 20 701 3 715 9 b 745 64 739 32 745 47 l 745 618 b 726 661 745 635 739 650 b 684 679 715 673 701 679 z m 595 -34 l 595 -81 l 604 -81 l 604 -50 l 604 -50 l 616 -81 l 623 -81 l 635 -50 l 635 -81 l 646 -81 l 646 -34 l 633 -34 l 620 -66 l 619 -66 l 607 -34 z m 180 814 l 193 814 l 193 834 l 204 834 b 220 840 211 834 216 836 b 227 854 224 844 227 848 b 204 876 226 869 218 876 l 180 876 z m 235 814 l 277 814 l 277 825 l 248 825 l 248 840 l 275 840 l 275 850 l 248 850 l 248 865 l 277 865 l 277 876 l 235 876 z m 288 814 l 300 814 l 300 836 l 310 836 l 321 814 l 336 814 l 323 838 b 334 856 330 841 334 847 b 312 876 333 869 326 876 l 288 876 z m 377 858 l 390 858 b 367 877 388 870 380 877 b 350 871 360 877 354 875 b 343 858 345 868 343 863 b 360 841 343 849 349 843 l 367 840 b 378 831 374 838 377 835 b 366 824 377 826 373 824 b 354 833 359 824 355 827 l 341 833 b 349 818 342 826 344 821 b 367 813 353 814 359 813 b 391 831 382 813 389 819 b 372 850 390 842 384 848 l 366 851 b 357 859 360 852 357 854 b 367 866 357 863 360 866 b 377 858 373 866 376 863 z m 456 845 b 448 868 456 854 454 863 b 427 877 443 873 435 877 b 406 868 419 877 412 873 b 398 845 401 863 398 854 b 406 821 398 835 401 827 b 427 813 412 816 419 813 b 448 821 435 813 443 816 b 456 845 454 827 456 835 z m 518 876 l 505 876 l 505 837 l 505 837 l 478 876 l 466 876 l 466 814 l 479 814 l 479 852 l 507 814 l 518 814 z m 540 814 l 545 827 l 566 827 l 571 814 l 585 814 l 564 876 l 547 876 l 526 814 z m 593 814 l 633 814 l 633 825 l 606 825 l 606 876 l 593 876 z m 237 791 l 237 751 b 225 739 237 743 233 739 b 212 751 216 741 212 744 l 212 791 l 199 791 l 199 750 b 206 734 199 743 201 738 b 225 728 211 730 217 728 b 243 734 233 728 239 730 b 251 750 248 738 251 743 l 251 791 z m 295 772 l 308 772 b 285 791 307 785 298 791 b 268 787 278 791 273 790 b 261 772 264 783 262 779 b 278 755 262 764 267 758 l 285 754 b 296 746 292 753 296 750 b 284 739 295 741 291 739 b 273 748 277 739 274 742 l 260 748 b 267 733 260 741 262 736 b 285 728 271 730 277 728 b 309 746 300 728 308 734 b 290 764 308 756 302 762 l 284 766 b 275 773 278 767 275 769 b 285 781 275 778 278 781 b 295 772 291 781 294 778 z m 318 728 l 359 728 l 359 739 l 331 739 l 331 754 l 357 754 l 357 765 l 331 765 l 331 780 l 359 780 l 359 791 l 318 791 z m 447 760 b 438 783 447 770 444 778 b 418 791 433 789 426 791 b 397 783 410 791 403 789 b 389 760 391 778 389 770 b 397 736 389 749 391 742 b 418 728 403 730 410 728 b 438 736 426 728 433 730 b 447 760 444 742 447 749 z m 509 791 l 496 791 l 496 751 l 495 751 l 468 791 l 456 791 l 456 728 l 469 728 l 469 768 l 470 768 l 497 728 l 509 728 z m 519 728 l 559 728 l 559 739 l 532 739 l 532 791 l 519 791 z m 556 791 l 579 751 l 579 728 l 592 728 l 592 751 l 614 791 l 600 791 l 586 764 l 585 764 l 571 791 z m 167 -81 l 199 -81 l 199 -73 l 177 -73 l 177 -61 l 197 -61 l 197 -53 l 177 -53 l 177 -42 l 199 -42 l 199 -34 l 167 -34 z m 246 -34 l 236 -34 l 236 -63 l 235 -63 l 215 -34 l 207 -34 l 207 -81 l 216 -81 l 216 -51 l 217 -51 l 237 -81 l 246 -81 z m 263 -34 l 252 -34 l 267 -57 l 252 -81 l 263 -81 l 273 -64 l 283 -81 l 294 -81 l 279 -57 l 294 -34 l 283 -34 l 273 -50 z m 298 -34 l 315 -64 l 315 -81 l 325 -81 l 325 -64 l 342 -34 l 331 -34 l 320 -54 l 309 -34 z m 386 -50 b 380 -37 385 -45 383 -41 b 366 -33 376 -35 371 -33 b 350 -39 359 -33 354 -35 b 344 -57 346 -43 344 -50 b 350 -75 344 -65 346 -71 b 366 -81 354 -79 359 -81 b 380 -77 372 -81 376 -80 b 386 -64 383 -73 385 -69 l 376 -64 b 366 -73 374 -70 371 -73 b 353 -57 357 -73 353 -67 b 366 -42 355 -47 359 -42 b 376 -50 371 -42 374 -45 z m 393 -81 l 423 -81 l 423 -73 l 404 -73 l 404 -34 l 393 -34 z m 471 -57 b 465 -39 471 -50 469 -43 b 449 -33 460 -35 456 -33 b 433 -39 443 -33 437 -35 b 427 -57 429 -43 427 -50 b 433 -75 427 -65 429 -71 b 449 -81 437 -79 443 -81 b 465 -75 456 -81 460 -79 b 471 -57 469 -71 471 -65 z m 481 -81 b 487 -76 484 -81 486 -79 b 481 -71 486 -73 484 -71 b 475 -76 478 -71 476 -73 b 481 -81 476 -79 478 -81 z m 536 -50 b 530 -37 536 -45 534 -41 b 516 -33 526 -35 522 -33 b 500 -39 510 -33 505 -35 b 494 -57 496 -43 494 -50 b 500 -75 494 -65 496 -71 b 516 -81 505 -79 510 -81 b 530 -77 522 -81 527 -80 b 536 -64 534 -73 536 -69 l 526 -64 b 516 -73 525 -70 522 -73 b 505 -57 508 -73 505 -67 b 516 -42 505 -47 509 -42 b 526 -50 522 -42 525 -45 z m 587 -57 b 581 -39 587 -50 585 -43 b 565 -33 576 -35 571 -33 b 549 -39 559 -33 553 -35 b 543 -57 545 -43 543 -50 b 549 -75 543 -65 545 -71 b 565 -81 553 -79 559 -81 b 581 -75 571 -81 576 -79 b 587 -57 585 -71 587 -65 z "},"J":{"ha":812,"x_min":0,"x_max":0,"o":"m 539 469 b 589 501 554 483 570 494 b 492 563 555 536 522 557 b 422 572 460 569 437 572 b 332 554 392 572 361 566 b 381 510 350 541 367 526 b 424 514 396 513 410 514 b 539 469 466 514 505 499 z m 306 249 b 338 342 328 277 338 308 b 306 433 338 375 328 406 b 279 382 292 416 283 398 b 274 341 276 366 274 352 b 278 309 274 330 275 319 b 306 249 283 288 292 267 z m 443 373 b 445 341 444 363 445 352 b 443 309 445 331 444 320 b 527 341 474 311 502 322 b 443 373 502 361 474 371 z m 289 231 b 256 292 271 252 260 273 b 250 341 252 312 250 328 b 254 380 250 354 251 368 b 289 452 260 406 271 430 b 239 481 274 465 258 475 b 192 342 208 439 192 392 b 239 201 192 291 208 244 b 266 214 248 204 257 209 b 289 231 274 219 281 224 z m 589 181 b 539 213 570 189 554 199 b 424 168 505 183 466 168 b 381 173 410 168 396 170 b 356 147 374 163 365 155 b 332 129 348 140 340 134 b 422 111 361 117 392 111 b 469 115 437 111 453 112 b 589 181 515 125 555 146 z m 577 -57 b 565 -73 576 -68 572 -73 b 553 -57 557 -73 553 -67 b 565 -42 554 -47 558 -42 b 577 -57 573 -42 577 -47 z m 193 844 l 193 865 l 202 865 b 213 854 210 864 213 861 b 202 844 213 848 210 844 z m 300 846 l 300 865 l 309 865 b 321 856 317 865 321 861 b 309 846 321 849 317 846 z m 443 845 b 427 825 442 831 437 825 b 412 845 417 825 412 831 b 427 865 412 858 418 865 b 443 845 438 865 443 858 z m 548 838 l 555 862 l 564 838 z m 433 760 b 418 739 433 746 427 739 b 401 760 407 739 401 746 b 418 780 403 773 408 780 b 433 760 429 779 433 772 z m 625 196 b 628 191 627 195 628 193 l 628 189 b 627 188 628 189 627 188 b 508 98 587 137 547 107 b 422 85 469 90 440 85 b 300 117 380 85 340 96 l 288 123 b 286 127 287 124 286 126 b 286 130 286 128 286 129 l 288 132 b 386 224 332 157 365 188 b 418 340 408 261 418 300 l 418 342 b 385 458 418 383 407 422 b 288 551 363 496 331 526 b 286 555 287 552 286 553 b 286 557 286 555 286 557 l 288 559 b 427 596 334 584 380 596 b 471 593 442 596 457 595 b 628 494 533 582 585 549 b 629 490 629 493 629 492 b 624 486 629 488 627 487 b 579 469 608 484 594 477 b 543 439 565 460 553 450 b 538 437 541 437 540 437 b 535 438 538 437 536 437 b 479 479 515 458 496 471 b 425 490 461 486 444 490 b 399 488 417 490 408 490 b 439 398 418 460 431 431 b 559 345 486 397 526 378 b 561 342 560 344 561 342 b 559 338 561 340 560 339 b 439 285 526 304 486 286 b 399 195 431 252 418 222 b 422 193 407 193 415 193 b 536 245 467 193 505 210 b 540 247 537 246 538 247 l 541 247 b 545 245 543 246 544 245 b 625 196 569 218 595 202 z m 228 176 b 167 342 187 227 167 282 b 229 507 167 401 187 456 b 232 509 229 509 231 509 b 234 509 233 509 233 509 b 337 433 281 494 316 469 b 363 344 354 406 363 376 l 363 342 b 336 250 362 309 353 279 b 233 174 315 214 280 189 l 232 174 b 228 176 231 174 229 174 z m 461 -57 b 449 -73 460 -68 456 -73 b 437 -57 441 -73 437 -67 b 449 -42 438 -47 442 -42 b 461 -57 457 -42 461 -47 z m 129 679 b 85 661 112 679 98 673 b 68 618 74 650 68 635 l 68 64 b 85 20 68 47 74 32 b 129 3 98 9 112 3 l 684 3 b 726 20 701 3 715 9 b 745 64 739 32 745 47 l 745 618 b 726 661 745 635 739 650 b 684 679 715 673 701 679 z m 595 -34 l 595 -81 l 604 -81 l 604 -50 l 604 -50 l 616 -81 l 623 -81 l 635 -50 l 635 -81 l 646 -81 l 646 -34 l 633 -34 l 620 -66 l 619 -66 l 607 -34 z m 180 814 l 193 814 l 193 834 l 204 834 b 220 840 211 834 216 836 b 227 854 224 844 227 848 b 204 876 226 869 218 876 l 180 876 z m 235 814 l 277 814 l 277 825 l 248 825 l 248 840 l 275 840 l 275 850 l 248 850 l 248 865 l 277 865 l 277 876 l 235 876 z m 288 814 l 300 814 l 300 836 l 310 836 l 321 814 l 336 814 l 323 838 b 334 856 330 841 334 847 b 312 876 333 869 326 876 l 288 876 z m 377 858 l 390 858 b 367 877 388 870 380 877 b 350 871 360 877 354 875 b 343 858 345 868 343 863 b 360 841 343 849 349 843 l 367 840 b 378 831 374 838 377 835 b 366 824 377 826 373 824 b 354 833 359 824 355 827 l 341 833 b 349 818 342 826 344 821 b 367 813 353 814 359 813 b 391 831 382 813 389 819 b 372 850 390 842 384 848 l 366 851 b 357 859 360 852 357 854 b 367 866 357 863 360 866 b 377 858 373 866 376 863 z m 456 845 b 448 868 456 854 454 863 b 427 877 443 873 435 877 b 406 868 419 877 412 873 b 398 845 401 863 398 854 b 406 821 398 835 401 827 b 427 813 412 816 419 813 b 448 821 435 813 443 816 b 456 845 454 827 456 835 z m 518 876 l 505 876 l 505 837 l 505 837 l 478 876 l 466 876 l 466 814 l 479 814 l 479 852 l 507 814 l 518 814 z m 540 814 l 545 827 l 566 827 l 571 814 l 585 814 l 564 876 l 547 876 l 526 814 z m 593 814 l 633 814 l 633 825 l 606 825 l 606 876 l 593 876 z m 237 791 l 237 751 b 225 739 237 743 233 739 b 212 751 216 741 212 744 l 212 791 l 199 791 l 199 750 b 206 734 199 743 201 738 b 225 728 211 730 217 728 b 243 734 233 728 239 730 b 251 750 248 738 251 743 l 251 791 z m 295 772 l 308 772 b 285 791 307 785 298 791 b 268 787 278 791 273 790 b 261 772 264 783 262 779 b 278 755 262 764 267 758 l 285 754 b 296 746 292 753 296 750 b 284 739 295 741 291 739 b 273 748 277 739 274 742 l 260 748 b 267 733 260 741 262 736 b 285 728 271 730 277 728 b 309 746 300 728 308 734 b 290 764 308 756 302 762 l 284 766 b 275 773 278 767 275 769 b 285 781 275 778 278 781 b 295 772 291 781 294 778 z m 318 728 l 359 728 l 359 739 l 331 739 l 331 754 l 357 754 l 357 765 l 331 765 l 331 780 l 359 780 l 359 791 l 318 791 z m 447 760 b 438 783 447 770 444 778 b 418 791 433 789 426 791 b 397 783 410 791 403 789 b 389 760 391 778 389 770 b 397 736 389 749 391 742 b 418 728 403 730 410 728 b 438 736 426 728 433 730 b 447 760 444 742 447 749 z m 509 791 l 496 791 l 496 751 l 495 751 l 468 791 l 456 791 l 456 728 l 469 728 l 469 768 l 470 768 l 497 728 l 509 728 z m 519 728 l 559 728 l 559 739 l 532 739 l 532 791 l 519 791 z m 556 791 l 579 751 l 579 728 l 592 728 l 592 751 l 614 791 l 600 791 l 586 764 l 585 764 l 571 791 z m 167 -81 l 199 -81 l 199 -73 l 177 -73 l 177 -61 l 197 -61 l 197 -53 l 177 -53 l 177 -42 l 199 -42 l 199 -34 l 167 -34 z m 246 -34 l 236 -34 l 236 -63 l 235 -63 l 215 -34 l 207 -34 l 207 -81 l 216 -81 l 216 -51 l 217 -51 l 237 -81 l 246 -81 z m 263 -34 l 252 -34 l 267 -57 l 252 -81 l 263 -81 l 273 -64 l 283 -81 l 294 -81 l 279 -57 l 294 -34 l 283 -34 l 273 -50 z m 298 -34 l 315 -64 l 315 -81 l 325 -81 l 325 -64 l 342 -34 l 331 -34 l 320 -54 l 309 -34 z m 386 -50 b 380 -37 385 -45 383 -41 b 366 -33 376 -35 371 -33 b 350 -39 359 -33 354 -35 b 344 -57 346 -43 344 -50 b 350 -75 344 -65 346 -71 b 366 -81 354 -79 359 -81 b 380 -77 372 -81 376 -80 b 386 -64 383 -73 385 -69 l 376 -64 b 366 -73 374 -70 371 -73 b 353 -57 357 -73 353 -67 b 366 -42 355 -47 359 -42 b 376 -50 371 -42 374 -45 z m 393 -81 l 423 -81 l 423 -73 l 404 -73 l 404 -34 l 393 -34 z m 471 -57 b 465 -39 471 -50 469 -43 b 449 -33 460 -35 456 -33 b 433 -39 443 -33 437 -35 b 427 -57 429 -43 427 -50 b 433 -75 427 -65 429 -71 b 449 -81 437 -79 443 -81 b 465 -75 456 -81 460 -79 b 471 -57 469 -71 471 -65 z m 481 -81 b 487 -76 484 -81 486 -79 b 481 -71 486 -73 484 -71 b 475 -76 478 -71 476 -73 b 481 -81 476 -79 478 -81 z m 536 -50 b 530 -37 536 -45 534 -41 b 516 -33 526 -35 522 -33 b 500 -39 510 -33 505 -35 b 494 -57 496 -43 494 -50 b 500 -75 494 -65 496 -71 b 516 -81 505 -79 510 -81 b 530 -77 522 -81 527 -80 b 536 -64 534 -73 536 -69 l 526 -64 b 516 -73 525 -70 522 -73 b 505 -57 508 -73 505 -67 b 516 -42 505 -47 509 -42 b 526 -50 522 -42 525 -45 z m 587 -57 b 581 -39 587 -50 585 -43 b 565 -33 576 -35 571 -33 b 549 -39 559 -33 553 -35 b 543 -57 545 -43 543 -50 b 549 -75 543 -65 545 -71 b 565 -81 553 -79 559 -81 b 581 -75 571 -81 576 -79 b 587 -57 585 -71 587 -65 z "},"K":{"ha":812,"x_min":0,"x_max":0,"o":"m 539 469 b 589 501 554 483 570 494 b 492 563 555 536 522 557 b 422 572 460 569 437 572 b 332 554 392 572 361 566 b 381 510 350 541 367 526 b 424 514 396 513 410 514 b 539 469 466 514 505 499 z m 306 249 b 338 342 328 277 338 308 b 306 433 338 375 328 406 b 279 382 292 416 283 398 b 274 341 276 366 274 352 b 278 309 274 330 275 319 b 306 249 283 288 292 267 z m 443 373 b 445 341 444 363 445 352 b 443 309 445 331 444 320 b 527 341 474 311 502 322 b 443 373 502 361 474 371 z m 289 231 b 256 292 271 252 260 273 b 250 341 252 312 250 328 b 254 380 250 354 251 368 b 289 452 260 406 271 430 b 239 481 274 465 258 475 b 192 342 208 439 192 392 b 239 201 192 291 208 244 b 266 214 248 204 257 209 b 289 231 274 219 281 224 z m 589 181 b 539 213 570 189 554 199 b 424 168 505 183 466 168 b 381 173 410 168 396 170 b 356 147 374 163 365 155 b 332 129 348 140 340 134 b 422 111 361 117 392 111 b 469 115 437 111 453 112 b 589 181 515 125 555 146 z m 577 -57 b 565 -73 576 -68 572 -73 b 553 -57 557 -73 553 -67 b 565 -42 554 -47 558 -42 b 577 -57 573 -42 577 -47 z m 193 844 l 193 865 l 202 865 b 213 854 210 864 213 861 b 202 844 213 848 210 844 z m 300 846 l 300 865 l 309 865 b 321 856 317 865 321 861 b 309 846 321 849 317 846 z m 443 845 b 427 825 442 831 437 825 b 412 845 417 825 412 831 b 427 865 412 858 418 865 b 443 845 438 865 443 858 z m 548 838 l 555 862 l 564 838 z m 433 760 b 418 739 433 746 427 739 b 401 760 407 739 401 746 b 418 780 403 773 408 780 b 433 760 429 779 433 772 z m 625 196 b 628 191 627 195 628 193 l 628 189 b 627 188 628 189 627 188 b 508 98 587 137 547 107 b 422 85 469 90 440 85 b 300 117 380 85 340 96 l 288 123 b 286 127 287 124 286 126 b 286 130 286 128 286 129 l 288 132 b 386 224 332 157 365 188 b 418 340 408 261 418 300 l 418 342 b 385 458 418 383 407 422 b 288 551 363 496 331 526 b 286 555 287 552 286 553 b 286 557 286 555 286 557 l 288 559 b 427 596 334 584 380 596 b 471 593 442 596 457 595 b 628 494 533 582 585 549 b 629 490 629 493 629 492 b 624 486 629 488 627 487 b 579 469 608 484 594 477 b 543 439 565 460 553 450 b 538 437 541 437 540 437 b 535 438 538 437 536 437 b 479 479 515 458 496 471 b 425 490 461 486 444 490 b 399 488 417 490 408 490 b 439 398 418 460 431 431 b 559 345 486 397 526 378 b 561 342 560 344 561 342 b 559 338 561 340 560 339 b 439 285 526 304 486 286 b 399 195 431 252 418 222 b 422 193 407 193 415 193 b 536 245 467 193 505 210 b 540 247 537 246 538 247 l 541 247 b 545 245 543 246 544 245 b 625 196 569 218 595 202 z m 228 176 b 167 342 187 227 167 282 b 229 507 167 401 187 456 b 232 509 229 509 231 509 b 234 509 233 509 233 509 b 337 433 281 494 316 469 b 363 344 354 406 363 376 l 363 342 b 336 250 362 309 353 279 b 233 174 315 214 280 189 l 232 174 b 228 176 231 174 229 174 z m 461 -57 b 449 -73 460 -68 456 -73 b 437 -57 441 -73 437 -67 b 449 -42 438 -47 442 -42 b 461 -57 457 -42 461 -47 z m 129 679 b 85 661 112 679 98 673 b 68 618 74 650 68 635 l 68 64 b 85 20 68 47 74 32 b 129 3 98 9 112 3 l 684 3 b 726 20 701 3 715 9 b 745 64 739 32 745 47 l 745 618 b 726 661 745 635 739 650 b 684 679 715 673 701 679 z m 595 -34 l 595 -81 l 604 -81 l 604 -50 l 604 -50 l 616 -81 l 623 -81 l 635 -50 l 635 -81 l 646 -81 l 646 -34 l 633 -34 l 620 -66 l 619 -66 l 607 -34 z m 180 814 l 193 814 l 193 834 l 204 834 b 220 840 211 834 216 836 b 227 854 224 844 227 848 b 204 876 226 869 218 876 l 180 876 z m 235 814 l 277 814 l 277 825 l 248 825 l 248 840 l 275 840 l 275 850 l 248 850 l 248 865 l 277 865 l 277 876 l 235 876 z m 288 814 l 300 814 l 300 836 l 310 836 l 321 814 l 336 814 l 323 838 b 334 856 330 841 334 847 b 312 876 333 869 326 876 l 288 876 z m 377 858 l 390 858 b 367 877 388 870 380 877 b 350 871 360 877 354 875 b 343 858 345 868 343 863 b 360 841 343 849 349 843 l 367 840 b 378 831 374 838 377 835 b 366 824 377 826 373 824 b 354 833 359 824 355 827 l 341 833 b 349 818 342 826 344 821 b 367 813 353 814 359 813 b 391 831 382 813 389 819 b 372 850 390 842 384 848 l 366 851 b 357 859 360 852 357 854 b 367 866 357 863 360 866 b 377 858 373 866 376 863 z m 456 845 b 448 868 456 854 454 863 b 427 877 443 873 435 877 b 406 868 419 877 412 873 b 398 845 401 863 398 854 b 406 821 398 835 401 827 b 427 813 412 816 419 813 b 448 821 435 813 443 816 b 456 845 454 827 456 835 z m 518 876 l 505 876 l 505 837 l 505 837 l 478 876 l 466 876 l 466 814 l 479 814 l 479 852 l 507 814 l 518 814 z m 540 814 l 545 827 l 566 827 l 571 814 l 585 814 l 564 876 l 547 876 l 526 814 z m 593 814 l 633 814 l 633 825 l 606 825 l 606 876 l 593 876 z m 237 791 l 237 751 b 225 739 237 743 233 739 b 212 751 216 741 212 744 l 212 791 l 199 791 l 199 750 b 206 734 199 743 201 738 b 225 728 211 730 217 728 b 243 734 233 728 239 730 b 251 750 248 738 251 743 l 251 791 z m 295 772 l 308 772 b 285 791 307 785 298 791 b 268 787 278 791 273 790 b 261 772 264 783 262 779 b 278 755 262 764 267 758 l 285 754 b 296 746 292 753 296 750 b 284 739 295 741 291 739 b 273 748 277 739 274 742 l 260 748 b 267 733 260 741 262 736 b 285 728 271 730 277 728 b 309 746 300 728 308 734 b 290 764 308 756 302 762 l 284 766 b 275 773 278 767 275 769 b 285 781 275 778 278 781 b 295 772 291 781 294 778 z m 318 728 l 359 728 l 359 739 l 331 739 l 331 754 l 357 754 l 357 765 l 331 765 l 331 780 l 359 780 l 359 791 l 318 791 z m 447 760 b 438 783 447 770 444 778 b 418 791 433 789 426 791 b 397 783 410 791 403 789 b 389 760 391 778 389 770 b 397 736 389 749 391 742 b 418 728 403 730 410 728 b 438 736 426 728 433 730 b 447 760 444 742 447 749 z m 509 791 l 496 791 l 496 751 l 495 751 l 468 791 l 456 791 l 456 728 l 469 728 l 469 768 l 470 768 l 497 728 l 509 728 z m 519 728 l 559 728 l 559 739 l 532 739 l 532 791 l 519 791 z m 556 791 l 579 751 l 579 728 l 592 728 l 592 751 l 614 791 l 600 791 l 586 764 l 585 764 l 571 791 z m 167 -81 l 199 -81 l 199 -73 l 177 -73 l 177 -61 l 197 -61 l 197 -53 l 177 -53 l 177 -42 l 199 -42 l 199 -34 l 167 -34 z m 246 -34 l 236 -34 l 236 -63 l 235 -63 l 215 -34 l 207 -34 l 207 -81 l 216 -81 l 216 -51 l 217 -51 l 237 -81 l 246 -81 z m 263 -34 l 252 -34 l 267 -57 l 252 -81 l 263 -81 l 273 -64 l 283 -81 l 294 -81 l 279 -57 l 294 -34 l 283 -34 l 273 -50 z m 298 -34 l 315 -64 l 315 -81 l 325 -81 l 325 -64 l 342 -34 l 331 -34 l 320 -54 l 309 -34 z m 386 -50 b 380 -37 385 -45 383 -41 b 366 -33 376 -35 371 -33 b 350 -39 359 -33 354 -35 b 344 -57 346 -43 344 -50 b 350 -75 344 -65 346 -71 b 366 -81 354 -79 359 -81 b 380 -77 372 -81 376 -80 b 386 -64 383 -73 385 -69 l 376 -64 b 366 -73 374 -70 371 -73 b 353 -57 357 -73 353 -67 b 366 -42 355 -47 359 -42 b 376 -50 371 -42 374 -45 z m 393 -81 l 423 -81 l 423 -73 l 404 -73 l 404 -34 l 393 -34 z m 471 -57 b 465 -39 471 -50 469 -43 b 449 -33 460 -35 456 -33 b 433 -39 443 -33 437 -35 b 427 -57 429 -43 427 -50 b 433 -75 427 -65 429 -71 b 449 -81 437 -79 443 -81 b 465 -75 456 -81 460 -79 b 471 -57 469 -71 471 -65 z m 481 -81 b 487 -76 484 -81 486 -79 b 481 -71 486 -73 484 -71 b 475 -76 478 -71 476 -73 b 481 -81 476 -79 478 -81 z m 536 -50 b 530 -37 536 -45 534 -41 b 516 -33 526 -35 522 -33 b 500 -39 510 -33 505 -35 b 494 -57 496 -43 494 -50 b 500 -75 494 -65 496 -71 b 516 -81 505 -79 510 -81 b 530 -77 522 -81 527 -80 b 536 -64 534 -73 536 -69 l 526 -64 b 516 -73 525 -70 522 -73 b 505 -57 508 -73 505 -67 b 516 -42 505 -47 509 -42 b 526 -50 522 -42 525 -45 z m 587 -57 b 581 -39 587 -50 585 -43 b 565 -33 576 -35 571 -33 b 549 -39 559 -33 553 -35 b 543 -57 545 -43 543 -50 b 549 -75 543 -65 545 -71 b 565 -81 553 -79 559 -81 b 581 -75 571 -81 576 -79 b 587 -57 585 -71 587 -65 z "},"L":{"ha":812,"x_min":0,"x_max":0,"o":"m 539 469 b 589 501 554 483 570 494 b 492 563 555 536 522 557 b 422 572 460 569 437 572 b 332 554 392 572 361 566 b 381 510 350 541 367 526 b 424 514 396 513 410 514 b 539 469 466 514 505 499 z m 306 249 b 338 342 328 277 338 308 b 306 433 338 375 328 406 b 279 382 292 416 283 398 b 274 341 276 366 274 352 b 278 309 274 330 275 319 b 306 249 283 288 292 267 z m 443 373 b 445 341 444 363 445 352 b 443 309 445 331 444 320 b 527 341 474 311 502 322 b 443 373 502 361 474 371 z m 289 231 b 256 292 271 252 260 273 b 250 341 252 312 250 328 b 254 380 250 354 251 368 b 289 452 260 406 271 430 b 239 481 274 465 258 475 b 192 342 208 439 192 392 b 239 201 192 291 208 244 b 266 214 248 204 257 209 b 289 231 274 219 281 224 z m 589 181 b 539 213 570 189 554 199 b 424 168 505 183 466 168 b 381 173 410 168 396 170 b 356 147 374 163 365 155 b 332 129 348 140 340 134 b 422 111 361 117 392 111 b 469 115 437 111 453 112 b 589 181 515 125 555 146 z m 577 -57 b 565 -73 576 -68 572 -73 b 553 -57 557 -73 553 -67 b 565 -42 554 -47 558 -42 b 577 -57 573 -42 577 -47 z m 193 844 l 193 865 l 202 865 b 213 854 210 864 213 861 b 202 844 213 848 210 844 z m 300 846 l 300 865 l 309 865 b 321 856 317 865 321 861 b 309 846 321 849 317 846 z m 443 845 b 427 825 442 831 437 825 b 412 845 417 825 412 831 b 427 865 412 858 418 865 b 443 845 438 865 443 858 z m 548 838 l 555 862 l 564 838 z m 433 760 b 418 739 433 746 427 739 b 401 760 407 739 401 746 b 418 780 403 773 408 780 b 433 760 429 779 433 772 z m 625 196 b 628 191 627 195 628 193 l 628 189 b 627 188 628 189 627 188 b 508 98 587 137 547 107 b 422 85 469 90 440 85 b 300 117 380 85 340 96 l 288 123 b 286 127 287 124 286 126 b 286 130 286 128 286 129 l 288 132 b 386 224 332 157 365 188 b 418 340 408 261 418 300 l 418 342 b 385 458 418 383 407 422 b 288 551 363 496 331 526 b 286 555 287 552 286 553 b 286 557 286 555 286 557 l 288 559 b 427 596 334 584 380 596 b 471 593 442 596 457 595 b 628 494 533 582 585 549 b 629 490 629 493 629 492 b 624 486 629 488 627 487 b 579 469 608 484 594 477 b 543 439 565 460 553 450 b 538 437 541 437 540 437 b 535 438 538 437 536 437 b 479 479 515 458 496 471 b 425 490 461 486 444 490 b 399 488 417 490 408 490 b 439 398 418 460 431 431 b 559 345 486 397 526 378 b 561 342 560 344 561 342 b 559 338 561 340 560 339 b 439 285 526 304 486 286 b 399 195 431 252 418 222 b 422 193 407 193 415 193 b 536 245 467 193 505 210 b 540 247 537 246 538 247 l 541 247 b 545 245 543 246 544 245 b 625 196 569 218 595 202 z m 228 176 b 167 342 187 227 167 282 b 229 507 167 401 187 456 b 232 509 229 509 231 509 b 234 509 233 509 233 509 b 337 433 281 494 316 469 b 363 344 354 406 363 376 l 363 342 b 336 250 362 309 353 279 b 233 174 315 214 280 189 l 232 174 b 228 176 231 174 229 174 z m 461 -57 b 449 -73 460 -68 456 -73 b 437 -57 441 -73 437 -67 b 449 -42 438 -47 442 -42 b 461 -57 457 -42 461 -47 z m 129 679 b 85 661 112 679 98 673 b 68 618 74 650 68 635 l 68 64 b 85 20 68 47 74 32 b 129 3 98 9 112 3 l 684 3 b 726 20 701 3 715 9 b 745 64 739 32 745 47 l 745 618 b 726 661 745 635 739 650 b 684 679 715 673 701 679 z m 595 -34 l 595 -81 l 604 -81 l 604 -50 l 604 -50 l 616 -81 l 623 -81 l 635 -50 l 635 -81 l 646 -81 l 646 -34 l 633 -34 l 620 -66 l 619 -66 l 607 -34 z m 180 814 l 193 814 l 193 834 l 204 834 b 220 840 211 834 216 836 b 227 854 224 844 227 848 b 204 876 226 869 218 876 l 180 876 z m 235 814 l 277 814 l 277 825 l 248 825 l 248 840 l 275 840 l 275 850 l 248 850 l 248 865 l 277 865 l 277 876 l 235 876 z m 288 814 l 300 814 l 300 836 l 310 836 l 321 814 l 336 814 l 323 838 b 334 856 330 841 334 847 b 312 876 333 869 326 876 l 288 876 z m 377 858 l 390 858 b 367 877 388 870 380 877 b 350 871 360 877 354 875 b 343 858 345 868 343 863 b 360 841 343 849 349 843 l 367 840 b 378 831 374 838 377 835 b 366 824 377 826 373 824 b 354 833 359 824 355 827 l 341 833 b 349 818 342 826 344 821 b 367 813 353 814 359 813 b 391 831 382 813 389 819 b 372 850 390 842 384 848 l 366 851 b 357 859 360 852 357 854 b 367 866 357 863 360 866 b 377 858 373 866 376 863 z m 456 845 b 448 868 456 854 454 863 b 427 877 443 873 435 877 b 406 868 419 877 412 873 b 398 845 401 863 398 854 b 406 821 398 835 401 827 b 427 813 412 816 419 813 b 448 821 435 813 443 816 b 456 845 454 827 456 835 z m 518 876 l 505 876 l 505 837 l 505 837 l 478 876 l 466 876 l 466 814 l 479 814 l 479 852 l 507 814 l 518 814 z m 540 814 l 545 827 l 566 827 l 571 814 l 585 814 l 564 876 l 547 876 l 526 814 z m 593 814 l 633 814 l 633 825 l 606 825 l 606 876 l 593 876 z m 237 791 l 237 751 b 225 739 237 743 233 739 b 212 751 216 741 212 744 l 212 791 l 199 791 l 199 750 b 206 734 199 743 201 738 b 225 728 211 730 217 728 b 243 734 233 728 239 730 b 251 750 248 738 251 743 l 251 791 z m 295 772 l 308 772 b 285 791 307 785 298 791 b 268 787 278 791 273 790 b 261 772 264 783 262 779 b 278 755 262 764 267 758 l 285 754 b 296 746 292 753 296 750 b 284 739 295 741 291 739 b 273 748 277 739 274 742 l 260 748 b 267 733 260 741 262 736 b 285 728 271 730 277 728 b 309 746 300 728 308 734 b 290 764 308 756 302 762 l 284 766 b 275 773 278 767 275 769 b 285 781 275 778 278 781 b 295 772 291 781 294 778 z m 318 728 l 359 728 l 359 739 l 331 739 l 331 754 l 357 754 l 357 765 l 331 765 l 331 780 l 359 780 l 359 791 l 318 791 z m 447 760 b 438 783 447 770 444 778 b 418 791 433 789 426 791 b 397 783 410 791 403 789 b 389 760 391 778 389 770 b 397 736 389 749 391 742 b 418 728 403 730 410 728 b 438 736 426 728 433 730 b 447 760 444 742 447 749 z m 509 791 l 496 791 l 496 751 l 495 751 l 468 791 l 456 791 l 456 728 l 469 728 l 469 768 l 470 768 l 497 728 l 509 728 z m 519 728 l 559 728 l 559 739 l 532 739 l 532 791 l 519 791 z m 556 791 l 579 751 l 579 728 l 592 728 l 592 751 l 614 791 l 600 791 l 586 764 l 585 764 l 571 791 z m 167 -81 l 199 -81 l 199 -73 l 177 -73 l 177 -61 l 197 -61 l 197 -53 l 177 -53 l 177 -42 l 199 -42 l 199 -34 l 167 -34 z m 246 -34 l 236 -34 l 236 -63 l 235 -63 l 215 -34 l 207 -34 l 207 -81 l 216 -81 l 216 -51 l 217 -51 l 237 -81 l 246 -81 z m 263 -34 l 252 -34 l 267 -57 l 252 -81 l 263 -81 l 273 -64 l 283 -81 l 294 -81 l 279 -57 l 294 -34 l 283 -34 l 273 -50 z m 298 -34 l 315 -64 l 315 -81 l 325 -81 l 325 -64 l 342 -34 l 331 -34 l 320 -54 l 309 -34 z m 386 -50 b 380 -37 385 -45 383 -41 b 366 -33 376 -35 371 -33 b 350 -39 359 -33 354 -35 b 344 -57 346 -43 344 -50 b 350 -75 344 -65 346 -71 b 366 -81 354 -79 359 -81 b 380 -77 372 -81 376 -80 b 386 -64 383 -73 385 -69 l 376 -64 b 366 -73 374 -70 371 -73 b 353 -57 357 -73 353 -67 b 366 -42 355 -47 359 -42 b 376 -50 371 -42 374 -45 z m 393 -81 l 423 -81 l 423 -73 l 404 -73 l 404 -34 l 393 -34 z m 471 -57 b 465 -39 471 -50 469 -43 b 449 -33 460 -35 456 -33 b 433 -39 443 -33 437 -35 b 427 -57 429 -43 427 -50 b 433 -75 427 -65 429 -71 b 449 -81 437 -79 443 -81 b 465 -75 456 -81 460 -79 b 471 -57 469 -71 471 -65 z m 481 -81 b 487 -76 484 -81 486 -79 b 481 -71 486 -73 484 -71 b 475 -76 478 -71 476 -73 b 481 -81 476 -79 478 -81 z m 536 -50 b 530 -37 536 -45 534 -41 b 516 -33 526 -35 522 -33 b 500 -39 510 -33 505 -35 b 494 -57 496 -43 494 -50 b 500 -75 494 -65 496 -71 b 516 -81 505 -79 510 -81 b 530 -77 522 -81 527 -80 b 536 -64 534 -73 536 -69 l 526 -64 b 516 -73 525 -70 522 -73 b 505 -57 508 -73 505 -67 b 516 -42 505 -47 509 -42 b 526 -50 522 -42 525 -45 z m 587 -57 b 581 -39 587 -50 585 -43 b 565 -33 576 -35 571 -33 b 549 -39 559 -33 553 -35 b 543 -57 545 -43 543 -50 b 549 -75 543 -65 545 -71 b 565 -81 553 -79 559 -81 b 581 -75 571 -81 576 -79 b 587 -57 585 -71 587 -65 z "},"M":{"ha":812,"x_min":0,"x_max":0,"o":"m 539 469 b 589 501 554 483 570 494 b 492 563 555 536 522 557 b 422 572 460 569 437 572 b 332 554 392 572 361 566 b 381 510 350 541 367 526 b 424 514 396 513 410 514 b 539 469 466 514 505 499 z m 306 249 b 338 342 328 277 338 308 b 306 433 338 375 328 406 b 279 382 292 416 283 398 b 274 341 276 366 274 352 b 278 309 274 330 275 319 b 306 249 283 288 292 267 z m 443 373 b 445 341 444 363 445 352 b 443 309 445 331 444 320 b 527 341 474 311 502 322 b 443 373 502 361 474 371 z m 289 231 b 256 292 271 252 260 273 b 250 341 252 312 250 328 b 254 380 250 354 251 368 b 289 452 260 406 271 430 b 239 481 274 465 258 475 b 192 342 208 439 192 392 b 239 201 192 291 208 244 b 266 214 248 204 257 209 b 289 231 274 219 281 224 z m 589 181 b 539 213 570 189 554 199 b 424 168 505 183 466 168 b 381 173 410 168 396 170 b 356 147 374 163 365 155 b 332 129 348 140 340 134 b 422 111 361 117 392 111 b 469 115 437 111 453 112 b 589 181 515 125 555 146 z m 577 -57 b 565 -73 576 -68 572 -73 b 553 -57 557 -73 553 -67 b 565 -42 554 -47 558 -42 b 577 -57 573 -42 577 -47 z m 193 844 l 193 865 l 202 865 b 213 854 210 864 213 861 b 202 844 213 848 210 844 z m 300 846 l 300 865 l 309 865 b 321 856 317 865 321 861 b 309 846 321 849 317 846 z m 443 845 b 427 825 442 831 437 825 b 412 845 417 825 412 831 b 427 865 412 858 418 865 b 443 845 438 865 443 858 z m 548 838 l 555 862 l 564 838 z m 433 760 b 418 739 433 746 427 739 b 401 760 407 739 401 746 b 418 780 403 773 408 780 b 433 760 429 779 433 772 z m 625 196 b 628 191 627 195 628 193 l 628 189 b 627 188 628 189 627 188 b 508 98 587 137 547 107 b 422 85 469 90 440 85 b 300 117 380 85 340 96 l 288 123 b 286 127 287 124 286 126 b 286 130 286 128 286 129 l 288 132 b 386 224 332 157 365 188 b 418 340 408 261 418 300 l 418 342 b 385 458 418 383 407 422 b 288 551 363 496 331 526 b 286 555 287 552 286 553 b 286 557 286 555 286 557 l 288 559 b 427 596 334 584 380 596 b 471 593 442 596 457 595 b 628 494 533 582 585 549 b 629 490 629 493 629 492 b 624 486 629 488 627 487 b 579 469 608 484 594 477 b 543 439 565 460 553 450 b 538 437 541 437 540 437 b 535 438 538 437 536 437 b 479 479 515 458 496 471 b 425 490 461 486 444 490 b 399 488 417 490 408 490 b 439 398 418 460 431 431 b 559 345 486 397 526 378 b 561 342 560 344 561 342 b 559 338 561 340 560 339 b 439 285 526 304 486 286 b 399 195 431 252 418 222 b 422 193 407 193 415 193 b 536 245 467 193 505 210 b 540 247 537 246 538 247 l 541 247 b 545 245 543 246 544 245 b 625 196 569 218 595 202 z m 228 176 b 167 342 187 227 167 282 b 229 507 167 401 187 456 b 232 509 229 509 231 509 b 234 509 233 509 233 509 b 337 433 281 494 316 469 b 363 344 354 406 363 376 l 363 342 b 336 250 362 309 353 279 b 233 174 315 214 280 189 l 232 174 b 228 176 231 174 229 174 z m 461 -57 b 449 -73 460 -68 456 -73 b 437 -57 441 -73 437 -67 b 449 -42 438 -47 442 -42 b 461 -57 457 -42 461 -47 z m 129 679 b 85 661 112 679 98 673 b 68 618 74 650 68 635 l 68 64 b 85 20 68 47 74 32 b 129 3 98 9 112 3 l 684 3 b 726 20 701 3 715 9 b 745 64 739 32 745 47 l 745 618 b 726 661 745 635 739 650 b 684 679 715 673 701 679 z m 595 -34 l 595 -81 l 604 -81 l 604 -50 l 604 -50 l 616 -81 l 623 -81 l 635 -50 l 635 -81 l 646 -81 l 646 -34 l 633 -34 l 620 -66 l 619 -66 l 607 -34 z m 180 814 l 193 814 l 193 834 l 204 834 b 220 840 211 834 216 836 b 227 854 224 844 227 848 b 204 876 226 869 218 876 l 180 876 z m 235 814 l 277 814 l 277 825 l 248 825 l 248 840 l 275 840 l 275 850 l 248 850 l 248 865 l 277 865 l 277 876 l 235 876 z m 288 814 l 300 814 l 300 836 l 310 836 l 321 814 l 336 814 l 323 838 b 334 856 330 841 334 847 b 312 876 333 869 326 876 l 288 876 z m 377 858 l 390 858 b 367 877 388 870 380 877 b 350 871 360 877 354 875 b 343 858 345 868 343 863 b 360 841 343 849 349 843 l 367 840 b 378 831 374 838 377 835 b 366 824 377 826 373 824 b 354 833 359 824 355 827 l 341 833 b 349 818 342 826 344 821 b 367 813 353 814 359 813 b 391 831 382 813 389 819 b 372 850 390 842 384 848 l 366 851 b 357 859 360 852 357 854 b 367 866 357 863 360 866 b 377 858 373 866 376 863 z m 456 845 b 448 868 456 854 454 863 b 427 877 443 873 435 877 b 406 868 419 877 412 873 b 398 845 401 863 398 854 b 406 821 398 835 401 827 b 427 813 412 816 419 813 b 448 821 435 813 443 816 b 456 845 454 827 456 835 z m 518 876 l 505 876 l 505 837 l 505 837 l 478 876 l 466 876 l 466 814 l 479 814 l 479 852 l 507 814 l 518 814 z m 540 814 l 545 827 l 566 827 l 571 814 l 585 814 l 564 876 l 547 876 l 526 814 z m 593 814 l 633 814 l 633 825 l 606 825 l 606 876 l 593 876 z m 237 791 l 237 751 b 225 739 237 743 233 739 b 212 751 216 741 212 744 l 212 791 l 199 791 l 199 750 b 206 734 199 743 201 738 b 225 728 211 730 217 728 b 243 734 233 728 239 730 b 251 750 248 738 251 743 l 251 791 z m 295 772 l 308 772 b 285 791 307 785 298 791 b 268 787 278 791 273 790 b 261 772 264 783 262 779 b 278 755 262 764 267 758 l 285 754 b 296 746 292 753 296 750 b 284 739 295 741 291 739 b 273 748 277 739 274 742 l 260 748 b 267 733 260 741 262 736 b 285 728 271 730 277 728 b 309 746 300 728 308 734 b 290 764 308 756 302 762 l 284 766 b 275 773 278 767 275 769 b 285 781 275 778 278 781 b 295 772 291 781 294 778 z m 318 728 l 359 728 l 359 739 l 331 739 l 331 754 l 357 754 l 357 765 l 331 765 l 331 780 l 359 780 l 359 791 l 318 791 z m 447 760 b 438 783 447 770 444 778 b 418 791 433 789 426 791 b 397 783 410 791 403 789 b 389 760 391 778 389 770 b 397 736 389 749 391 742 b 418 728 403 730 410 728 b 438 736 426 728 433 730 b 447 760 444 742 447 749 z m 509 791 l 496 791 l 496 751 l 495 751 l 468 791 l 456 791 l 456 728 l 469 728 l 469 768 l 470 768 l 497 728 l 509 728 z m 519 728 l 559 728 l 559 739 l 532 739 l 532 791 l 519 791 z m 556 791 l 579 751 l 579 728 l 592 728 l 592 751 l 614 791 l 600 791 l 586 764 l 585 764 l 571 791 z m 167 -81 l 199 -81 l 199 -73 l 177 -73 l 177 -61 l 197 -61 l 197 -53 l 177 -53 l 177 -42 l 199 -42 l 199 -34 l 167 -34 z m 246 -34 l 236 -34 l 236 -63 l 235 -63 l 215 -34 l 207 -34 l 207 -81 l 216 -81 l 216 -51 l 217 -51 l 237 -81 l 246 -81 z m 263 -34 l 252 -34 l 267 -57 l 252 -81 l 263 -81 l 273 -64 l 283 -81 l 294 -81 l 279 -57 l 294 -34 l 283 -34 l 273 -50 z m 298 -34 l 315 -64 l 315 -81 l 325 -81 l 325 -64 l 342 -34 l 331 -34 l 320 -54 l 309 -34 z m 386 -50 b 380 -37 385 -45 383 -41 b 366 -33 376 -35 371 -33 b 350 -39 359 -33 354 -35 b 344 -57 346 -43 344 -50 b 350 -75 344 -65 346 -71 b 366 -81 354 -79 359 -81 b 380 -77 372 -81 376 -80 b 386 -64 383 -73 385 -69 l 376 -64 b 366 -73 374 -70 371 -73 b 353 -57 357 -73 353 -67 b 366 -42 355 -47 359 -42 b 376 -50 371 -42 374 -45 z m 393 -81 l 423 -81 l 423 -73 l 404 -73 l 404 -34 l 393 -34 z m 471 -57 b 465 -39 471 -50 469 -43 b 449 -33 460 -35 456 -33 b 433 -39 443 -33 437 -35 b 427 -57 429 -43 427 -50 b 433 -75 427 -65 429 -71 b 449 -81 437 -79 443 -81 b 465 -75 456 -81 460 -79 b 471 -57 469 -71 471 -65 z m 481 -81 b 487 -76 484 -81 486 -79 b 481 -71 486 -73 484 -71 b 475 -76 478 -71 476 -73 b 481 -81 476 -79 478 -81 z m 536 -50 b 530 -37 536 -45 534 -41 b 516 -33 526 -35 522 -33 b 500 -39 510 -33 505 -35 b 494 -57 496 -43 494 -50 b 500 -75 494 -65 496 -71 b 516 -81 505 -79 510 -81 b 530 -77 522 -81 527 -80 b 536 -64 534 -73 536 -69 l 526 -64 b 516 -73 525 -70 522 -73 b 505 -57 508 -73 505 -67 b 516 -42 505 -47 509 -42 b 526 -50 522 -42 525 -45 z m 587 -57 b 581 -39 587 -50 585 -43 b 565 -33 576 -35 571 -33 b 549 -39 559 -33 553 -35 b 543 -57 545 -43 543 -50 b 549 -75 543 -65 545 -71 b 565 -81 553 -79 559 -81 b 581 -75 571 -81 576 -79 b 587 -57 585 -71 587 -65 z "},"N":{"ha":812,"x_min":0,"x_max":0,"o":"m 539 469 b 589 501 554 483 570 494 b 492 563 555 536 522 557 b 422 572 460 569 437 572 b 332 554 392 572 361 566 b 381 510 350 541 367 526 b 424 514 396 513 410 514 b 539 469 466 514 505 499 z m 306 249 b 338 342 328 277 338 308 b 306 433 338 375 328 406 b 279 382 292 416 283 398 b 274 341 276 366 274 352 b 278 309 274 330 275 319 b 306 249 283 288 292 267 z m 443 373 b 445 341 444 363 445 352 b 443 309 445 331 444 320 b 527 341 474 311 502 322 b 443 373 502 361 474 371 z m 289 231 b 256 292 271 252 260 273 b 250 341 252 312 250 328 b 254 380 250 354 251 368 b 289 452 260 406 271 430 b 239 481 274 465 258 475 b 192 342 208 439 192 392 b 239 201 192 291 208 244 b 266 214 248 204 257 209 b 289 231 274 219 281 224 z m 589 181 b 539 213 570 189 554 199 b 424 168 505 183 466 168 b 381 173 410 168 396 170 b 356 147 374 163 365 155 b 332 129 348 140 340 134 b 422 111 361 117 392 111 b 469 115 437 111 453 112 b 589 181 515 125 555 146 z m 577 -57 b 565 -73 576 -68 572 -73 b 553 -57 557 -73 553 -67 b 565 -42 554 -47 558 -42 b 577 -57 573 -42 577 -47 z m 193 844 l 193 865 l 202 865 b 213 854 210 864 213 861 b 202 844 213 848 210 844 z m 300 846 l 300 865 l 309 865 b 321 856 317 865 321 861 b 309 846 321 849 317 846 z m 443 845 b 427 825 442 831 437 825 b 412 845 417 825 412 831 b 427 865 412 858 418 865 b 443 845 438 865 443 858 z m 548 838 l 555 862 l 564 838 z m 433 760 b 418 739 433 746 427 739 b 401 760 407 739 401 746 b 418 780 403 773 408 780 b 433 760 429 779 433 772 z m 625 196 b 628 191 627 195 628 193 l 628 189 b 627 188 628 189 627 188 b 508 98 587 137 547 107 b 422 85 469 90 440 85 b 300 117 380 85 340 96 l 288 123 b 286 127 287 124 286 126 b 286 130 286 128 286 129 l 288 132 b 386 224 332 157 365 188 b 418 340 408 261 418 300 l 418 342 b 385 458 418 383 407 422 b 288 551 363 496 331 526 b 286 555 287 552 286 553 b 286 557 286 555 286 557 l 288 559 b 427 596 334 584 380 596 b 471 593 442 596 457 595 b 628 494 533 582 585 549 b 629 490 629 493 629 492 b 624 486 629 488 627 487 b 579 469 608 484 594 477 b 543 439 565 460 553 450 b 538 437 541 437 540 437 b 535 438 538 437 536 437 b 479 479 515 458 496 471 b 425 490 461 486 444 490 b 399 488 417 490 408 490 b 439 398 418 460 431 431 b 559 345 486 397 526 378 b 561 342 560 344 561 342 b 559 338 561 340 560 339 b 439 285 526 304 486 286 b 399 195 431 252 418 222 b 422 193 407 193 415 193 b 536 245 467 193 505 210 b 540 247 537 246 538 247 l 541 247 b 545 245 543 246 544 245 b 625 196 569 218 595 202 z m 228 176 b 167 342 187 227 167 282 b 229 507 167 401 187 456 b 232 509 229 509 231 509 b 234 509 233 509 233 509 b 337 433 281 494 316 469 b 363 344 354 406 363 376 l 363 342 b 336 250 362 309 353 279 b 233 174 315 214 280 189 l 232 174 b 228 176 231 174 229 174 z m 461 -57 b 449 -73 460 -68 456 -73 b 437 -57 441 -73 437 -67 b 449 -42 438 -47 442 -42 b 461 -57 457 -42 461 -47 z m 129 679 b 85 661 112 679 98 673 b 68 618 74 650 68 635 l 68 64 b 85 20 68 47 74 32 b 129 3 98 9 112 3 l 684 3 b 726 20 701 3 715 9 b 745 64 739 32 745 47 l 745 618 b 726 661 745 635 739 650 b 684 679 715 673 701 679 z m 595 -34 l 595 -81 l 604 -81 l 604 -50 l 604 -50 l 616 -81 l 623 -81 l 635 -50 l 635 -81 l 646 -81 l 646 -34 l 633 -34 l 620 -66 l 619 -66 l 607 -34 z m 180 814 l 193 814 l 193 834 l 204 834 b 220 840 211 834 216 836 b 227 854 224 844 227 848 b 204 876 226 869 218 876 l 180 876 z m 235 814 l 277 814 l 277 825 l 248 825 l 248 840 l 275 840 l 275 850 l 248 850 l 248 865 l 277 865 l 277 876 l 235 876 z m 288 814 l 300 814 l 300 836 l 310 836 l 321 814 l 336 814 l 323 838 b 334 856 330 841 334 847 b 312 876 333 869 326 876 l 288 876 z m 377 858 l 390 858 b 367 877 388 870 380 877 b 350 871 360 877 354 875 b 343 858 345 868 343 863 b 360 841 343 849 349 843 l 367 840 b 378 831 374 838 377 835 b 366 824 377 826 373 824 b 354 833 359 824 355 827 l 341 833 b 349 818 342 826 344 821 b 367 813 353 814 359 813 b 391 831 382 813 389 819 b 372 850 390 842 384 848 l 366 851 b 357 859 360 852 357 854 b 367 866 357 863 360 866 b 377 858 373 866 376 863 z m 456 845 b 448 868 456 854 454 863 b 427 877 443 873 435 877 b 406 868 419 877 412 873 b 398 845 401 863 398 854 b 406 821 398 835 401 827 b 427 813 412 816 419 813 b 448 821 435 813 443 816 b 456 845 454 827 456 835 z m 518 876 l 505 876 l 505 837 l 505 837 l 478 876 l 466 876 l 466 814 l 479 814 l 479 852 l 507 814 l 518 814 z m 540 814 l 545 827 l 566 827 l 571 814 l 585 814 l 564 876 l 547 876 l 526 814 z m 593 814 l 633 814 l 633 825 l 606 825 l 606 876 l 593 876 z m 237 791 l 237 751 b 225 739 237 743 233 739 b 212 751 216 741 212 744 l 212 791 l 199 791 l 199 750 b 206 734 199 743 201 738 b 225 728 211 730 217 728 b 243 734 233 728 239 730 b 251 750 248 738 251 743 l 251 791 z m 295 772 l 308 772 b 285 791 307 785 298 791 b 268 787 278 791 273 790 b 261 772 264 783 262 779 b 278 755 262 764 267 758 l 285 754 b 296 746 292 753 296 750 b 284 739 295 741 291 739 b 273 748 277 739 274 742 l 260 748 b 267 733 260 741 262 736 b 285 728 271 730 277 728 b 309 746 300 728 308 734 b 290 764 308 756 302 762 l 284 766 b 275 773 278 767 275 769 b 285 781 275 778 278 781 b 295 772 291 781 294 778 z m 318 728 l 359 728 l 359 739 l 331 739 l 331 754 l 357 754 l 357 765 l 331 765 l 331 780 l 359 780 l 359 791 l 318 791 z m 447 760 b 438 783 447 770 444 778 b 418 791 433 789 426 791 b 397 783 410 791 403 789 b 389 760 391 778 389 770 b 397 736 389 749 391 742 b 418 728 403 730 410 728 b 438 736 426 728 433 730 b 447 760 444 742 447 749 z m 509 791 l 496 791 l 496 751 l 495 751 l 468 791 l 456 791 l 456 728 l 469 728 l 469 768 l 470 768 l 497 728 l 509 728 z m 519 728 l 559 728 l 559 739 l 532 739 l 532 791 l 519 791 z m 556 791 l 579 751 l 579 728 l 592 728 l 592 751 l 614 791 l 600 791 l 586 764 l 585 764 l 571 791 z m 167 -81 l 199 -81 l 199 -73 l 177 -73 l 177 -61 l 197 -61 l 197 -53 l 177 -53 l 177 -42 l 199 -42 l 199 -34 l 167 -34 z m 246 -34 l 236 -34 l 236 -63 l 235 -63 l 215 -34 l 207 -34 l 207 -81 l 216 -81 l 216 -51 l 217 -51 l 237 -81 l 246 -81 z m 263 -34 l 252 -34 l 267 -57 l 252 -81 l 263 -81 l 273 -64 l 283 -81 l 294 -81 l 279 -57 l 294 -34 l 283 -34 l 273 -50 z m 298 -34 l 315 -64 l 315 -81 l 325 -81 l 325 -64 l 342 -34 l 331 -34 l 320 -54 l 309 -34 z m 386 -50 b 380 -37 385 -45 383 -41 b 366 -33 376 -35 371 -33 b 350 -39 359 -33 354 -35 b 344 -57 346 -43 344 -50 b 350 -75 344 -65 346 -71 b 366 -81 354 -79 359 -81 b 380 -77 372 -81 376 -80 b 386 -64 383 -73 385 -69 l 376 -64 b 366 -73 374 -70 371 -73 b 353 -57 357 -73 353 -67 b 366 -42 355 -47 359 -42 b 376 -50 371 -42 374 -45 z m 393 -81 l 423 -81 l 423 -73 l 404 -73 l 404 -34 l 393 -34 z m 471 -57 b 465 -39 471 -50 469 -43 b 449 -33 460 -35 456 -33 b 433 -39 443 -33 437 -35 b 427 -57 429 -43 427 -50 b 433 -75 427 -65 429 -71 b 449 -81 437 -79 443 -81 b 465 -75 456 -81 460 -79 b 471 -57 469 -71 471 -65 z m 481 -81 b 487 -76 484 -81 486 -79 b 481 -71 486 -73 484 -71 b 475 -76 478 -71 476 -73 b 481 -81 476 -79 478 -81 z m 536 -50 b 530 -37 536 -45 534 -41 b 516 -33 526 -35 522 -33 b 500 -39 510 -33 505 -35 b 494 -57 496 -43 494 -50 b 500 -75 494 -65 496 -71 b 516 -81 505 -79 510 -81 b 530 -77 522 -81 527 -80 b 536 -64 534 -73 536 -69 l 526 -64 b 516 -73 525 -70 522 -73 b 505 -57 508 -73 505 -67 b 516 -42 505 -47 509 -42 b 526 -50 522 -42 525 -45 z m 587 -57 b 581 -39 587 -50 585 -43 b 565 -33 576 -35 571 -33 b 549 -39 559 -33 553 -35 b 543 -57 545 -43 543 -50 b 549 -75 543 -65 545 -71 b 565 -81 553 -79 559 -81 b 581 -75 571 -81 576 -79 b 587 -57 585 -71 587 -65 z "}}}
